<svg id="レイヤー_1" data-name="レイヤー 1" xmlns="http://www.w3.org/2000/svg" viewBox="0 0 35 35" width="35px" height="35px"><defs><style>.cls-1{fill:#50a07f;fill-rule:evenodd;}</style></defs><path class="cls-1" d="M35,14.49a12.28,12.28,0,0,1-2.56,7.82,25.3,25.3,0,0,1-3.73,3.94A65.53,65.53,0,0,1,19.29,33c-.69.4-1.42.72-2.13,1.07a1.47,1.47,0,0,1-.54.13c-.47,0-.7-.21-.65-.75s.15-1,.23-1.51a5.46,5.46,0,0,0,.09-1.71,1.07,1.07,0,0,0-.62-.82A4.22,4.22,0,0,0,14.2,29a19.36,19.36,0,0,1-4.49-1.21A17.21,17.21,0,0,1,4.9,24.88a13.33,13.33,0,0,1-4.63-7.4A10.7,10.7,0,0,1,0,14.29a12.3,12.3,0,0,1,2.77-7A16.6,16.6,0,0,1,9.25,2.51,20.17,20.17,0,0,1,16.34.86,20.4,20.4,0,0,1,27.15,3.18a15.27,15.27,0,0,1,6.23,5.88A11.46,11.46,0,0,1,35,14.49Zm-17.55,0,3.45,4.71a1,1,0,0,0,.76.46,1,1,0,0,0,1-1.05V11.74a1,1,0,0,0-.62-.82.87.87,0,0,0-1,.19,1.06,1.06,0,0,0-.31.83c0,1.25,0,2.49,0,3.74V16a1.37,1.37,0,0,1-.15-.18l-2.24-3.05L17.3,11.3a1,1,0,0,0-1-.44.87.87,0,0,0-.72.64,1.68,1.68,0,0,0-.07.5v6.57a2,2,0,0,0,.06.49,1,1,0,0,0,1,.65,1,1,0,0,0,.82-1V14.54Zm8.29-1.8h2.55a.93.93,0,0,0,.9-.94.91.91,0,0,0-.9-.94H24.76a.89.89,0,0,0-.9.89v7a.92.92,0,0,0,.9.92H28.3a.93.93,0,0,0,.89-.91.89.89,0,0,0-.86-1c-.78,0-1.55,0-2.33,0h-.27v-1.6H26c.76,0,1.51,0,2.26,0a.93.93,0,0,0,1-.89.9.9,0,0,0-.9-1H25.74ZM8.12,17.82v-6a.94.94,0,0,0-1-1,.93.93,0,0,0-.89,1V18.7a.86.86,0,0,0,0,.16.93.93,0,0,0,.88.85H10.7a1,1,0,0,0,.87-1.15.91.91,0,0,0-1-.74C9.8,17.81,9,17.82,8.12,17.82Zm6.17-2.53V11.87a1,1,0,0,0-.64-1,1,1,0,0,0-1.27,1q0,3.39,0,6.78a1.32,1.32,0,0,0,.12.52,1,1,0,0,0,1,.51,1,1,0,0,0,.77-1C14.3,17.58,14.29,16.43,14.29,15.29Z"/></svg>