<svg id="レイヤー_1" data-name="レイヤー 1" xmlns="http://www.w3.org/2000/svg" viewBox="0 0 35 35" width="35px" height="35px"><defs><style>.cls-1{fill:#fff;}</style></defs><g id="Logo_FIXED" data-name="Logo — FIXED"><path class="cls-1" d="M11.54,30.51c12.08,0,18.69-10,18.69-18.69,0-.29,0-.57,0-.85a13.43,13.43,0,0,0,3.28-3.4,13.14,13.14,0,0,1-3.77,1A6.52,6.52,0,0,0,32.61,5a13.25,13.25,0,0,1-4.16,1.59,6.58,6.58,0,0,0-11.37,4.5,6.08,6.08,0,0,0,.18,1.49A18.61,18.61,0,0,1,3.72,5.69a6.59,6.59,0,0,0,2,8.76,6.53,6.53,0,0,1-3-.82v.08a6.59,6.59,0,0,0,5.28,6.45,6.57,6.57,0,0,1-1.73.23,6.36,6.36,0,0,1-1.24-.12,6.56,6.56,0,0,0,6.13,4.56,13.19,13.19,0,0,1-8.16,2.81,11.72,11.72,0,0,1-1.57-.1,18.28,18.28,0,0,0,10,3"/></g></svg>