<svg id="レイヤー_1" data-name="レイヤー 1" xmlns="http://www.w3.org/2000/svg" viewBox="0 0 35 35"><defs><style>.cls-1{fill:#231815;}</style></defs><path class="cls-1" d="M17.51,1.43a16.06,16.06,0,0,0-5.85,31,15.53,15.53,0,0,1,.05-4.61c.29-1.25,1.88-8,1.88-8a5.78,5.78,0,0,1-.48-2.38c0-2.23,1.3-3.89,2.91-3.89a2,2,0,0,1,2,2.26c0,1.37-.87,3.43-1.33,5.35a2.34,2.34,0,0,0,2.38,2.9c2.85,0,5-3,5-7.34a6.34,6.34,0,0,0-6.72-6.53,6.94,6.94,0,0,0-7.25,7,6.24,6.24,0,0,0,1.19,3.66.53.53,0,0,1,.11.47c-.12.5-.4,1.59-.45,1.82s-.24.36-.55.21c-2-.94-3.26-3.86-3.26-6.22,0-5.06,3.67-9.71,10.61-9.71,5.56,0,9.9,4,9.9,9.27,0,5.54-3.49,10-8.33,10a4.27,4.27,0,0,1-3.67-1.85s-.81,3.07-1,3.82a17.62,17.62,0,0,1-2,4.21A16.06,16.06,0,0,0,33.54,17.51,16,16,0,0,0,17.51,1.43Z"/></svg>