<svg id="レイヤー_1" data-name="レイヤー 1" xmlns="http://www.w3.org/2000/svg" viewBox="0 0 35 35" width="35px" height="35px"><defs><style>.cls-1{fill:#50a07f;fill-rule:evenodd;}</style></defs><g id="_7_stroke" data-name="7 stroke"><g id="Instagram"><path id="Instagram-2" data-name="Instagram" class="cls-1" d="M27.63,9.23a1.86,1.86,0,1,1-1.86-1.86A1.86,1.86,0,0,1,27.63,9.23ZM17.5,22.67a5.17,5.17,0,1,1,5.17-5.17A5.18,5.18,0,0,1,17.5,22.67Zm0-13.13a8,8,0,1,0,8,8A8,8,0,0,0,17.5,9.54Zm0-4.75c4.14,0,4.63,0,6.26.09a8.35,8.35,0,0,1,2.88.54,4.7,4.7,0,0,1,1.78,1.16,4.7,4.7,0,0,1,1.16,1.78,8.41,8.41,0,0,1,.54,2.88c.07,1.63.09,2.12.09,6.26s0,4.63-.09,6.26a8.35,8.35,0,0,1-.54,2.88,5.15,5.15,0,0,1-2.94,2.94,8.35,8.35,0,0,1-2.88.54c-1.63.07-2.12.09-6.26.09s-4.63,0-6.26-.09a8.35,8.35,0,0,1-2.88-.54,4.62,4.62,0,0,1-1.78-1.16,4.62,4.62,0,0,1-1.16-1.78,8.35,8.35,0,0,1-.54-2.88c-.07-1.63-.09-2.12-.09-6.26s0-4.63.09-6.26a8.41,8.41,0,0,1,.54-2.88A4.7,4.7,0,0,1,6.58,6.58,4.62,4.62,0,0,1,8.36,5.42a8.35,8.35,0,0,1,2.88-.54C12.87,4.81,13.36,4.79,17.5,4.79ZM17.5,2c-4.21,0-4.74,0-6.39.09a11.53,11.53,0,0,0-3.76.72A7.93,7.93,0,0,0,2.81,7.35a11.53,11.53,0,0,0-.72,3.76C2,12.76,2,13.29,2,17.5s0,4.74.09,6.39a11.53,11.53,0,0,0,.72,3.76,7.93,7.93,0,0,0,4.54,4.54,11.53,11.53,0,0,0,3.76.72c1.65.07,2.18.09,6.39.09s4.74,0,6.39-.09a11.53,11.53,0,0,0,3.76-.72,7.93,7.93,0,0,0,4.54-4.54,11.53,11.53,0,0,0,.72-3.76c.07-1.65.09-2.18.09-6.39s0-4.74-.09-6.39a11.53,11.53,0,0,0-.72-3.76,7.93,7.93,0,0,0-4.54-4.54,11.53,11.53,0,0,0-3.76-.72C22.24,2,21.71,2,17.5,2Z"/></g></g></svg>