<svg id="レイヤー_1" data-name="レイヤー 1" xmlns="http://www.w3.org/2000/svg" viewBox="0 0 47 46" width="47px" height="46px"><defs><style>.cls-1{fill:#1d1d1b;}</style></defs><polygon class="cls-1" points="15.61 14.03 20.82 21.38 22.8 19.97 18.6 14.03 15.61 14.03"/><path class="cls-1" d="M46,6.21A10.06,10.06,0,0,0,40.23,1,10.24,10.24,0,0,0,28.56,4.59l2,1.43a7.8,7.8,0,0,1,8.89-2.75,7.77,7.77,0,0,1,4.69,9.91A7.76,7.76,0,0,1,36,18.28a15.47,15.47,0,0,0,2.06-7.73L36.85,9.33H15.27L9.3.9l-2,1.41,5,7H8.22L7,10.55A15.55,15.55,0,0,0,21.32,26V43.17H15.55v2.44h14V43.17H23.75V26a15.47,15.47,0,0,0,10.71-5.55,10,10,0,0,0,2.36.28,10.22,10.22,0,0,0,4.35-1A10.19,10.19,0,0,0,46,6.21ZM22.53,23.65a13.12,13.12,0,0,1-13-11.88H35.57A13.11,13.11,0,0,1,22.53,23.65Z"/></svg>