<svg id="レイヤー_1" data-name="レイヤー 1" xmlns="http://www.w3.org/2000/svg" viewBox="0 0 35 35" width="35px" height="35px"><defs><style>.cls-1{fill:#fff;}</style></defs><path class="cls-1" d="M34.27,9a4.39,4.39,0,0,0-3.1-3.11c-2.73-.74-13.67-.74-13.67-.74s-10.94,0-13.67.74A4.39,4.39,0,0,0,.73,9,46.24,46.24,0,0,0,0,17.5,46.24,46.24,0,0,0,.73,26a4.39,4.39,0,0,0,3.1,3.11c2.73.74,13.67.74,13.67.74s10.94,0,13.67-.74A4.39,4.39,0,0,0,34.27,26,46.24,46.24,0,0,0,35,17.5,46.24,46.24,0,0,0,34.27,9ZM13.92,22.7V12.3l9.15,5.2Z"/></svg>