<svg id="fix" xmlns="http://www.w3.org/2000/svg" viewBox="0 0 737.44 425.47" width="737.44px" height="425.47px"><path d="M228.37,14.52,227.18,19c-5.4.23-9.41.8-12,1.75A12,12,0,0,0,208.89,26q-2.32,3.82-4.48,12.23L175.27,149.13a46.86,46.86,0,0,0-1.84,10.71A7.64,7.64,0,0,0,175,165a8.37,8.37,0,0,0,4.58,2.46,50,50,0,0,0,8.8.92l-.87,4.48q-13.92-.66-35.4-.66-24.06,0-35.4.66l1-4.48q8.08-.32,12-1.75a11.63,11.63,0,0,0,6.21-5.24q2.26-3.81,4.42-12.23L172.36,28.6,80.73,173.92h-5L58,36.68,30.11,144a47.83,47.83,0,0,0-1.84,11.13q0,6.23,4.16,9.55t14.19,3.66l-.86,4.48q-7.87-.66-24.71-.66-13.5,0-21,.66l1.08-4.48a24.07,24.07,0,0,0,12-3.27A20.49,20.49,0,0,0,20.34,157a59.52,59.52,0,0,0,4.59-13L53.1,38.21a47.22,47.22,0,0,0,1.83-10.7,7.83,7.83,0,0,0-1.45-5.13,8.19,8.19,0,0,0-4.59-2.46A51.92,51.92,0,0,0,40,19l1.08-4.47q9.93.64,30.22.65,11.66,0,20-.65l12.63,114.31L175.48,15.17h17.27Q214.13,15.17,228.37,14.52Z"/><path d="M323.45,136.58,317.83,153q-4.31,12.56-12.19,17.8A30,30,0,0,1,288.7,176q-11.56,0-16.3-7a19.84,19.84,0,0,1-3-11.35,59.15,59.15,0,0,1,1.95-13.33q-14,31.66-37,31.67-12.2,0-18.45-7.26t-6.27-20.26q0-19.86,10.53-42.14t26.66-37.23q16.12-15,31.56-15a13.27,13.27,0,0,1,9.61,3.55q3.66,3.54,4.42,10.75l3-11a177.37,177.37,0,0,0,32.06-3.27l-29,99.68a23.86,23.86,0,0,0-1.08,6.12c0,3.34,1.4,5,4.21,5q7.77,0,13.7-17.58l4-10.81ZM290,73.69q0-5.46-1.94-8.41a6.23,6.23,0,0,0-5.51-2.94q-7.56,0-17.16,13.7T249,110.27A127.19,127.19,0,0,0,242.29,150q0,7.43,1.45,10.65a4.89,4.89,0,0,0,4.7,3.22q4.76,0,10.68-6.77t11.77-19.71a190.83,190.83,0,0,0,10.36-30.52l-1.08,5.46,9.6-34.83A24.29,24.29,0,0,0,290,73.69Z"/><path d="M365.21,69.44c0-2.92-1.29-4.37-3.88-4.37s-5.11,1.36-7.34,4.09-4.5,7.27-6.8,13.59l-4.43,11.36h-4.2l6.25-17q8-22.93,30.66-22.93,10.25,0,14.89,5T395,72.17a39.57,39.57,0,0,1-2.48,13.2l-23.2,68.46a21.42,21.42,0,0,0-1.3,6.45c0,3.12,1.47,4.69,4.42,4.69q3.35,0,6.7-3.77t7.23-13.81l3.88-10.81h4.21L388.74,153Q381,176,359,176q-20.07,0-20.07-18.46a54.45,54.45,0,0,1,3.24-17.14l21.69-64.2A20.51,20.51,0,0,0,365.21,69.44Zm9.88-59.67a19.34,19.34,0,0,1,8.09-7.26A25.72,25.72,0,0,1,394.68,0q7.88,0,12.14,3.66c2.84,2.43,4.26,5.84,4.26,10.2A19,19,0,0,1,408,24.46a21,21,0,0,1-8.32,7.31,25.45,25.45,0,0,1-11.59,2.62q-7.56,0-11.77-3.55a12,12,0,0,1-4.21-9.66A21.07,21.07,0,0,1,375.09,9.77Z"/><path d="M429.21,171.3q8.31,0,13.43-5.13t5.13-14.09a39.67,39.67,0,0,0-3-14.68,103.32,103.32,0,0,0-9.28-17.3q-.87-1.32-5.18-8a59.38,59.38,0,0,1-6.42-12.88A37.36,37.36,0,0,1,421.76,87a30.61,30.61,0,0,1,4.81-17,32.08,32.08,0,0,1,13.87-11.63q9.06-4.2,21.58-4.2,14.24,0,23.91,5.29t9.65,18a20.62,20.62,0,0,1-1.51,7.64,15.21,15.21,0,0,1-4.58,6.33,11.32,11.32,0,0,1-7.4,2.51,10.75,10.75,0,0,1-8.85-4.2,16.74,16.74,0,0,1-3.34-10.76,26.86,26.86,0,0,1,2-10.31,30.12,30.12,0,0,1,4.92-8.25A15,15,0,0,0,469,58.52q-8,0-12.58,5t-4.69,14.08a25.82,25.82,0,0,0,2.32,10.87A83.93,83.93,0,0,0,459.86,99q3.45,5.4,5.18,8.13a145.68,145.68,0,0,1,10,19.38,41,41,0,0,1,3,15.23A31.41,31.41,0,0,1,473,159.29a34.49,34.49,0,0,1-14.52,12.23,50.83,50.83,0,0,1-22,4.48q-15.76,0-26.12-6.17T400.07,150a19.35,19.35,0,0,1,3.29-11.36,10.52,10.52,0,0,1,9.12-4.69,10.66,10.66,0,0,1,9.23,4.92q3.41,4.91,3.4,12.44a31.66,31.66,0,0,1-1.08,8.41q-1.08,3.93-2.1,6.6c-.69,1.79-1.1,2.89-1.25,3.33A18.86,18.86,0,0,0,429.21,171.3Z"/><path d="M507.94,100.83a84.6,84.6,0,0,1,24.5-33.25q16.23-13.42,38.79-13.43,17.28,0,26.56,9.39t9.27,27.4q0,18.45-8.25,38.27a85,85,0,0,1-24.55,33.3Q558,176,535.41,176q-17.16,0-26.44-9.45t-9.29-27.46Q499.68,120.64,507.94,100.83ZM552.18,74.4q-9.64,15.88-16.29,39t-6.64,42.85q0,8.09,1.84,11.68a6,6,0,0,0,5.72,3.61q8.1,0,17.7-15.45t16.24-38.32a156.43,156.43,0,0,0,6.64-43.51q0-8.85-1.78-12.28a5.79,5.79,0,0,0-5.45-3.44Q561.85,58.52,552.18,74.4Z"/><path d="M731.94,153q-8,23-29.68,23-12.42,0-17.7-7.43a18.78,18.78,0,0,1-2.81-10.37q0-6.78,3.56-17.8L705.17,80c1.36-4.3,2.05-7.5,2.05-9.61,0-3.42-1.44-5.14-4.32-5.14q-6.57,0-16,13.54t-18.88,35.71a391.69,391.69,0,0,0-16.52,46.73l-2.91,11.57H617.43L644.2,76.2a29.46,29.46,0,0,0,1.29-7.09q0-4-3.78-4-4.1,0-7.34,3.93t-6.8,13.75l-4.2,11.36h-4.21l5.93-17q4.21-12.22,11.34-17.58a27.94,27.94,0,0,1,17.26-5.35q19,0,19,18.35a52.88,52.88,0,0,1-1.83,12.87l-6.91,27.19Q673,89.85,681.32,77.13T698.1,59.28A35.85,35.85,0,0,1,717,54.15q20,0,20,17.91a52.63,52.63,0,0,1-2.92,15.83L712.4,153.83a19.63,19.63,0,0,0-1.29,6.55q0,4.59,4.2,4.59,3.57,0,6.91-3.71t7-13.87l4-10.81h4.21Z"/><path d="M141.19,424.49V327.61h51.06v8H150.8v36.23h33.08v7.86H150.8v44.79Z"/><path d="M205.43,424.49V327.61H215v96.88Z"/><path d="M244.75,411.43q-13.94-13.9-13.93-35.38t13.93-35.46q13.92-14,34.24-14a49.67,49.67,0,0,1,25.88,6.74A42.22,42.22,0,0,1,322,353H310.29a31.13,31.13,0,0,0-12.63-13.2A37.49,37.49,0,0,0,279,335.19q-16.61,0-27.45,11.23T240.7,376.05q0,18.39,10.84,29.62t27.25,11.23q16.4,0,26.56-9.82T317,380.26H274.46V372.4H327v7.86q-1.94,20.22-15.38,32.64t-33.22,12.43A45.93,45.93,0,0,1,244.75,411.43Z"/><path d="M409.53,424.49l-8-22.61h-44.2l-8.1,22.61h-9.6l34.86-96.88h9.88l34.72,96.88ZM360.12,394h38.56l-19.21-54.2Z"/><path d="M446.31,383.91v40.58H436.7V327.61h29q15.93,0,24.17,7.79t8.23,19.73q0,11.94-6.45,19.3t-19.22,9.06l26.91,41H486.8l-25.67-40.58Zm0-48.3v40.3h19.35q22.66,0,22.65-20.15t-22.65-20.15Z"/><path d="M528.6,411.5q-13.94-14-13.93-35.45t13.93-35.46q13.92-14,34.32-14t34.24,14q13.86,14,13.87,35.46T597.16,411.5q-13.87,14-34.24,14T528.6,411.5Zm61.63-5.76q10.9-11.3,10.91-29.69T590.3,346.42q-10.84-11.24-27.46-11.23t-27.51,11.23q-10.92,11.24-10.92,29.63t10.92,29.69q10.9,11.31,27.45,11.31T590.23,405.74Z"/><path d="M379.25,306.09a1.08,1.08,0,0,1,1,1c0,1-1,1.5-2.25,1.5-10.73,0-24-12.23-24.47-40.19-18,17.73-34.69,31-42.68,31-4.49,0-12.48-7.49-12.48-13.48,0-18.23,28-50.43,39.94-50.43,8.24,0,15,3.5,15,5.75,0,.74-.5,1.24-1.5,1.24-14.23,0-41.94,36.95-41.94,50.43a2,2,0,0,0,1.75,2.25c8.24,0,24.46-13,41.93-30.71,2.25-38.69,39.45-99.85,60.16-99.85,5.25,0,9.74,5.74,9.74,12.23,0,10.73-25.71,43.94-52.92,73.89-1.75,6.49-3.49,11-3.49,25.21C367,291.87,373.26,305.1,379.25,306.09Zm36.95-129.8c-12.48,0-34.7,38.19-44.18,68.4C396.73,217,419,187,419,179A2.63,2.63,0,0,0,416.2,176.29Z"/><path d="M447.89,264.16a1.05,1.05,0,0,1,1,1c0,.5-1.75,2.24-2.5,3,0,0-24.71,27-43.93,27-12.73,0-19.47-8-19.47-21,0-22.46,22.47-45.92,33.45-45.92,6.74,0,11,8.48,11,11.48,0,7-15.22,20.22-28.95,28.7a38.79,38.79,0,0,0-.75,7.74c0,7.74,3.74,14.23,11,14.23,13.23,0,37.69-25.21,37.69-25.21S447.39,264.16,447.89,264.16ZM422.18,240c0-2-.75-2.75-2-2.75-4.24,0-14,9.73-21.47,28C410,257.67,422.18,245.69,422.18,240Z"/></svg>