<svg id="レイヤー_1" data-name="レイヤー 1" xmlns="http://www.w3.org/2000/svg" viewBox="0 0 361.95 57.93"><defs><style>.cls-1{fill:none;}.cls-2,.cls-3{fill:#fff;}.cls-3{fill-rule:evenodd;}</style></defs><g id="レイヤー_2" data-name="レイヤー 2"><g id="レイヤー_1-2" data-name="レイヤー 1-2"><line class="cls-1" x1="25.56" y1="46.53" x2="25.57" y2="46.52"/><path class="cls-2" d="M30,49v6.79H3.82V49s4.34,0,4.34-3.49V27.8a4.29,4.29,0,0,0-4.34-2.66V18H55.08V33.9H41.44s-.21-8.16-5.16-8.26-10.72,0-10.72,0V33.8s5,.89,5-3.54h7.18v11.6H29.35s.2-2.85-3.79-2.65v6.73S25.76,49,30,49Z"/><path class="cls-2" d="M83,25.35V18H57.21v7.32c3.53.15,4.35,2.07,4.35,2.07v19.2C61.56,49,57.21,49,57.21,49v6.79H83V49c-4.14-.29-4.4-2.41-4.4-2.41V27.36C79.76,24.76,83,25.39,83,25.35Z"/><path class="cls-2" d="M111,48.16c5.06,0,4.86-2.47,4.86-3.44s-.91-2.95-4-2.95v-6h24.31s0,5.9.06,5.91c-1.16-.1-4,.73-4,2.45v11.7H125.4a2,2,0,0,0-1.61-1.78c-2.13-.48-6.88,2.76-15.88,2.76S82.29,51.6,82.29,37.34c0-9.44,8.9-19.76,25.89-19.76,7.08,0,8.65,1.21,13.34,2.45,3.34.89,3.44-.59,3.75-1.76h7.15V33.14H118.69c0-2.07-1.21-7.48-7.69-7.48s-8.34,6.1-8.29,11.5S103.78,48.1,111,48.16Z"/><path class="cls-3" d="M184.12,47c-.71-1.38-13.76-29-13.76-29H153.27L140.13,46.59c-1,1.66-2.43,2.45-5,2.45v6.79h22.76V49h-2.78c-1.85,0-1.9-1.32-1.9-2.16A5.38,5.38,0,0,1,154,45h11.5a4.5,4.5,0,0,1,.86,1.87c0,.9-.25,2.16-1.77,2.16h-2.73v6.79h27.5V49C186.35,49,184.82,48.35,184.12,47Zm-27.25-7.6,2.88-7.57,2.9,7.57Z"/><path class="cls-3" d="M248.43,45.84l-4,.06v1a1.1,1.1,0,0,1-1.18,1h-.08c-1.78,0-1.58-2.31-1.58-3a8.82,8.82,0,0,0-1.92-5.75,8.64,8.64,0,0,0-5.4-3s10.81-.89,10.81-8.8c0-6.44-8.39-9-14-9.34h-40v7.32c1.47,0,4.2.84,4.2,2.56v19c0,2.21-3.84,2.16-4.2,2.16v6.79h25.79V49c-3.59,0-4.35-1.08-4.35-2.16l.08-6.54h6.5a3.77,3.77,0,0,1,3.31,1.25c2.05,2.27,1.9,4.47,1.84,7.42,0,.8.26,7.42,12.19,7.42s12-6.78,12-7.42S248.43,45.84,248.43,45.84ZM221.71,33.35h-9.1l-.08-8.06h9.15c.66,0,4.15,1.28,4.15,3.79S223.05,33.21,221.71,33.35Z"/><path class="cls-3" d="M275,17.48c-10.47-.06-27.46,3.36-27.46,19.83v.08c0,16,19.87,19.51,27.41,19.51s27.76-2.5,27.65-19.36C302.53,21.51,284.89,17.53,275,17.48ZM275,49c-6.38,0-6-8.11-6-11.65v-.08c0-6.48.25-12,6-12s6.17,6.84,6.17,11.85S280.9,49,275,49Z"/><polygon class="cls-2" points="0 37.47 16.66 37.47 16.66 39.5 1.8 39.5 0 37.47"/><path class="cls-2" d="M37.69,39.5v-2H57.38c.66,0,1.65.16,1.8,1s.61,2-4.24,3.59a81.61,81.61,0,0,1-12.85,2.55l-1.62-2.79.91,2.79s-9.65.75-11.43.69a2.92,2.92,0,0,1-3-1.62,8.24,8.24,0,0,1-1.35-4.13h1.9a9.38,9.38,0,0,0,1.19,3.2,2.44,2.44,0,0,0,2.33.79c.45,0,7.79-.5,7.79-.5L38.1,40h3l1.67,2.66c3-.28,6-.7,9-1.28,3.18-.73,3.74-.81,4.14-1.38.2-.28-.2-.39-.56-.39Z"/><path class="cls-3" d="M77.73,11.23h.73c3.05-.16,4.88-2.42,5-3.63C83.66,6,82.8,5.29,82,5.27c-3-.09-5.66,2.51-6.86,5.08h0a15.24,15.24,0,0,1-1.58,2.92A7.39,7.39,0,0,1,72,15.14a1,1,0,0,1-1,.26c-.07-.07-.1-.27,0-.76.22-.78,1-2.15,1.37-3.17a11.76,11.76,0,0,0,1-3.43c.1-1.22-.42-2.51-1.12-2.64-1.09-.2-2.56,1.21-2.73,1.36A17.83,17.83,0,0,0,68,8.3c.16-1.72-.53-2.87-1.09-2.94a3.15,3.15,0,0,0-2,.66,9.75,9.75,0,0,0-2.16,1.89c0-1.69-.62-2.45-1.16-2.55-.38-.07-1-.11-1.82.84-1.48,1.65-4.38,7.52-5.59,8.56-.23.19-.58.69-1.12.69s-.13-.72,0-1.09.4-.9,1-2.19C55,10.08,56.83,5.4,56.83,5.4H53.88l-.46,1.14c-.22-.4-.62-1.22-1.42-1.32C50,5,48.11,6.51,47.09,7.73a12.21,12.21,0,0,0-1.53,2.18c-1.25,2.19-2.85,4.62-3.06,4.85a1.79,1.79,0,0,1-1.2.69c-.44,0-.15-.72,0-1.09s.4-.9,1-2.19c.88-2.09,5-12.16,5-12.16h-3L41.63,6.53c-.22-.39-.61-1.21-1.39-1.31C38.17,5,36.53,6.47,35.55,7.73a9.39,9.39,0,0,0-1.44,2.39,46.54,46.54,0,0,1-2.81,4.64,1.87,1.87,0,0,1-1.21.69c-.44,0-.14-.72,0-1.09s.4-.9.95-2.19c.88-2.09,2.77-6.77,2.77-6.77H30.89l-.46,1.14c-.22-.39-.62-1.21-1.39-1.31-2-.23-4,1.28-5.1,2.5a9.43,9.43,0,0,0-1.71,2.61h0a17.36,17.36,0,0,1-1.62,2.92A7.52,7.52,0,0,1,19,15.12a1,1,0,0,1-1,.26c-.07-.07-.11-.27,0-.76.22-.78,1-2.15,1.37-3.17A11.55,11.55,0,0,0,20.4,8c.09-1.22-.42-2.51-1.12-2.64-1.09-.2-2.57,1.21-2.73,1.36A14.35,14.35,0,0,0,15.11,8.3c.15-1.72-.53-2.87-1.1-2.94A3.18,3.18,0,0,0,12,6,9.59,9.59,0,0,0,9.84,7.91c0-1.69-.63-2.45-1.16-2.55-.38-.07-.95-.09-1.95.72A13.24,13.24,0,0,0,3.6,10.29l.46.19C4.47,9.73,4.9,9,5.34,8.33c.76-1.13,2-2.16,2.41-2,.1.13-.3,1-.3,1L3.93,15.78h3s1.55-3.44,2.5-6c.79-2.17,3-3.63,3.56-3.46.18.07,0,.69-.24,1.18L9.26,15.78h3S13.8,12,14.73,9.91a8.3,8.3,0,0,1,1.48-2c.64-.7,1.85-1.84,2.3-1.64.16.07-.17.75-.26,1s-.67,1.65-1.15,2.8a14.52,14.52,0,0,0-1,3.16,2.64,2.64,0,0,0,1.26,2.56,2.14,2.14,0,0,0,2-.31,10,10,0,0,0,1.73-2c.24-.39.5-.76.85-1.4A3.48,3.48,0,0,0,22,13.62a4,4,0,0,0,.84,1.8,2.47,2.47,0,0,0,2.75.2A8.93,8.93,0,0,0,28,12.94a8.51,8.51,0,0,0,.51,2c.4.58.35.73,1.15.91a2,2,0,0,0,1.91-.77,25.64,25.64,0,0,0,1.89-2.74,4.43,4.43,0,0,0,.2,1.2,4,4,0,0,0,.83,1.8,1.81,1.81,0,0,0,2.34.19,8.4,8.4,0,0,0,2.54-2.6,7.18,7.18,0,0,0,.35,2c.4.58.34.73,1.15.91a2,2,0,0,0,1.91-.77,26.34,26.34,0,0,0,2.14-3,3,3,0,0,0,0,1.47,4,4,0,0,0,.84,1.8,2.47,2.47,0,0,0,2.75.2A9,9,0,0,0,51,12.94a8.51,8.51,0,0,0,.51,2c.41.58.35.73,1.15.91a2,2,0,0,0,1.91-.77c1-1,3.67-5.9,4.1-6.52.77-1.12,1.4-2.23,1.94-2.23.23,0-.13.77-.28,1.14L56.86,15.8h3s1.55-3.44,2.49-6c.79-2.17,3.06-3.63,3.57-3.46.18.07,0,.69-.25,1.18l-3.46,8.33h3s1.54-3.8,2.47-5.87a8.79,8.79,0,0,1,1.48-2c.59-.82,1.84-2,2.25-1.76.15.07-.18.75-.26,1L70,10a14.52,14.52,0,0,0-1,3.16,2.63,2.63,0,0,0,1.27,2.56,2.14,2.14,0,0,0,1.94-.31,10,10,0,0,0,1.73-2c.2-.3.38-.58.61-1v.13c-.15,2.58,1.46,3.62,3,3.62,2.53,0,4.23-2.42,5.3-4.74l-.31-.18c-1.07,2.55-3,4.55-4.72,4.5-.46,0-1.33-.12-1-1.79A17.37,17.37,0,0,1,77.73,11.23ZM81.9,5.62c.79,0,.88,1.21.84,1.59a4.25,4.25,0,0,1-2.26,2.88,4.79,4.79,0,0,1-2.54.57S80,5.61,81.9,5.62ZM28.93,10c-.55,1.27-.55,1.29-.87,1.95a13.18,13.18,0,0,1-1.59,2.12c-.23.23-1.82,1.86-2.54,1.21s.67-3.85,1.68-5.83,2-3.86,3.38-3.82c.72,0,1.12.72.75,2.09C29.74,7.71,29.22,9.36,28.93,10Zm11.2,0c-.56,1.27-.82,1.9-.82,1.9a14,14,0,0,1-1.54,2.2c-.39.44-1.67,1.62-2.19,1.24-.79-.57.46-3.22,1.57-5.89.59-1.42,1.6-3.73,3.05-3.82.72,0,1.16.72.79,2.09A16.93,16.93,0,0,1,40.13,10Zm11.8,0c-.55,1.25-.55,1.28-.87,1.95A14.4,14.4,0,0,1,49.47,14c-.23.24-1.81,1.86-2.54,1.21s.67-3.85,1.68-5.82,2-3.87,3.38-3.82c.72,0,1.12.7.75,2.09C52.74,7.7,52.22,9.34,51.93,10Z"/><path class="cls-2" d="M323.81,37a6.66,6.66,0,1,1-6.67-6.65h0a6.49,6.49,0,0,1,6.65,6.33Z"/><path class="cls-2" d="M335.65,49.06c-.4,3.24-.75,4.64-1.79,6.08A7.56,7.56,0,0,1,325,57.33l.64-4.33a6.18,6.18,0,0,0,2,.3c2.84,0,3-2.34,3.34-4.63l3-24.62h4.73Zm1.69-27.8a2.92,2.92,0,1,1,3-2.94A3,3,0,0,1,337.34,21.26Z"/><path class="cls-2" d="M357.67,43.88c-2.74,2.49-5.53,3.44-10.31,3.44h-1.3l-1.49,10.16h-4.69l3.89-26.8a13.76,13.76,0,0,0-2.49,3s-.1,0-.1.1l-.05.1c-.1.25-.3.3-.55.3-.5,0-.55-.4-.55-.65,0-1.59,1.85-4.48,4.19-6.93l1.19-8.17h4.74l-.75,5.43a13.87,13.87,0,0,1,3.39-.54c5.28,0,9.16,4.68,9.16,10.76A13.45,13.45,0,0,1,357.67,43.88Zm-6.43-16.74a5.07,5.07,0,0,0-2.39.5l-2.19,15.49a4.92,4.92,0,0,0,.94,0c5.63,0,9.42-3.68,9.42-9.16,0-4-2.49-6.83-5.78-6.83Z"/></g></g></svg>