<svg width="302" height="52" viewBox="0 0 302 52" fill="none" xmlns="http://www.w3.org/2000/svg">
<path d="M1.2 20V19.688C1.944 19.472 2.16 18.92 2.16 16.952V7.208C2.16 4.472 1.656 3.8 0.696 3.512V3.2H3.6L9.864 13.544L16.008 3.2H18.72V3.512C17.76 3.8 17.256 4.472 17.256 7.208V16.952C17.256 18.92 17.472 19.472 18.216 19.688V20H14.328V19.688C15.048 19.472 15.288 18.92 15.288 16.952V5.144L9.192 15.44H8.736L2.592 5.336V15.992C2.592 18.728 3.168 19.4 4.224 19.688V20H1.2ZM20.6653 24.632C19.7293 24.656 19.0333 24.344 19.0333 23.96C19.0333 23.504 19.6333 22.64 20.5213 22.64C21.1453 22.64 22.4413 23 23.5453 23.192C24.3853 22.472 25.1293 21.296 25.7293 20.048L21.7933 10.808C21.0493 9.008 20.4493 8.528 19.9453 8.312V8H23.5693V8.312C22.8493 8.528 23.0413 9.008 23.8093 10.808L26.7613 17.672L29.7133 10.808C30.3853 9.248 30.3373 8.48 29.4973 8.312V8H32.1613V8.312C31.4893 8.528 30.8653 9.008 30.0733 10.808L26.3533 19.4C24.3133 24.104 22.2013 24.608 20.6653 24.632ZM43.9181 20.24C41.3981 20.24 39.2861 19.352 38.1581 18.536L38.0381 15.2L38.3021 15.152C39.2381 17.672 41.0621 19.808 44.3981 19.808C46.3181 19.808 47.9741 18.56 47.9741 16.616C47.9741 14.216 45.0221 13.112 43.0061 12.296C40.1741 11.168 38.3741 10.16 38.3741 7.616C38.3741 4.808 40.7021 3.032 44.2301 3.032C46.4141 3.032 47.9741 3.632 48.9101 4.136L49.0061 6.92L48.7661 6.992C47.8781 4.904 46.1981 3.416 43.4621 3.416C41.5181 3.416 39.8621 4.544 39.8621 6.584C39.8621 8.84 42.3341 9.752 44.3741 10.592C47.0381 11.648 49.5341 12.704 49.5341 15.416C49.5341 18.416 46.7501 20.24 43.9181 20.24ZM56.8489 20.24C54.2089 20.24 51.1609 18.32 51.1609 14.36C51.1609 10.448 54.1129 7.832 57.4729 7.832C60.4969 7.832 62.2489 9.8 62.3209 12.08H52.9369C52.8889 12.44 52.8649 12.8 52.8649 13.184C52.8649 16.472 54.9049 18.728 58.0249 18.728C59.8729 18.728 61.1929 17.888 62.2969 16.64L62.5129 16.856C61.2889 18.536 59.4169 20.24 56.8489 20.24ZM53.0089 11.768H60.4009C60.1609 10.16 58.8649 8.264 56.6809 8.264C54.6409 8.24 53.3929 9.752 53.0089 11.768ZM69.7395 20.24C66.9555 20.24 64.0515 18.224 64.0515 14.36C64.0515 10.568 67.0755 7.832 70.5795 7.832C72.8835 7.832 74.6595 8.48 74.6595 9.128C74.6595 9.68 73.9155 10.424 73.1475 10.424C72.5475 10.424 71.4195 9.728 69.4995 8.216C67.2675 8.6 65.7555 10.592 65.7555 13.184C65.7555 16.472 67.7955 18.728 70.9155 18.728C72.7635 18.728 74.0835 17.888 75.1875 16.64L75.4035 16.856C74.1795 18.536 72.3075 20.24 69.7395 20.24ZM76.6586 20V19.688C77.4026 19.472 77.6186 18.92 77.6186 16.952V11.432C77.6186 9.752 77.3066 9.512 76.6586 9.224V8.96L79.2746 7.808L79.4906 7.976V10.976C79.8746 10.04 80.5226 9.224 81.2426 8.696C81.9866 8.144 82.8266 7.832 83.9786 7.832C84.9386 7.832 85.5386 8.072 85.5386 8.48C85.5386 9.008 85.0106 9.848 84.1466 9.848C83.4986 9.848 82.5626 9.584 81.1466 9.176C80.4506 9.68 79.5866 11.024 79.5146 12.176H79.4906V16.952C79.4906 18.92 79.7066 19.472 80.4506 19.688V20H76.6586ZM91.3489 20.24C88.7089 20.24 85.6609 18.32 85.6609 14.36C85.6609 10.448 88.6129 7.832 91.9729 7.832C94.9969 7.832 96.7489 9.8 96.8209 12.08H87.4369C87.3889 12.44 87.3649 12.8 87.3649 13.184C87.3649 16.472 89.4049 18.728 92.5249 18.728C94.3729 18.728 95.6929 17.888 96.7969 16.64L97.0129 16.856C95.7889 18.536 93.9169 20.24 91.3489 20.24ZM87.5089 11.768H94.9009C94.6609 10.16 93.3649 8.264 91.1809 8.264C89.1409 8.24 87.8929 9.752 87.5089 11.768ZM102.224 20.24C100.712 20.24 99.7995 19.304 99.7995 16.808V8.336H98.2635V8L101.336 5.048H101.672V8H105.32L105.2 8.336H101.672V16.808C101.672 18.44 102.344 19.064 103.376 19.064C104.048 19.064 104.888 18.752 105.68 17.816L105.896 18.032C104.864 19.208 103.64 20.24 102.224 20.24ZM121.273 20.24C115.753 20.24 112.225 17.168 112.225 11.936C112.225 6.824 116.185 3.032 121.825 3.032C123.889 3.032 126.289 3.632 127.225 4.232L127.321 7.088L127.081 7.136C126.145 4.952 123.865 3.488 121.009 3.488C117.193 3.488 114.241 6.032 114.241 10.928C114.217 15.44 116.953 19.76 121.945 19.76C124.537 19.76 126.553 18.392 127.489 15.8L127.753 15.824L127.369 18.944C126.241 19.568 123.961 20.24 121.273 20.24ZM129.678 20V19.688C130.398 19.472 130.638 18.92 130.638 16.952V4.232C130.638 2.552 130.326 2.312 129.678 2.024V1.76L132.294 0.607999L132.51 0.775999V16.952C132.51 18.92 132.726 19.472 133.47 19.688V20H129.678ZM141.613 20.24C138.565 20.24 135.325 18.344 135.325 14.168C135.325 10.424 138.325 7.832 141.613 7.832C144.589 7.832 147.877 9.656 147.877 13.928C147.877 18.032 144.445 20.24 141.613 20.24ZM142.333 19.736C144.901 19.736 146.053 17.672 146.053 15.344C146.053 12.248 143.869 8.12 140.725 8.288C138.277 8.384 137.173 10.4 137.173 12.8C137.173 15.848 139.141 19.736 142.333 19.736ZM154.322 20.216C152.402 20.216 150.746 19.64 149.954 19.112L149.738 16.208L149.954 16.16C150.962 18.44 152.666 19.808 154.85 19.832C156.338 19.832 157.442 18.944 157.442 17.6C157.442 15.872 155.762 15.32 153.914 14.72C151.634 14 150.002 13.376 150.002 11.192C150.002 9.296 151.586 7.832 154.37 7.832C155.93 7.832 157.346 8.168 158.09 8.48L158.186 10.928L157.946 10.976C157.178 9.248 155.642 8.144 153.938 8.144C152.306 8.144 151.25 8.936 151.25 10.16C151.25 11.672 152.786 12.296 154.682 12.92C156.506 13.52 158.714 14.072 158.714 16.472C158.714 18.488 157.202 20.192 154.322 20.216ZM166.138 20.24C163.498 20.24 160.45 18.32 160.45 14.36C160.45 10.448 163.402 7.832 166.762 7.832C169.786 7.832 171.538 9.8 171.61 12.08H162.226C162.178 12.44 162.154 12.8 162.154 13.184C162.154 16.472 164.194 18.728 167.314 18.728C169.162 18.728 170.482 17.888 171.586 16.64L171.802 16.856C170.578 18.536 168.706 20.24 166.138 20.24ZM162.298 11.768H169.69C169.45 10.16 168.154 8.264 165.97 8.264C163.93 8.24 162.682 9.752 162.298 11.768ZM177.013 20.24C175.501 20.24 174.589 19.304 174.589 16.808V8.336H173.053V8L176.125 5.048H176.461V8H180.109L179.989 8.336H176.461V16.808C176.461 18.44 177.133 19.064 178.165 19.064C178.837 19.064 179.677 18.752 180.469 17.816L180.685 18.032C179.653 19.208 178.429 20.24 177.013 20.24ZM182.047 23.048C183.295 22.424 183.847 21.248 183.919 20.024C183.727 20.096 183.559 20.144 183.343 20.144C182.695 20.144 182.167 19.616 182.167 18.968C182.167 18.176 182.695 17.6 183.463 17.6C184.399 17.6 184.999 18.272 184.975 19.448C184.975 21.2 183.559 22.76 182.143 23.264L182.047 23.048ZM201.517 20C201.037 20 200.797 19.736 200.797 19.28V14.96C200.053 17.912 198.037 20.24 195.661 20.24C193.885 20.24 192.301 19.16 192.301 17.096C192.301 14.6 194.821 13.664 197.677 12.872L200.797 12.032C200.677 9.704 199.477 8.624 197.437 8.624C195.997 8.624 194.605 9.296 193.405 10.76L193.189 10.568C194.557 8.864 196.309 7.832 198.397 7.832C201.301 7.832 202.645 9.44 202.645 12.152V16.952C202.645 18.92 202.861 19.472 203.605 19.688V20H201.517ZM194.101 16.424C194.101 17.984 195.181 18.824 196.549 18.824C199.117 18.824 200.773 15.584 200.797 13.064V12.392V12.344L197.773 13.16C195.997 13.664 194.077 14.456 194.101 16.424ZM214.003 20V19.688C214.747 19.472 214.963 18.92 214.963 16.952V3.584H213.787C211.627 3.584 210.691 4.16 209.875 5.888L209.611 5.84L209.755 3.2H222.115L222.259 5.84L221.995 5.888C221.179 4.16 220.243 3.584 218.083 3.584H216.955V16.952C216.955 18.92 217.171 19.472 217.915 19.688V20H214.003ZM230.064 20C229.584 20 229.344 19.736 229.344 19.28V14.96C228.6 17.912 226.584 20.24 224.208 20.24C222.432 20.24 220.848 19.16 220.848 17.096C220.848 14.6 223.368 13.664 226.224 12.872L229.344 12.032C229.224 9.704 228.024 8.624 225.984 8.624C224.544 8.624 223.152 9.296 221.952 10.76L221.736 10.568C223.104 8.864 224.856 7.832 226.944 7.832C229.848 7.832 231.192 9.44 231.192 12.152V16.952C231.192 18.92 231.408 19.472 232.152 19.688V20H230.064ZM222.648 16.424C222.648 17.984 223.728 18.824 225.096 18.824C227.664 18.824 229.32 15.584 229.344 13.064V12.392V12.344L226.32 13.16C224.544 13.664 222.624 14.456 222.648 16.424ZM240.006 20.216C238.686 20.216 237.438 19.76 236.526 19.16V23.432C236.526 25.4 236.742 25.952 237.486 26.168V26.48H233.694V26.168C234.414 25.952 234.654 25.4 234.654 23.432V11.432C234.654 9.752 234.342 9.512 233.694 9.224V8.96L236.31 7.808L236.526 7.976V9.728C237.822 8.768 239.478 7.832 241.326 7.832C244.11 7.832 246.198 10.136 246.198 13.688C246.198 17.048 243.99 20.192 240.006 20.216ZM236.526 16.04C236.526 17.672 238.614 19.76 240.774 19.76C243.294 19.76 244.47 17.864 244.47 15.08C244.47 12.416 243.414 8.648 240.054 8.648C238.662 8.648 237.534 9.344 236.526 10.112V16.04ZM253.536 20.24C250.896 20.24 247.848 18.32 247.848 14.36C247.848 10.448 250.8 7.832 254.16 7.832C257.184 7.832 258.936 9.8 259.008 12.08H249.624C249.576 12.44 249.552 12.8 249.552 13.184C249.552 16.472 251.592 18.728 254.712 18.728C256.56 18.728 257.88 17.888 258.984 16.64L259.2 16.856C257.976 18.536 256.104 20.24 253.536 20.24ZM249.696 11.768H257.088C256.848 10.16 255.552 8.264 253.368 8.264C251.328 8.24 250.08 9.752 249.696 11.768ZM265.299 20.216C263.379 20.216 261.723 19.64 260.931 19.112L260.715 16.208L260.931 16.16C261.939 18.44 263.643 19.808 265.827 19.832C267.315 19.832 268.419 18.944 268.419 17.6C268.419 15.872 266.739 15.32 264.891 14.72C262.611 14 260.979 13.376 260.979 11.192C260.979 9.296 262.563 7.832 265.347 7.832C266.907 7.832 268.323 8.168 269.067 8.48L269.163 10.928L268.923 10.976C268.155 9.248 266.619 8.144 264.915 8.144C263.283 8.144 262.227 8.936 262.227 10.16C262.227 11.672 263.763 12.296 265.659 12.92C267.483 13.52 269.691 14.072 269.691 16.472C269.691 18.488 268.179 20.192 265.299 20.216ZM275.099 20.24C273.587 20.24 272.675 19.304 272.675 16.808V8.336H271.139V8L274.211 5.048H274.547V8H278.195L278.075 8.336H274.547V16.808C274.547 18.44 275.219 19.064 276.251 19.064C276.923 19.064 277.763 18.752 278.555 17.816L278.771 18.032C277.739 19.208 276.515 20.24 275.099 20.24ZM279.581 20V19.688C280.325 19.472 280.541 18.92 280.541 16.952V11.432C280.541 9.752 280.229 9.512 279.581 9.224V8.96L282.197 7.808L282.413 7.976V10.976C282.797 10.04 283.445 9.224 284.165 8.696C284.909 8.144 285.749 7.832 286.901 7.832C287.861 7.832 288.461 8.072 288.461 8.48C288.461 9.008 287.933 9.848 287.069 9.848C286.421 9.848 285.485 9.584 284.069 9.176C283.373 9.68 282.509 11.024 282.437 12.176H282.413V16.952C282.413 18.92 282.629 19.472 283.373 19.688V20H279.581ZM289.611 24.632C288.675 24.656 287.979 24.344 287.979 23.96C287.979 23.504 288.579 22.64 289.467 22.64C290.091 22.64 291.387 23 292.491 23.192C293.331 22.472 294.075 21.296 294.675 20.048L290.739 10.808C289.995 9.008 289.395 8.528 288.891 8.312V8H292.515V8.312C291.795 8.528 291.987 9.008 292.755 10.808L295.707 17.672L298.659 10.808C299.331 9.248 299.283 8.48 298.443 8.312V8H301.107V8.312C300.435 8.528 299.811 9.008 299.019 10.808L295.299 19.4C293.259 24.104 291.147 24.608 289.611 24.632ZM10.296 51.24C4.776 51.24 1.248 48.168 1.248 42.936C1.248 37.824 5.208 34.032 10.848 34.032C12.912 34.032 15.312 34.632 16.248 35.232L16.344 38.088L16.104 38.136C15.168 35.952 12.888 34.488 10.032 34.488C6.216 34.488 3.264 37.032 3.264 41.928C3.24 46.44 5.976 50.76 10.968 50.76C13.56 50.76 15.576 49.392 16.512 46.8L16.776 46.824L16.392 49.944C15.264 50.568 12.984 51.24 10.296 51.24ZM24.9411 51.24C21.8931 51.24 18.6531 49.344 18.6531 45.168C18.6531 41.424 21.6531 38.832 24.9411 38.832C27.9171 38.832 31.2051 40.656 31.2051 44.928C31.2051 49.032 27.7731 51.24 24.9411 51.24ZM25.6611 50.736C28.2291 50.736 29.3811 48.672 29.3811 46.344C29.3811 43.248 27.1971 39.12 24.0531 39.288C21.6051 39.384 20.5011 41.4 20.5011 43.8C20.5011 46.848 22.4691 50.736 25.6611 50.736ZM32.9042 51V50.688C33.6242 50.472 33.8642 49.92 33.8642 47.952V35.232C33.8642 33.552 33.5522 33.312 32.9042 33.024V32.76L35.5202 31.608L35.7362 31.776V47.952C35.7362 49.92 35.9522 50.472 36.6962 50.688V51H32.9042ZM44.8395 51.24C41.7915 51.24 38.5515 49.344 38.5515 45.168C38.5515 41.424 41.5515 38.832 44.8395 38.832C47.8155 38.832 51.1035 40.656 51.1035 44.928C51.1035 49.032 47.6715 51.24 44.8395 51.24ZM45.5595 50.736C48.1275 50.736 49.2795 48.672 49.2795 46.344C49.2795 43.248 47.0955 39.12 43.9515 39.288C41.5035 39.384 40.3995 41.4 40.3995 43.8C40.3995 46.848 42.3675 50.736 45.5595 50.736ZM52.893 51V50.688C53.637 50.472 53.853 49.92 53.853 47.952V42.432C53.853 40.752 53.541 40.512 52.893 40.224V39.96L55.509 38.808L55.725 38.976V41.976C56.109 41.04 56.757 40.224 57.477 39.696C58.221 39.144 59.061 38.832 60.213 38.832C61.173 38.832 61.773 39.072 61.773 39.48C61.773 40.008 61.245 40.848 60.381 40.848C59.733 40.848 58.797 40.584 57.381 40.176C56.685 40.68 55.821 42.024 55.749 43.176H55.725V47.952C55.725 49.92 55.941 50.472 56.685 50.688V51H52.893ZM67.5833 51.24C64.9433 51.24 61.8953 49.32 61.8953 45.36C61.8953 41.448 64.8473 38.832 68.2073 38.832C71.2313 38.832 72.9833 40.8 73.0553 43.08H63.6713C63.6233 43.44 63.5993 43.8 63.5993 44.184C63.5993 47.472 65.6393 49.728 68.7593 49.728C70.6073 49.728 71.9273 48.888 73.0312 47.64L73.2473 47.856C72.0233 49.536 70.1513 51.24 67.5833 51.24ZM63.7433 42.768H71.1353C70.8953 41.16 69.5993 39.264 67.4153 39.264C65.3753 39.24 64.1273 40.752 63.7433 42.768ZM80.0899 51.264C77.1139 51.24 74.7859 48.672 74.7859 45.288C74.7859 41.952 77.0659 38.88 81.1939 38.856C82.5139 38.856 83.6179 39.264 84.4579 39.792V35.232C84.4579 33.552 84.1459 33.312 83.4979 33.024V32.76L86.1379 31.608L86.3299 31.776V47.952C86.3299 49.92 86.5459 50.472 87.2899 50.688V51H85.1779C84.7219 51 84.4579 50.736 84.4579 50.28V48.912C83.2819 50.136 81.7939 51.288 80.0899 51.264ZM76.5859 43.848C76.5859 46.656 77.9059 50.088 81.1699 50.088C82.4179 50.088 83.5219 49.44 84.4579 48.48V42.6C84.2419 41.04 82.4659 39.312 80.4499 39.312C77.9059 39.312 76.5859 41.304 76.5859 43.848ZM94.1308 41.928C93.5788 40.056 93.2668 39.528 92.7628 39.312V39H96.2188V39.312C95.4748 39.528 95.5468 40.056 96.0988 41.928L98.1388 49.056L101.595 39H102.507L105.987 49.032L108.051 41.928C108.531 40.32 108.339 39.48 107.499 39.312V39H109.947V39.312C109.275 39.528 108.963 40.056 108.411 41.928L105.771 51H104.691L101.259 41.04L97.8268 51H96.7708L94.1308 41.928ZM110.596 51V50.688C111.34 50.472 111.556 49.92 111.556 47.952V42.432C111.556 40.752 111.268 40.512 110.596 40.224V39.96L113.236 38.808L113.428 38.976V47.952C113.428 49.92 113.668 50.472 114.388 50.688V51H110.596ZM112.348 37.344C111.604 37.344 111.028 36.744 111.028 36.024C111.028 35.256 111.604 34.68 112.348 34.68C113.116 34.68 113.668 35.256 113.668 36.024C113.668 36.744 113.092 37.344 112.348 37.344ZM119.755 51.24C118.243 51.24 117.331 50.304 117.331 47.808V39.336H115.795V39L118.867 36.048H119.203V39H122.851L122.731 39.336H119.203V47.808C119.203 49.44 119.875 50.064 120.907 50.064C121.579 50.064 122.419 49.752 123.211 48.816L123.427 49.032C122.395 50.208 121.171 51.24 119.755 51.24ZM124.117 51V50.688C124.861 50.472 125.077 49.92 125.077 47.952V35.232C125.077 33.552 124.765 33.312 124.117 33.024V32.76L126.733 31.608L126.949 31.776V41.04C128.341 39.912 130.189 38.832 132.037 38.832C134.389 38.832 135.829 40.2 135.829 43.008V47.952C135.829 49.92 136.045 50.472 136.789 50.688V51H132.997V50.688C133.741 50.472 133.957 49.92 133.957 47.952V43.488C133.957 40.992 132.901 39.624 130.789 39.624C129.469 39.624 128.173 40.416 126.949 41.424V47.952C126.949 49.92 127.165 50.472 127.909 50.688V51H124.117ZM143.606 51V50.688C144.35 50.472 144.566 49.92 144.566 47.952V38.208C144.566 35.472 144.062 34.8 143.102 34.512V34.2H146.006L152.27 44.544L158.414 34.2H161.126V34.512C160.166 34.8 159.662 35.472 159.662 38.208V47.952C159.662 49.92 159.878 50.472 160.622 50.688V51H156.734V50.688C157.454 50.472 157.694 49.92 157.694 47.952V36.144L151.598 46.44H151.142L144.998 36.336V46.992C144.998 49.728 145.574 50.4 146.63 50.688V51H143.606ZM168.833 51.24C166.193 51.24 163.145 49.32 163.145 45.36C163.145 41.448 166.097 38.832 169.457 38.832C172.481 38.832 174.233 40.8 174.305 43.08H164.921C164.873 43.44 164.849 43.8 164.849 44.184C164.849 47.472 166.889 49.728 170.009 49.728C171.857 49.728 173.177 48.888 174.281 47.64L174.497 47.856C173.273 49.536 171.401 51.24 168.833 51.24ZM164.993 42.768H172.385C172.145 41.16 170.849 39.264 168.665 39.264C166.625 39.24 165.377 40.752 164.993 42.768ZM175.94 51V50.688C176.684 50.472 176.9 49.92 176.9 47.952V42.432C176.9 40.752 176.588 40.512 175.94 40.224V39.96L178.556 38.808L178.772 38.976V41.016C180.212 39.864 182.012 38.832 183.74 38.832C185.516 38.832 186.644 39.552 187.076 41.088C188.516 39.936 190.364 38.832 192.164 38.832C194.492 38.832 195.692 40.104 195.692 42.816V47.952C195.692 49.92 195.932 50.472 196.652 50.688V51H192.86V50.688C193.604 50.472 193.82 49.92 193.82 47.952V43.248C193.82 40.872 192.956 39.624 191.084 39.624C189.716 39.624 188.468 40.368 187.148 41.4C187.244 41.808 187.292 42.288 187.292 42.816V47.952C187.292 49.92 187.508 50.472 188.252 50.688V51H184.46V50.688C185.18 50.472 185.42 49.92 185.42 47.952V43.248C185.42 40.872 184.532 39.624 182.684 39.624C181.316 39.624 180.068 40.368 178.772 41.352V47.952C178.772 49.92 178.988 50.472 179.732 50.688V51H175.94ZM204.308 51.24C201.26 51.24 198.02 49.344 198.02 45.168C198.02 41.424 201.02 38.832 204.308 38.832C207.284 38.832 210.572 40.656 210.572 44.928C210.572 49.032 207.14 51.24 204.308 51.24ZM205.028 50.736C207.596 50.736 208.748 48.672 208.748 46.344C208.748 43.248 206.564 39.12 203.42 39.288C200.972 39.384 199.868 41.4 199.868 43.8C199.868 46.848 201.836 50.736 205.028 50.736ZM212.362 51V50.688C213.106 50.472 213.322 49.92 213.322 47.952V42.432C213.322 40.752 213.01 40.512 212.362 40.224V39.96L214.978 38.808L215.194 38.976V41.976C215.578 41.04 216.226 40.224 216.946 39.696C217.69 39.144 218.53 38.832 219.682 38.832C220.642 38.832 221.242 39.072 221.242 39.48C221.242 40.008 220.714 40.848 219.85 40.848C219.202 40.848 218.266 40.584 216.85 40.176C216.154 40.68 215.29 42.024 215.218 43.176H215.194V47.952C215.194 49.92 215.41 50.472 216.154 50.688V51H212.362ZM222.44 51V50.688C223.184 50.472 223.4 49.92 223.4 47.952V42.432C223.4 40.752 223.112 40.512 222.44 40.224V39.96L225.08 38.808L225.272 38.976V47.952C225.272 49.92 225.512 50.472 226.232 50.688V51H222.44ZM224.192 37.344C223.448 37.344 222.872 36.744 222.872 36.024C222.872 35.256 223.448 34.68 224.192 34.68C224.96 34.68 225.512 35.256 225.512 36.024C225.512 36.744 224.936 37.344 224.192 37.344ZM233.615 51.24C230.975 51.24 227.927 49.32 227.927 45.36C227.927 41.448 230.879 38.832 234.239 38.832C237.263 38.832 239.015 40.8 239.087 43.08H229.703C229.655 43.44 229.631 43.8 229.631 44.184C229.631 47.472 231.671 49.728 234.791 49.728C236.639 49.728 237.959 48.888 239.062 47.64L239.279 47.856C238.055 49.536 236.183 51.24 233.615 51.24ZM229.775 42.768H237.167C236.927 41.16 235.631 39.264 233.447 39.264C231.407 39.24 230.159 40.752 229.775 42.768ZM245.377 51.216C243.457 51.216 241.801 50.64 241.009 50.112L240.793 47.208L241.009 47.16C242.017 49.44 243.721 50.808 245.905 50.832C247.393 50.832 248.497 49.944 248.497 48.6C248.497 46.872 246.817 46.32 244.969 45.72C242.689 45 241.057 44.376 241.057 42.192C241.057 40.296 242.641 38.832 245.425 38.832C246.985 38.832 248.401 39.168 249.145 39.48L249.241 41.928L249.001 41.976C248.233 40.248 246.697 39.144 244.993 39.144C243.361 39.144 242.305 39.936 242.305 41.16C242.305 42.672 243.841 43.296 245.737 43.92C247.561 44.52 249.769 45.072 249.769 47.472C249.769 49.488 248.257 51.192 245.377 51.216ZM253.329 51.168C252.657 51.168 252.081 50.568 252.081 49.872C252.081 49.176 252.657 48.6 253.329 48.6C254.001 48.6 254.553 49.176 254.553 49.872C254.553 50.568 254.001 51.168 253.329 51.168Z" fill="#96927F"/>
</svg>
