<svg width="338" height="138" viewBox="0 0 338 138" fill="none" xmlns="http://www.w3.org/2000/svg">
<path d="M3 33V32.48C4.24 32.12 4.6 31.2 4.6 27.92V11.68C4.6 7.12 3.76 6 2.16 5.52V5H7L17.44 22.24L27.68 5H32.2V5.52C30.6 6 29.76 7.12 29.76 11.68V27.92C29.76 31.2 30.12 32.12 31.36 32.48V33H24.88V32.48C26.08 32.12 26.48 31.2 26.48 27.92V8.24L16.32 25.4H15.56L5.32 8.56V26.32C5.32 30.88 6.28 32 8.04 32.48V33H3ZM35.4422 40.72C33.8822 40.76 32.7222 40.24 32.7222 39.6C32.7222 38.84 33.7222 37.4 35.2022 37.4C36.2422 37.4 38.4022 38 40.2422 38.32C41.6422 37.12 42.8822 35.16 43.8822 33.08L37.3222 17.68C36.0822 14.68 35.0822 13.88 34.2422 13.52V13H40.2822V13.52C39.0822 13.88 39.4022 14.68 40.6822 17.68L45.6022 29.12L50.5222 17.68C51.6422 15.08 51.5622 13.8 50.1622 13.52V13H54.6022V13.52C53.4822 13.88 52.4422 14.68 51.1222 17.68L44.9222 32C41.5222 39.84 38.0022 40.68 35.4422 40.72ZM74.1969 33.4C69.9969 33.4 66.4769 31.92 64.5969 30.56L64.3969 25L64.8369 24.92C66.3969 29.12 69.4369 32.68 74.9969 32.68C78.1969 32.68 80.9569 30.6 80.9569 27.36C80.9569 23.36 76.0369 21.52 72.6769 20.16C67.9569 18.28 64.9569 16.6 64.9569 12.36C64.9569 7.68 68.8369 4.72 74.7169 4.72C78.3569 4.72 80.9569 5.72 82.5169 6.56L82.6769 11.2L82.2769 11.32C80.7969 7.84 77.9969 5.36 73.4369 5.36C70.1969 5.36 67.4369 7.24 67.4369 10.64C67.4369 14.4 71.5569 15.92 74.9569 17.32C79.3969 19.08 83.5569 20.84 83.5569 25.36C83.5569 30.36 78.9169 33.4 74.1969 33.4ZM95.7481 33.4C91.3481 33.4 86.2681 30.2 86.2681 23.6C86.2681 17.08 91.1881 12.72 96.7881 12.72C101.828 12.72 104.748 16 104.868 19.8H89.2281C89.1481 20.4 89.1081 21 89.1081 21.64C89.1081 27.12 92.5081 30.88 97.7081 30.88C100.788 30.88 102.988 29.48 104.828 27.4L105.188 27.76C103.148 30.56 100.028 33.4 95.7481 33.4ZM89.3481 19.28H101.668C101.268 16.6 99.1081 13.44 95.4681 13.44C92.0681 13.4 89.9881 15.92 89.3481 19.28ZM117.233 33.4C112.593 33.4 107.753 30.04 107.753 23.6C107.753 17.28 112.793 12.72 118.633 12.72C122.473 12.72 125.433 13.8 125.433 14.88C125.433 15.8 124.193 17.04 122.913 17.04C121.913 17.04 120.033 15.88 116.833 13.36C113.113 14 110.593 17.32 110.593 21.64C110.593 27.12 113.993 30.88 119.193 30.88C122.273 30.88 124.473 29.48 126.312 27.4L126.673 27.76C124.633 30.56 121.513 33.4 117.233 33.4ZM128.764 33V32.48C130.004 32.12 130.364 31.2 130.364 27.92V18.72C130.364 15.92 129.844 15.52 128.764 15.04V14.6L133.124 12.68L133.484 12.96V17.96C134.124 16.4 135.204 15.04 136.404 14.16C137.644 13.24 139.044 12.72 140.964 12.72C142.564 12.72 143.564 13.12 143.564 13.8C143.564 14.68 142.684 16.08 141.244 16.08C140.164 16.08 138.604 15.64 136.244 14.96C135.084 15.8 133.644 18.04 133.524 19.96H133.484V27.92C133.484 31.2 133.844 32.12 135.084 32.48V33H128.764ZM153.248 33.4C148.848 33.4 143.768 30.2 143.768 23.6C143.768 17.08 148.688 12.72 154.288 12.72C159.328 12.72 162.248 16 162.368 19.8H146.728C146.648 20.4 146.608 21 146.608 21.64C146.608 27.12 150.008 30.88 155.208 30.88C158.288 30.88 160.488 29.48 162.328 27.4L162.688 27.76C160.648 30.56 157.528 33.4 153.248 33.4ZM146.848 19.28H159.168C158.768 16.6 156.608 13.44 152.968 13.44C149.568 13.4 147.488 15.92 146.848 19.28ZM171.373 33.4C168.853 33.4 167.333 31.84 167.333 27.68V13.56H164.773V13L169.893 8.08H170.453V13H176.533L176.333 13.56H170.453V27.68C170.453 30.4 171.573 31.44 173.293 31.44C174.413 31.44 175.813 30.92 177.133 29.36L177.493 29.72C175.773 31.68 173.733 33.4 171.373 33.4ZM203.121 33.4C193.921 33.4 188.041 28.28 188.041 19.56C188.041 11.04 194.641 4.72 204.041 4.72C207.481 4.72 211.481 5.72 213.041 6.72L213.201 11.48L212.801 11.56C211.241 7.92 207.441 5.48 202.681 5.48C196.321 5.48 191.401 9.72 191.401 17.88C191.361 25.4 195.921 32.6 204.241 32.6C208.561 32.6 211.921 30.32 213.481 26L213.921 26.04L213.281 31.24C211.401 32.28 207.601 33.4 203.121 33.4ZM217.129 33V32.48C218.329 32.12 218.729 31.2 218.729 27.92V6.72C218.729 3.92 218.209 3.52 217.129 3.04V2.6L221.489 0.679999L221.849 0.959998V27.92C221.849 31.2 222.209 32.12 223.449 32.48V33H217.129ZM237.022 33.4C231.942 33.4 226.542 30.24 226.542 23.28C226.542 17.04 231.542 12.72 237.022 12.72C241.982 12.72 247.462 15.76 247.462 22.88C247.462 29.72 241.742 33.4 237.022 33.4ZM238.222 32.56C242.502 32.56 244.422 29.12 244.422 25.24C244.422 20.08 240.782 13.2 235.542 13.48C231.462 13.64 229.622 17 229.622 21C229.622 26.08 232.902 32.56 238.222 32.56ZM258.204 33.36C255.004 33.36 252.244 32.4 250.924 31.52L250.564 26.68L250.924 26.6C252.604 30.4 255.444 32.68 259.084 32.72C261.564 32.72 263.404 31.24 263.404 29C263.404 26.12 260.604 25.2 257.524 24.2C253.724 23 251.004 21.96 251.004 18.32C251.004 15.16 253.644 12.72 258.284 12.72C260.884 12.72 263.244 13.28 264.484 13.8L264.644 17.88L264.244 17.96C262.964 15.08 260.404 13.24 257.564 13.24C254.844 13.24 253.084 14.56 253.084 16.6C253.084 19.12 255.644 20.16 258.804 21.2C261.844 22.2 265.524 23.12 265.524 27.12C265.524 30.48 263.004 33.32 258.204 33.36ZM277.897 33.4C273.497 33.4 268.417 30.2 268.417 23.6C268.417 17.08 273.337 12.72 278.937 12.72C283.977 12.72 286.897 16 287.017 19.8H271.377C271.297 20.4 271.257 21 271.257 21.64C271.257 27.12 274.657 30.88 279.857 30.88C282.937 30.88 285.137 29.48 286.977 27.4L287.337 27.76C285.297 30.56 282.177 33.4 277.897 33.4ZM271.497 19.28H283.817C283.417 16.6 281.257 13.44 277.617 13.44C274.217 13.4 272.137 15.92 271.497 19.28ZM296.021 33.4C293.501 33.4 291.981 31.84 291.981 27.68V13.56H289.421V13L294.541 8.08H295.101V13H301.181L300.981 13.56H295.101V27.68C295.101 30.4 296.221 31.44 297.941 31.44C299.061 31.44 300.461 30.92 301.781 29.36L302.141 29.72C300.421 31.68 298.381 33.4 296.021 33.4ZM304.411 38.08C306.491 37.04 307.411 35.08 307.531 33.04C307.211 33.16 306.931 33.24 306.571 33.24C305.491 33.24 304.611 32.36 304.611 31.28C304.611 29.96 305.491 29 306.771 29C308.331 29 309.331 30.12 309.291 32.08C309.291 35 306.931 37.6 304.571 38.44L304.411 38.08ZM17.76 85C16.96 85 16.56 84.56 16.56 83.8V76.6C15.32 81.52 11.96 85.4 8 85.4C5.04 85.4 2.4 83.6 2.4 80.16C2.4 76 6.6 74.44 11.36 73.12L16.56 71.72C16.36 67.84 14.36 66.04 10.96 66.04C8.56 66.04 6.24 67.16 4.24 69.6L3.88 69.28C6.16 66.44 9.08 64.72 12.56 64.72C17.4 64.72 19.64 67.4 19.64 71.92V79.92C19.64 83.2 20 84.12 21.24 84.48V85H17.76ZM5.4 79.04C5.4 81.64 7.2 83.04 9.48 83.04C13.76 83.04 16.52 77.64 16.56 73.44V72.32V72.24L11.52 73.6C8.56 74.44 5.36 75.76 5.4 79.04ZM38.5694 85V84.48C39.8094 84.12 40.1694 83.2 40.1694 79.92V57.64H38.2094C34.6094 57.64 33.0494 58.6 31.6894 61.48L31.2494 61.4L31.4894 57H52.0894L52.3294 61.4L51.8894 61.48C50.5294 58.6 48.9694 57.64 45.3694 57.64H43.4894V79.92C43.4894 83.2 43.8494 84.12 45.0894 84.48V85H38.5694ZM65.3381 85C64.5381 85 64.1381 84.56 64.1381 83.8V76.6C62.8981 81.52 59.5381 85.4 55.5781 85.4C52.6181 85.4 49.9781 83.6 49.9781 80.16C49.9781 76 54.1781 74.44 58.9381 73.12L64.1381 71.72C63.9381 67.84 61.9381 66.04 58.5381 66.04C56.1381 66.04 53.8181 67.16 51.8181 69.6L51.4581 69.28C53.7381 66.44 56.6581 64.72 60.1381 64.72C64.9781 64.72 67.2181 67.4 67.2181 71.92V79.92C67.2181 83.2 67.5781 84.12 68.8181 84.48V85H65.3381ZM52.9781 79.04C52.9781 81.64 54.7781 83.04 57.0581 83.04C61.3381 83.04 64.0981 77.64 64.1381 73.44V72.32V72.24L59.0981 73.6C56.1381 74.44 52.9381 75.76 52.9781 79.04ZM81.9091 85.36C79.7091 85.36 77.6291 84.6 76.1091 83.6V90.72C76.1091 94 76.4691 94.92 77.7091 95.28V95.8H71.3891V95.28C72.5891 94.92 72.9891 94 72.9891 90.72V70.72C72.9891 67.92 72.4691 67.52 71.3891 67.04V66.6L75.7491 64.68L76.1091 64.96V67.88C78.2691 66.28 81.0291 64.72 84.1091 64.72C88.7491 64.72 92.2291 68.56 92.2291 74.48C92.2291 80.08 88.5491 85.32 81.9091 85.36ZM76.1091 78.4C76.1091 81.12 79.5891 84.6 83.1891 84.6C87.3891 84.6 89.3491 81.44 89.3491 76.8C89.3491 72.36 87.5891 66.08 81.9891 66.08C79.6691 66.08 77.7891 67.24 76.1091 68.52V78.4ZM104.459 85.4C100.059 85.4 94.9791 82.2 94.9791 75.6C94.9791 69.08 99.8991 64.72 105.499 64.72C110.539 64.72 113.459 68 113.579 71.8H97.9391C97.8591 72.4 97.8191 73 97.8191 73.64C97.8191 79.12 101.219 82.88 106.419 82.88C109.499 82.88 111.699 81.48 113.539 79.4L113.899 79.76C111.859 82.56 108.739 85.4 104.459 85.4ZM98.0591 71.28H110.379C109.979 68.6 107.819 65.44 104.179 65.44C100.779 65.4 98.6991 67.92 98.0591 71.28ZM124.063 85.36C120.863 85.36 118.103 84.4 116.783 83.52L116.423 78.68L116.783 78.6C118.463 82.4 121.303 84.68 124.943 84.72C127.423 84.72 129.263 83.24 129.263 81C129.263 78.12 126.463 77.2 123.383 76.2C119.583 75 116.863 73.96 116.863 70.32C116.863 67.16 119.503 64.72 124.143 64.72C126.743 64.72 129.103 65.28 130.343 65.8L130.503 69.88L130.103 69.96C128.823 67.08 126.263 65.24 123.423 65.24C120.703 65.24 118.943 66.56 118.943 68.6C118.943 71.12 121.503 72.16 124.663 73.2C127.703 74.2 131.383 75.12 131.383 79.12C131.383 82.48 128.863 85.32 124.063 85.36ZM140.396 85.4C137.876 85.4 136.356 83.84 136.356 79.68V65.56H133.796V65L138.916 60.08H139.476V65H145.556L145.356 65.56H139.476V79.68C139.476 82.4 140.596 83.44 142.316 83.44C143.436 83.44 144.836 82.92 146.156 81.36L146.516 81.72C144.796 83.68 142.756 85.4 140.396 85.4ZM147.866 85V84.48C149.106 84.12 149.466 83.2 149.466 79.92V70.72C149.466 67.92 148.946 67.52 147.866 67.04V66.6L152.226 64.68L152.586 64.96V69.96C153.226 68.4 154.306 67.04 155.506 66.16C156.746 65.24 158.146 64.72 160.066 64.72C161.666 64.72 162.666 65.12 162.666 65.8C162.666 66.68 161.786 68.08 160.346 68.08C159.266 68.08 157.706 67.64 155.346 66.96C154.186 67.8 152.746 70.04 152.626 71.96H152.586V79.92C152.586 83.2 152.946 84.12 154.186 84.48V85H147.866ZM164.583 92.72C163.023 92.76 161.863 92.24 161.863 91.6C161.863 90.84 162.863 89.4 164.343 89.4C165.383 89.4 167.543 90 169.383 90.32C170.783 89.12 172.023 87.16 173.023 85.08L166.463 69.68C165.223 66.68 164.223 65.88 163.383 65.52V65H169.423V65.52C168.223 65.88 168.543 66.68 169.823 69.68L174.743 81.12L179.663 69.68C180.783 67.08 180.703 65.8 179.303 65.52V65H183.743V65.52C182.623 65.88 181.583 66.68 180.263 69.68L174.063 84C170.663 91.84 167.143 92.68 164.583 92.72ZM209.098 85.4C199.898 85.4 194.018 80.28 194.018 71.56C194.018 63.04 200.618 56.72 210.018 56.72C213.458 56.72 217.458 57.72 219.018 58.72L219.178 63.48L218.778 63.56C217.218 59.92 213.418 57.48 208.658 57.48C202.298 57.48 197.378 61.72 197.378 69.88C197.338 77.4 201.898 84.6 210.218 84.6C214.537 84.6 217.898 82.32 219.458 78L219.898 78.04L219.258 83.24C217.378 84.28 213.578 85.4 209.098 85.4ZM233.506 85.4C228.426 85.4 223.026 82.24 223.026 75.28C223.026 69.04 228.026 64.72 233.506 64.72C238.466 64.72 243.946 67.76 243.946 74.88C243.946 81.72 238.226 85.4 233.506 85.4ZM234.706 84.56C238.986 84.56 240.906 81.12 240.906 77.24C240.906 72.08 237.266 65.2 232.026 65.48C227.946 65.64 226.106 69 226.106 73C226.106 78.08 229.386 84.56 234.706 84.56ZM246.778 85V84.48C247.978 84.12 248.378 83.2 248.378 79.92V58.72C248.378 55.92 247.858 55.52 246.778 55.04V54.6L251.138 52.68L251.498 52.96V79.92C251.498 83.2 251.858 84.12 253.098 84.48V85H246.778ZM266.67 85.4C261.59 85.4 256.19 82.24 256.19 75.28C256.19 69.04 261.19 64.72 266.67 64.72C271.63 64.72 277.11 67.76 277.11 74.88C277.11 81.72 271.39 85.4 266.67 85.4ZM267.87 84.56C272.15 84.56 274.07 81.12 274.07 77.24C274.07 72.08 270.43 65.2 265.19 65.48C261.11 65.64 259.27 69 259.27 73C259.27 78.08 262.55 84.56 267.87 84.56ZM280.093 85V84.48C281.333 84.12 281.693 83.2 281.693 79.92V70.72C281.693 67.92 281.173 67.52 280.093 67.04V66.6L284.453 64.68L284.813 64.96V69.96C285.453 68.4 286.533 67.04 287.733 66.16C288.973 65.24 290.373 64.72 292.293 64.72C293.893 64.72 294.893 65.12 294.893 65.8C294.893 66.68 294.013 68.08 292.573 68.08C291.493 68.08 289.933 67.64 287.573 66.96C286.413 67.8 284.973 70.04 284.853 71.96H284.813V79.92C284.813 83.2 285.173 84.12 286.413 84.48V85H280.093ZM304.576 85.4C300.176 85.4 295.096 82.2 295.096 75.6C295.096 69.08 300.016 64.72 305.616 64.72C310.656 64.72 313.576 68 313.696 71.8H298.056C297.976 72.4 297.936 73 297.936 73.64C297.936 79.12 301.336 82.88 306.536 82.88C309.616 82.88 311.816 81.48 313.656 79.4L314.016 79.76C311.976 82.56 308.856 85.4 304.576 85.4ZM298.176 71.28H310.496C310.096 68.6 307.936 65.44 304.296 65.44C300.896 65.4 298.816 67.92 298.176 71.28ZM325.421 85.44C320.461 85.4 316.581 81.12 316.581 75.48C316.581 69.92 320.381 64.8 327.261 64.76C329.461 64.76 331.301 65.44 332.701 66.32V58.72C332.701 55.92 332.181 55.52 331.101 55.04V54.6L335.501 52.68L335.821 52.96V79.92C335.821 83.2 336.181 84.12 337.421 84.48V85H333.901C333.141 85 332.701 84.56 332.701 83.8V81.52C330.741 83.56 328.261 85.48 325.421 85.44ZM319.581 73.08C319.581 77.76 321.781 83.48 327.221 83.48C329.301 83.48 331.141 82.4 332.701 80.8V71C332.341 68.4 329.381 65.52 326.021 65.52C321.781 65.52 319.581 68.84 319.581 73.08ZM3.08 121.88C2.16 118.76 1.64 117.88 0.8 117.52V117H6.56V117.52C5.32 117.88 5.44 118.76 6.36 121.88L9.76 133.76L15.52 117H17.04L22.84 133.72L26.28 121.88C27.08 119.2 26.76 117.8 25.36 117.52V117H29.44V117.52C28.32 117.88 27.8 118.76 26.88 121.88L22.48 137H20.68L14.96 120.4L9.24 137H7.48L3.08 121.88ZM30.5222 137V136.48C31.7622 136.12 32.1222 135.2 32.1222 131.92V122.72C32.1222 119.92 31.6422 119.52 30.5222 119.04V118.6L34.9222 116.68L35.2422 116.96V131.92C35.2422 135.2 35.6422 136.12 36.8422 136.48V137H30.5222ZM33.4422 114.24C32.2022 114.24 31.2422 113.24 31.2422 112.04C31.2422 110.76 32.2022 109.8 33.4422 109.8C34.7222 109.8 35.6422 110.76 35.6422 112.04C35.6422 113.24 34.6822 114.24 33.4422 114.24ZM45.7866 137.4C43.2666 137.4 41.7466 135.84 41.7466 131.68V117.56H39.1866V117L44.3066 112.08H44.8666V117H50.9466L50.7466 117.56H44.8666V131.68C44.8666 134.4 45.9866 135.44 47.7066 135.44C48.8266 135.44 50.2266 134.92 51.5466 133.36L51.9066 133.72C50.1866 135.68 48.1466 137.4 45.7866 137.4ZM53.0566 137V136.48C54.2966 136.12 54.6566 135.2 54.6566 131.92V110.72C54.6566 107.92 54.1366 107.52 53.0566 107.04V106.6L57.4166 104.68L57.7766 104.96V120.4C60.0966 118.52 63.1766 116.72 66.2566 116.72C70.1766 116.72 72.5766 119 72.5766 123.68V131.92C72.5766 135.2 72.9366 136.12 74.1766 136.48V137H67.8566V136.48C69.0966 136.12 69.4566 135.2 69.4566 131.92V124.48C69.4566 120.32 67.6966 118.04 64.1766 118.04C61.9766 118.04 59.8166 119.36 57.7766 121.04V131.92C57.7766 135.2 58.1366 136.12 59.3766 136.48V137H53.0566ZM85.5391 137V136.48C86.7791 136.12 87.1391 135.2 87.1391 131.92V115.68C87.1391 111.12 86.2991 110 84.6991 109.52V109H89.5391L99.9791 126.24L110.219 109H114.739V109.52C113.139 110 112.299 111.12 112.299 115.68V131.92C112.299 135.2 112.659 136.12 113.899 136.48V137H107.419V136.48C108.619 136.12 109.019 135.2 109.019 131.92V112.24L98.8591 129.4H98.0991L87.8591 112.56V130.32C87.8591 134.88 88.8191 136 90.5791 136.48V137H85.5391ZM127.584 137.4C123.184 137.4 118.104 134.2 118.104 127.6C118.104 121.08 123.024 116.72 128.624 116.72C133.664 116.72 136.584 120 136.704 123.8H121.064C120.984 124.4 120.944 125 120.944 125.64C120.944 131.12 124.344 134.88 129.544 134.88C132.624 134.88 134.824 133.48 136.664 131.4L137.024 131.76C134.984 134.56 131.864 137.4 127.584 137.4ZM121.184 123.28H133.504C133.104 120.6 130.944 117.44 127.304 117.44C123.904 117.4 121.824 119.92 121.184 123.28ZM139.428 137V136.48C140.668 136.12 141.028 135.2 141.028 131.92V122.72C141.028 119.92 140.508 119.52 139.428 119.04V118.6L143.788 116.68L144.148 116.96V120.36C146.548 118.44 149.548 116.72 152.428 116.72C155.388 116.72 157.268 117.92 157.988 120.48C160.388 118.56 163.468 116.72 166.468 116.72C170.348 116.72 172.348 118.84 172.348 123.36V131.92C172.348 135.2 172.748 136.12 173.948 136.48V137H167.628V136.48C168.868 136.12 169.228 135.2 169.228 131.92V124.08C169.228 120.12 167.788 118.04 164.668 118.04C162.388 118.04 160.308 119.28 158.108 121C158.268 121.68 158.348 122.48 158.348 123.36V131.92C158.348 135.2 158.708 136.12 159.948 136.48V137H153.628V136.48C154.828 136.12 155.228 135.2 155.228 131.92V124.08C155.228 120.12 153.748 118.04 150.668 118.04C148.388 118.04 146.308 119.28 144.148 120.92V131.92C144.148 135.2 144.508 136.12 145.748 136.48V137H139.428ZM186.709 137.4C181.629 137.4 176.229 134.24 176.229 127.28C176.229 121.04 181.229 116.72 186.709 116.72C191.669 116.72 197.149 119.76 197.149 126.88C197.149 133.72 191.429 137.4 186.709 137.4ZM187.909 136.56C192.189 136.56 194.109 133.12 194.109 129.24C194.109 124.08 190.469 117.2 185.229 117.48C181.149 117.64 179.309 121 179.309 125C179.309 130.08 182.589 136.56 187.909 136.56ZM200.132 137V136.48C201.372 136.12 201.732 135.2 201.732 131.92V122.72C201.732 119.92 201.212 119.52 200.132 119.04V118.6L204.492 116.68L204.852 116.96V121.96C205.492 120.4 206.572 119.04 207.772 118.16C209.012 117.24 210.412 116.72 212.332 116.72C213.932 116.72 214.932 117.12 214.932 117.8C214.932 118.68 214.052 120.08 212.612 120.08C211.532 120.08 209.972 119.64 207.612 118.96C206.452 119.8 205.012 122.04 204.892 123.96H204.852V131.92C204.852 135.2 205.212 136.12 206.452 136.48V137H200.132ZM216.928 137V136.48C218.168 136.12 218.528 135.2 218.528 131.92V122.72C218.528 119.92 218.048 119.52 216.928 119.04V118.6L221.328 116.68L221.648 116.96V131.92C221.648 135.2 222.048 136.12 223.248 136.48V137H216.928ZM219.848 114.24C218.608 114.24 217.648 113.24 217.648 112.04C217.648 110.76 218.608 109.8 219.848 109.8C221.128 109.8 222.048 110.76 222.048 112.04C222.048 113.24 221.088 114.24 219.848 114.24ZM235.553 137.4C231.153 137.4 226.073 134.2 226.073 127.6C226.073 121.08 230.993 116.72 236.593 116.72C241.633 116.72 244.553 120 244.673 123.8H229.033C228.953 124.4 228.913 125 228.913 125.64C228.913 131.12 232.313 134.88 237.513 134.88C240.593 134.88 242.793 133.48 244.633 131.4L244.993 131.76C242.953 134.56 239.833 137.4 235.553 137.4ZM229.153 123.28H241.473C241.073 120.6 238.913 117.44 235.273 117.44C231.873 117.4 229.793 119.92 229.153 123.28ZM255.157 137.36C251.957 137.36 249.197 136.4 247.877 135.52L247.517 130.68L247.877 130.6C249.557 134.4 252.397 136.68 256.037 136.72C258.517 136.72 260.357 135.24 260.357 133C260.357 130.12 257.557 129.2 254.477 128.2C250.677 127 247.957 125.96 247.957 122.32C247.957 119.16 250.597 116.72 255.237 116.72C257.837 116.72 260.197 117.28 261.437 117.8L261.597 121.88L261.197 121.96C259.917 119.08 257.357 117.24 254.517 117.24C251.797 117.24 250.037 118.56 250.037 120.6C250.037 123.12 252.597 124.16 255.757 125.2C258.797 126.2 262.477 127.12 262.477 131.12C262.477 134.48 259.957 137.32 255.157 137.36ZM268.41 137.28C267.29 137.28 266.33 136.28 266.33 135.12C266.33 133.96 267.29 133 268.41 133C269.53 133 270.45 133.96 270.45 135.12C270.45 136.28 269.53 137.28 268.41 137.28Z" fill="#96927F"/>
</svg>
