<svg width="688" height="310" viewBox="0 0 688 310" fill="none" xmlns="http://www.w3.org/2000/svg">
<path d="M16.609 24.5H3.97V2.588H6.082V22.652H16.609V24.5ZM26.5505 24.896C21.8315 24.896 18.9275 21.596 18.9275 16.184C18.9275 10.673 21.8315 7.406 26.5505 7.406C31.2695 7.406 34.1735 10.673 34.1735 16.184C34.1735 21.596 31.2695 24.896 26.5505 24.896ZM26.5505 23.18C30.2135 23.18 32.0945 20.606 32.0945 16.184C32.0945 11.696 30.2135 9.089 26.5505 9.089C22.8875 9.089 21.0065 11.696 21.0065 16.184C21.0065 20.606 22.8875 23.18 26.5505 23.18ZM52.7298 24.5H50.6838V13.082C50.6838 10.772 49.1658 9.155 46.4268 9.155C43.2918 9.155 41.1798 11.399 41.1798 14.633V24.5H39.1338V7.769H40.9818V11.168C42.2688 8.429 44.3808 7.406 46.8888 7.406C49.8918 7.406 52.7298 9.023 52.7298 12.752V24.5ZM70.0749 24.665V23.708L70.2399 20.507C68.8539 23.279 66.8079 24.302 64.3329 24.302C60.6039 24.302 57.5349 21.695 57.5349 16.184C57.5349 9.98 60.6369 7.406 64.3329 7.406C66.8079 7.406 68.8539 8.462 70.2069 11.135V7.769H72.0549V24.632C72.0549 27.47 70.9989 31.562 64.9599 31.562C62.6499 31.562 58.4919 30.473 58.2279 26.15L60.1419 25.952C60.3069 28.691 62.4849 29.912 65.0259 29.912C69.3159 29.912 70.0749 27.305 70.0749 24.665ZM64.6299 22.586C67.9629 22.586 70.0419 20.639 70.0419 16.151C70.0419 11.036 67.9629 9.089 64.6299 9.089C61.7919 9.089 59.6139 11.168 59.6139 16.151C59.6139 20.474 61.7919 22.586 64.6299 22.586ZM80.3995 24.5H78.3535V7.769H80.3995V24.5ZM80.4985 4.106H78.2545V1.499H80.4985V4.106ZM100.328 24.5H98.2825V13.082C98.2825 10.772 96.7645 9.155 94.0255 9.155C90.8905 9.155 88.7785 11.399 88.7785 14.633V24.5H86.7325V7.769H88.5805V11.168C89.8675 8.429 91.9795 7.406 94.4875 7.406C97.4905 7.406 100.328 9.023 100.328 12.752V24.5ZM117.674 24.665V23.708L117.839 20.507C116.453 23.279 114.407 24.302 111.932 24.302C108.203 24.302 105.134 21.695 105.134 16.184C105.134 9.98 108.236 7.406 111.932 7.406C114.407 7.406 116.453 8.462 117.806 11.135V7.769H119.654V24.632C119.654 27.47 118.598 31.562 112.559 31.562C110.249 31.562 106.091 30.473 105.827 26.15L107.741 25.952C107.906 28.691 110.084 29.912 112.625 29.912C116.915 29.912 117.674 27.305 117.674 24.665ZM112.229 22.586C115.562 22.586 117.641 20.639 117.641 16.151C117.641 11.036 115.562 9.089 112.229 9.089C109.391 9.089 107.213 11.168 107.213 16.151C107.213 20.474 109.391 22.586 112.229 22.586Z" fill="#96927F"/>
<path d="M354.511 24.5H352.465V9.386H349.792V7.769H352.465V5.756C352.465 2.72 352.828 0.343998 357.118 0.343998C357.58 0.343998 358.306 0.377 358.867 0.475999V1.961H357.283C354.907 1.961 354.511 3.149 354.511 5.591V7.769H358.801V9.386H354.511V24.5ZM368.234 24.896C363.515 24.896 360.611 21.596 360.611 16.184C360.611 10.673 363.515 7.406 368.234 7.406C372.953 7.406 375.857 10.673 375.857 16.184C375.857 21.596 372.953 24.896 368.234 24.896ZM368.234 23.18C371.897 23.18 373.778 20.606 373.778 16.184C373.778 11.696 371.897 9.089 368.234 9.089C364.571 9.089 362.69 11.696 362.69 16.184C362.69 20.606 364.571 23.18 368.234 23.18ZM382.863 24.5H380.817V7.769H382.665V11.465C383.655 8.462 385.47 7.406 387.054 7.406C387.417 7.406 387.978 7.439 388.605 7.637V9.386H387.021C384.678 9.386 382.863 11.465 382.863 15.062V24.5Z" fill="#96927F"/>
<path d="M621.082 24.5H618.97V2.588H626.131C630.751 2.588 633.655 4.799 633.655 9.089C633.655 13.214 630.652 15.788 626.164 15.788H621.082V24.5ZM621.082 14.006H626.098C629.266 14.006 631.444 12.389 631.444 9.089C631.444 5.921 629.464 4.436 625.999 4.436H621.082V14.006ZM651.374 23.18V24.566C650.648 24.797 649.889 24.896 649.427 24.896C647.546 24.896 646.82 24.038 646.82 21.464C645.368 24.137 643.025 24.896 641.012 24.896C638.735 24.896 635.633 23.906 635.633 20.243C635.633 16.118 638.933 15.227 642.629 15.062L646.721 14.897V12.785C646.721 10.607 645.962 9.056 642.464 9.056C640.583 9.056 638.372 9.65 638.108 12.191L636.194 11.993C636.491 8.495 640.022 7.406 642.464 7.406C646.886 7.406 648.767 9.452 648.767 12.356V20.87C648.767 22.619 648.899 23.18 650.087 23.18H651.374ZM646.721 17.504V16.316L642.563 16.481C639.824 16.58 637.679 17.405 637.679 20.177C637.679 22.916 640.253 23.213 641.639 23.213C644.18 23.213 646.721 21.299 646.721 17.504ZM657.243 24.5H655.197V7.769H657.045V11.465C658.035 8.462 659.85 7.406 661.434 7.406C661.797 7.406 662.358 7.439 662.985 7.637V9.386H661.401C659.058 9.386 657.243 11.465 657.243 15.062V24.5ZM668.619 24.5H666.573V7.769H668.619V24.5ZM668.718 4.106H666.474V1.499H668.718V4.106ZM685.908 12.026L684.027 12.191C683.763 9.386 681.684 8.924 679.836 8.924C677.823 8.924 675.909 9.551 675.909 11.63C675.909 16.58 686.106 13.511 686.106 20.177C686.106 23.015 683.73 24.896 679.704 24.896C677.823 24.896 673.731 24.368 673.335 20.111H675.282C675.579 22.52 677.625 23.246 679.737 23.246C682.245 23.246 684.126 22.487 684.126 20.276C684.126 15.227 673.929 18.23 673.929 11.795C673.929 8.726 676.965 7.406 679.803 7.406C681.915 7.406 685.578 7.967 685.908 12.026Z" fill="#96927F"/>
<path d="M4.834 111.072C3.214 106.968 1.918 105.888 0.784 105.402V104.7H9.208V105.402C7.588 105.888 7.966 106.968 9.586 111.072L20.008 137.802L30.268 111.126C31.618 107.562 31.402 105.78 29.566 105.402V104.7H35.614V105.402C34.156 105.888 32.806 106.968 31.24 111.072L18.982 142.77H17.47L4.834 111.072ZM37.0581 142.5V141.798C38.7321 141.312 39.2181 140.07 39.2181 135.642V123.222C39.2181 119.442 38.5701 118.902 37.0581 118.254V117.66L42.9981 115.068L43.4301 115.446V135.642C43.4301 140.07 43.9701 141.312 45.5901 141.798V142.5H37.0581ZM41.0001 111.774C39.3261 111.774 38.0301 110.424 38.0301 108.804C38.0301 107.076 39.3261 105.78 41.0001 105.78C42.7281 105.78 43.9701 107.076 43.9701 108.804C43.9701 110.424 42.6741 111.774 41.0001 111.774ZM49.187 142.5V141.798C50.861 141.312 51.347 140.07 51.347 135.642V123.222C51.347 119.442 50.699 118.902 49.187 118.254V117.66L55.127 115.068L55.559 115.446V120.09C58.691 117.552 62.849 115.122 67.007 115.122C72.299 115.122 75.539 118.2 75.539 124.518V135.642C75.539 140.07 76.025 141.312 77.699 141.798V142.5H69.167V141.798C70.841 141.312 71.327 140.07 71.327 135.642V125.598C71.327 119.982 68.951 116.904 64.199 116.904C61.229 116.904 58.313 118.686 55.559 120.954V135.642C55.559 140.07 56.099 141.312 57.719 141.798V142.5H49.187ZM89.2001 143.04C85.7981 143.04 83.7461 140.934 83.7461 135.318V116.256H80.2901V115.5L87.2021 108.858H87.9581V115.5H96.1661L95.8961 116.256H87.9581V135.318C87.9581 138.99 89.4701 140.394 91.7921 140.394C93.3041 140.394 95.1941 139.692 96.9761 137.586L97.4621 138.072C95.1401 140.718 92.3861 143.04 89.2001 143.04ZM120.183 142.5C119.103 142.5 118.563 141.906 118.563 140.88V131.16C116.889 137.802 112.353 143.04 107.007 143.04C103.011 143.04 99.4466 140.61 99.4466 135.966C99.4466 130.35 105.117 128.244 111.543 126.462L118.563 124.572C118.293 119.334 115.593 116.904 111.003 116.904C107.763 116.904 104.631 118.416 101.931 121.71L101.445 121.278C104.523 117.444 108.465 115.122 113.163 115.122C119.697 115.122 122.721 118.74 122.721 124.842V135.642C122.721 140.07 123.207 141.312 124.881 141.798V142.5H120.183ZM103.497 134.454C103.497 137.964 105.927 139.854 109.005 139.854C114.783 139.854 118.509 132.564 118.563 126.894V125.382V125.274L111.759 127.11C107.763 128.244 103.443 130.026 103.497 134.454ZM134.749 157.458C130.645 157.458 125.947 155.676 125.947 150.816C125.947 147.414 128.701 144.66 133.075 142.014C130.645 141.42 129.133 140.286 129.133 137.964C129.133 135.966 130.915 134.616 133.075 133.212C130.375 131.808 128.323 129.324 128.323 125.328C128.323 119.658 133.453 115.122 139.015 115.122C140.311 115.122 141.715 115.284 142.957 115.662C143.497 114.96 144.145 114.258 144.847 113.718C146.467 112.26 148.411 111.288 151.003 111.288C152.677 111.288 153.811 111.774 153.811 112.584C153.811 113.502 152.677 115.338 150.733 115.338C149.383 115.338 147.817 114.852 145.387 114.096C144.793 114.528 144.199 115.176 143.659 115.932C146.953 117.12 149.653 119.766 149.653 124.41C149.653 130.62 143.443 134.562 139.015 134.562C137.341 134.562 135.451 134.238 133.777 133.536C132.589 134.346 131.833 134.886 131.833 135.912C131.887 137.37 133.669 138.234 137.773 138.45L144.577 138.882C150.031 139.206 153.217 139.962 153.217 144.174C153.217 150.33 143.659 157.458 134.749 157.458ZM140.041 133.698C144.037 133.698 145.765 130.512 145.765 126.84C145.765 121.98 142.633 115.662 137.719 115.932C133.885 116.094 132.265 119.172 132.265 122.952C132.265 127.65 135.073 133.698 140.041 133.698ZM129.565 148.818C129.565 152.706 132.805 155.028 137.827 155.028C144.739 155.028 151.111 150.708 151.111 146.442C151.111 143.904 149.005 143.148 144.523 142.878L136.963 142.5C135.883 142.446 134.857 142.338 133.885 142.176C130.753 144.282 129.565 146.496 129.565 148.818ZM167.09 143.04C161.15 143.04 154.292 138.72 154.292 129.81C154.292 121.008 160.934 115.122 168.494 115.122C175.298 115.122 179.24 119.55 179.402 124.68H158.288C158.18 125.49 158.126 126.3 158.126 127.164C158.126 134.562 162.716 139.638 169.736 139.638C173.894 139.638 176.864 137.748 179.348 134.94L179.834 135.426C177.08 139.206 172.868 143.04 167.09 143.04ZM158.45 123.978H175.082C174.542 120.36 171.626 116.094 166.712 116.094C162.122 116.04 159.314 119.442 158.45 123.978ZM184.16 129.378V128.622H198.254V129.378H184.16ZM228.938 142.5H203.828V141.798C205.448 141.312 205.988 140.07 205.988 135.642V111.558C205.988 107.13 205.448 105.888 203.828 105.402V104.7H212.576V105.402C210.902 105.888 210.416 107.13 210.416 111.558V139.206C210.416 140.772 211.28 141.636 212.846 141.636H219.272C224.456 141.636 226.832 140.34 228.722 136.29L229.316 136.398L228.938 142.5ZM244.588 143.04C237.73 143.04 230.44 138.774 230.44 129.378C230.44 120.954 237.19 115.122 244.588 115.122C251.284 115.122 258.682 119.226 258.682 128.838C258.682 138.072 250.96 143.04 244.588 143.04ZM246.208 141.906C251.986 141.906 254.578 137.262 254.578 132.024C254.578 125.058 249.664 115.77 242.59 116.148C237.082 116.364 234.598 120.9 234.598 126.3C234.598 133.158 239.026 141.906 246.208 141.906ZM263.172 121.818C261.498 117.768 260.526 116.688 259.392 116.202V115.5H267.168V116.202C265.548 116.688 265.98 117.768 267.708 121.818L274.782 138.558L281.154 121.926C282.504 118.362 282.288 116.58 280.398 116.202V115.5H285.96V116.202C284.448 116.688 283.584 117.768 282.018 121.926L274.08 142.5H271.812L263.172 121.818ZM298.767 143.04C292.827 143.04 285.969 138.72 285.969 129.81C285.969 121.008 292.611 115.122 300.171 115.122C306.975 115.122 310.917 119.55 311.079 124.68H289.965C289.857 125.49 289.803 126.3 289.803 127.164C289.803 134.562 294.393 139.638 301.413 139.638C305.571 139.638 308.541 137.748 311.025 134.94L311.511 135.426C308.757 139.206 304.545 143.04 298.767 143.04ZM290.127 123.978H306.759C306.219 120.36 303.303 116.094 298.389 116.094C293.799 116.04 290.991 119.442 290.127 123.978ZM314.757 142.5V141.798C316.431 141.312 316.917 140.07 316.917 135.642V123.222C316.917 119.442 316.215 118.902 314.757 118.254V117.66L320.643 115.068L321.129 115.446V122.196C321.993 120.09 323.451 118.254 325.071 117.066C326.745 115.824 328.635 115.122 331.227 115.122C333.387 115.122 334.737 115.662 334.737 116.58C334.737 117.768 333.549 119.658 331.605 119.658C330.147 119.658 328.041 119.064 324.855 118.146C323.289 119.28 321.345 122.304 321.183 124.896H321.129V135.642C321.129 140.07 321.615 141.312 323.289 141.798V142.5H314.757ZM387.822 142.5V141.744C389.604 141.15 389.982 139.53 389.982 135.642V114.798C389.982 108.21 388.794 106.32 386.31 105.456V104.7H394.41L407.748 126.84L420.438 104.7H428.106V105.456C425.622 106.32 424.434 108.21 424.434 114.798V135.642C424.434 139.53 424.812 141.15 426.594 141.744V142.5H416.55V141.744C418.332 141.15 418.71 139.53 418.71 135.642V109.506L405.75 132.24H404.508L390.954 109.992V132.402C390.954 138.99 392.25 140.88 395.058 141.744V142.5H387.822ZM432.154 142.5V141.744C433.936 141.15 434.314 139.53 434.314 135.642V123.222C434.314 120.036 433.504 119.496 432.154 118.902V118.146L439.282 115.014L439.822 115.446V135.642C439.822 139.53 440.2 141.15 441.982 141.744V142.5H432.154ZM436.744 113.178C434.692 113.178 433.072 111.558 433.072 109.506C433.072 107.4 434.692 105.78 436.744 105.78C438.904 105.78 440.416 107.4 440.416 109.506C440.416 111.558 438.796 113.178 436.744 113.178ZM459.706 143.04C452.686 143.04 445.288 138.882 445.288 129.702C445.288 120.954 452.308 115.122 459.706 115.122C466.402 115.122 474.07 119.064 474.07 128.568C474.07 137.802 466.078 143.04 459.706 143.04ZM461.596 141.852C466.888 141.852 468.616 137.262 468.616 132.672C468.616 125.814 463.918 115.5 456.952 116.202C452.254 116.688 450.688 121.008 450.688 125.652C450.688 132.024 454.468 141.852 461.596 141.852ZM528.169 142.5V141.744C529.951 141.15 530.329 139.53 530.329 135.642V111.558C530.329 107.67 529.951 106.05 528.169 105.456V104.7H538.213V105.456C536.431 106.05 536.053 107.67 536.053 111.558V135.642C536.053 139.53 536.431 141.15 538.213 141.744V142.5H528.169ZM542.278 142.5V141.744C544.06 141.15 544.438 139.53 544.438 135.642V123.222C544.438 120.036 543.628 119.496 542.278 118.902V118.146L549.406 115.014L549.946 115.446V119.982C552.916 117.552 556.804 115.122 561.016 115.122C564.796 115.122 567.28 116.58 568.306 120.036C571.276 117.606 575.218 115.122 579.484 115.122C584.452 115.122 587.26 117.714 587.26 124.032V135.642C587.26 139.53 587.638 141.15 589.42 141.744V142.5H579.592V141.744C581.374 141.15 581.752 139.53 581.752 135.642V125.004C581.752 120.144 580.186 117.282 576.19 117.282C573.652 117.282 571.33 118.524 568.468 120.792C568.684 121.764 568.792 122.844 568.792 124.032V135.642C568.792 139.53 569.17 141.15 570.952 141.744V142.5H561.124V141.744C562.906 141.15 563.284 139.53 563.284 135.642V125.004C563.284 120.144 561.718 117.282 557.722 117.282C555.184 117.282 552.862 118.524 549.946 120.9V135.642C549.946 139.53 550.324 141.15 552.106 141.744V142.5H542.278ZM612.37 142.5C610.966 142.5 610.21 141.744 610.21 140.34V131.43C608.698 137.694 604.81 143.04 599.194 143.04C595.198 143.04 591.85 140.502 591.85 135.966C591.85 130.404 597.52 128.244 604.216 126.354L610.21 124.626C610.102 119.28 607.186 117.228 603.19 117.228C600.166 117.228 597.196 118.524 594.442 121.818L593.902 121.332C596.926 117.606 601.084 115.122 605.998 115.122C612.532 115.122 615.61 118.632 615.61 125.22V135.642C615.61 139.53 615.988 141.15 617.77 141.744V142.5H612.37ZM596.872 134.076C596.872 137.64 599.41 139.098 601.894 139.098C607.186 139.098 610.156 131.646 610.21 126.786V125.382L604.432 127.056C601.894 127.758 596.872 129.594 596.872 134.076ZM632.041 143.148C625.183 143.04 620.539 136.722 620.539 130.026C620.539 121.764 626.209 115.176 635.605 115.176C637.873 115.176 639.763 115.716 641.383 116.526V107.022C641.383 103.836 640.573 103.296 639.223 102.702V101.946L646.351 98.814L646.891 99.246V135.642C646.891 139.53 647.269 141.15 649.051 141.744V142.5H643.543C642.139 142.5 641.383 141.744 641.383 140.34V138.072C639.331 140.448 636.091 143.256 632.041 143.148ZM625.831 125.652C625.831 130.782 627.613 139.908 635.389 139.908C637.765 139.908 639.817 138.612 641.383 136.938V125.004C641.383 121.008 637.873 116.31 633.337 116.31C627.397 116.31 625.831 121.386 625.831 125.652ZM672.171 142.5C670.767 142.5 670.011 141.744 670.011 140.34V131.43C668.499 137.694 664.611 143.04 658.995 143.04C654.999 143.04 651.651 140.502 651.651 135.966C651.651 130.404 657.321 128.244 664.017 126.354L670.011 124.626C669.903 119.28 666.987 117.228 662.991 117.228C659.967 117.228 656.997 118.524 654.243 121.818L653.703 121.332C656.727 117.606 660.885 115.122 665.799 115.122C672.333 115.122 675.411 118.632 675.411 125.22V135.642C675.411 139.53 675.789 141.15 677.571 141.744V142.5H672.171ZM656.673 134.076C656.673 137.64 659.211 139.098 661.695 139.098C666.987 139.098 669.957 131.646 670.011 126.786V125.382L664.233 127.056C661.695 127.758 656.673 129.594 656.673 134.076ZM684.822 142.878C683.094 142.878 681.636 141.366 681.636 139.584C681.636 137.802 683.094 136.344 684.822 136.344C686.55 136.344 687.954 137.802 687.954 139.584C687.954 141.366 686.55 142.878 684.822 142.878ZM684.822 125.058C683.094 125.058 681.636 123.546 681.636 121.764C681.636 119.982 683.094 118.524 684.822 118.524C686.55 118.524 687.954 119.982 687.954 121.764C687.954 123.546 686.55 125.058 684.822 125.058ZM11.746 218.5V217.798C13.42 217.312 13.906 216.07 13.906 211.642V181.564H11.26C6.4 181.564 4.294 182.86 2.458 186.748L1.864 186.64L2.188 180.7H29.998L30.322 186.64L29.728 186.748C27.892 182.86 25.786 181.564 20.926 181.564H18.388V211.642C18.388 216.07 18.874 217.312 20.548 217.798V218.5H11.746ZM32.6748 218.5V217.798C34.3488 217.312 34.8348 216.07 34.8348 211.642V183.022C34.8348 179.242 34.1328 178.702 32.6748 178.054V177.46L38.5608 174.868L39.0468 175.246V196.09C42.1788 193.552 46.3368 191.122 50.4948 191.122C55.7868 191.122 59.0268 194.2 59.0268 200.518V211.642C59.0268 216.07 59.5128 217.312 61.1868 217.798V218.5H52.6548V217.798C54.3288 217.312 54.8148 216.07 54.8148 211.642V201.598C54.8148 195.982 52.4388 192.904 47.6868 192.904C44.7168 192.904 41.8008 194.686 39.0468 196.954V211.642C39.0468 216.07 39.5328 217.312 41.2068 217.798V218.5H32.6748ZM77.2303 219.04C71.2903 219.04 64.4323 214.72 64.4323 205.81C64.4323 197.008 71.0743 191.122 78.6343 191.122C85.4383 191.122 89.3803 195.55 89.5423 200.68H68.4283C68.3203 201.49 68.2663 202.3 68.2663 203.164C68.2663 210.562 72.8563 215.638 79.8763 215.638C84.0343 215.638 87.0043 213.748 89.4883 210.94L89.9743 211.426C87.2203 215.206 83.0083 219.04 77.2303 219.04ZM68.5903 199.978H85.2223C84.6823 196.36 81.7663 192.094 76.8523 192.094C72.2623 192.04 69.4543 195.442 68.5903 199.978ZM155.155 218.5H128.533V217.798C130.153 217.312 130.693 216.07 130.693 211.642V187.558C130.693 183.13 130.153 181.888 128.533 181.402V180.7H153.643L154.237 187.72L153.643 187.882C151.753 183.13 148.567 181.51 143.059 181.51H135.121V197.872H142.033C148.189 197.872 149.755 196.63 150.403 194.2H151.051V202.354H150.403C149.755 199.924 148.189 198.682 142.033 198.682H135.121V215.26C135.121 216.826 135.985 217.69 137.551 217.69H144.571C149.755 217.69 153.049 216.232 154.993 211.21L155.587 211.318L155.155 218.5ZM169.782 218.986C165.462 218.986 161.736 217.69 159.954 216.502L159.468 209.968L159.954 209.86C162.222 214.99 166.056 218.068 170.97 218.122C174.318 218.122 176.802 216.124 176.802 213.1C176.802 209.212 173.022 207.97 168.864 206.62C163.734 205 160.062 203.596 160.062 198.682C160.062 194.416 163.626 191.122 169.89 191.122C173.4 191.122 176.586 191.878 178.26 192.58L178.476 198.088L177.936 198.196C176.208 194.308 172.752 191.824 168.918 191.824C165.246 191.824 162.87 193.606 162.87 196.36C162.87 199.762 166.326 201.166 170.592 202.57C174.696 203.92 179.664 205.162 179.664 210.562C179.664 215.098 176.262 218.932 169.782 218.986ZM193.829 218.986C189.509 218.986 185.783 217.69 184.001 216.502L183.515 209.968L184.001 209.86C186.269 214.99 190.103 218.068 195.017 218.122C198.365 218.122 200.849 216.124 200.849 213.1C200.849 209.212 197.069 207.97 192.911 206.62C187.781 205 184.109 203.596 184.109 198.682C184.109 194.416 187.673 191.122 193.937 191.122C197.447 191.122 200.633 191.878 202.307 192.58L202.523 198.088L201.983 198.196C200.255 194.308 196.799 191.824 192.965 191.824C189.293 191.824 186.917 193.606 186.917 196.36C186.917 199.762 190.373 201.166 194.639 202.57C198.743 203.92 203.711 205.162 203.711 210.562C203.711 215.098 200.309 218.932 193.829 218.986ZM220.414 219.04C214.474 219.04 207.616 214.72 207.616 205.81C207.616 197.008 214.258 191.122 221.818 191.122C228.622 191.122 232.564 195.55 232.726 200.68H211.612C211.504 201.49 211.45 202.3 211.45 203.164C211.45 210.562 216.04 215.638 223.06 215.638C227.218 215.638 230.188 213.748 232.672 210.94L233.158 211.426C230.404 215.206 226.192 219.04 220.414 219.04ZM211.774 199.978H228.406C227.866 196.36 224.95 192.094 220.036 192.094C215.446 192.04 212.638 195.442 211.774 199.978ZM236.404 218.5V217.798C238.078 217.312 238.564 216.07 238.564 211.642V199.222C238.564 195.442 237.916 194.902 236.404 194.254V193.66L242.344 191.068L242.776 191.446V196.09C245.908 193.552 250.066 191.122 254.224 191.122C259.516 191.122 262.756 194.2 262.756 200.518V211.642C262.756 216.07 263.242 217.312 264.916 217.798V218.5H256.384V217.798C258.058 217.312 258.544 216.07 258.544 211.642V201.598C258.544 195.982 256.168 192.904 251.416 192.904C248.446 192.904 245.53 194.686 242.776 196.954V211.642C242.776 216.07 243.316 217.312 244.936 217.798V218.5H236.404ZM280.953 219.04C274.689 219.04 268.155 214.504 268.155 205.81C268.155 197.278 274.959 191.122 282.843 191.122C288.027 191.122 292.023 192.58 292.023 194.038C292.023 195.28 290.349 196.954 288.621 196.954C287.271 196.954 284.733 195.388 280.413 191.986C275.391 192.85 271.989 197.332 271.989 203.164C271.989 210.562 276.579 215.638 283.599 215.638C287.757 215.638 290.727 213.748 293.211 210.94L293.697 211.426C290.943 215.206 286.731 219.04 280.953 219.04ZM309.008 219.04C303.068 219.04 296.21 214.72 296.21 205.81C296.21 197.008 302.852 191.122 310.412 191.122C317.216 191.122 321.158 195.55 321.32 200.68H300.206C300.098 201.49 300.044 202.3 300.044 203.164C300.044 210.562 304.634 215.638 311.654 215.638C315.812 215.638 318.782 213.748 321.266 210.94L321.752 211.426C318.998 215.206 314.786 219.04 309.008 219.04ZM300.368 199.978H317C316.46 196.36 313.544 192.094 308.63 192.094C304.04 192.04 301.232 195.442 300.368 199.978ZM373.649 219.04C366.791 219.04 359.501 214.774 359.501 205.378C359.501 196.954 366.251 191.122 373.649 191.122C380.345 191.122 387.743 195.226 387.743 204.838C387.743 214.072 380.021 219.04 373.649 219.04ZM375.269 217.906C381.047 217.906 383.639 213.262 383.639 208.024C383.639 201.058 378.725 191.77 371.651 192.148C366.143 192.364 363.659 196.9 363.659 202.3C363.659 209.158 368.087 217.906 375.269 217.906ZM392.147 218.5V217.798C393.767 217.312 394.307 216.07 394.307 211.642V192.634H391.175L391.445 191.878H394.307C394.739 183.832 402.137 176.38 410.939 176.38C413.369 176.38 414.611 176.866 414.611 177.784C414.611 178.756 413.261 180.916 411.047 180.916C408.617 180.916 406.295 180.16 403.217 179.08C401.381 180.106 398.519 181.834 398.519 188.638V191.878H405.593L405.269 192.634H398.519V211.642C398.519 216.07 399.005 217.312 400.679 217.798V218.5H392.147ZM443.483 218.5V217.798C445.103 217.312 445.643 216.07 445.643 211.642V187.558C445.643 183.13 445.103 181.888 443.483 181.402V180.7H454.445C465.623 180.7 469.187 186.1 469.187 191.338C469.187 198.52 463.949 203.542 453.905 203.542H450.071V211.642C450.071 216.07 450.557 217.312 452.231 217.798V218.5H443.483ZM453.797 202.732C460.709 202.732 464.435 198.952 464.435 192.58C464.435 186.802 461.033 181.51 452.339 181.51C451.583 181.51 450.719 181.564 450.071 181.618V202.732H453.797ZM489.933 218.5C488.853 218.5 488.313 217.906 488.313 216.88V207.16C486.639 213.802 482.103 219.04 476.757 219.04C472.761 219.04 469.197 216.61 469.197 211.966C469.197 206.35 474.867 204.244 481.293 202.462L488.313 200.572C488.043 195.334 485.343 192.904 480.753 192.904C477.513 192.904 474.381 194.416 471.681 197.71L471.195 197.278C474.273 193.444 478.215 191.122 482.913 191.122C489.447 191.122 492.471 194.74 492.471 200.842V211.642C492.471 216.07 492.957 217.312 494.631 217.798V218.5H489.933ZM473.247 210.454C473.247 213.964 475.677 215.854 478.755 215.854C484.533 215.854 488.259 208.564 488.313 202.894V201.382V201.274L481.509 203.11C477.513 204.244 473.193 206.026 473.247 210.454ZM497.669 218.5V217.798C499.343 217.312 499.829 216.07 499.829 211.642V199.222C499.829 195.442 499.127 194.902 497.669 194.254V193.66L503.555 191.068L504.041 191.446V198.196C504.905 196.09 506.363 194.254 507.983 193.066C509.657 191.824 511.547 191.122 514.139 191.122C516.299 191.122 517.649 191.662 517.649 192.58C517.649 193.768 516.461 195.658 514.517 195.658C513.059 195.658 510.953 195.064 507.767 194.146C506.201 195.28 504.257 198.304 504.095 200.896H504.041V211.642C504.041 216.07 504.527 217.312 506.201 217.798V218.5H497.669ZM520.345 218.5V217.798C522.019 217.312 522.505 216.07 522.505 211.642V199.222C522.505 195.442 521.857 194.902 520.345 194.254V193.66L526.285 191.068L526.717 191.446V211.642C526.717 216.07 527.257 217.312 528.877 217.798V218.5H520.345ZM524.287 187.774C522.613 187.774 521.317 186.424 521.317 184.804C521.317 183.076 522.613 181.78 524.287 181.78C526.015 181.78 527.257 183.076 527.257 184.804C527.257 186.424 525.961 187.774 524.287 187.774ZM542.95 218.986C538.63 218.986 534.904 217.69 533.122 216.502L532.636 209.968L533.122 209.86C535.39 214.99 539.224 218.068 544.138 218.122C547.486 218.122 549.97 216.124 549.97 213.1C549.97 209.212 546.19 207.97 542.032 206.62C536.902 205 533.23 203.596 533.23 198.682C533.23 194.416 536.794 191.122 543.058 191.122C546.568 191.122 549.754 191.878 551.428 192.58L551.644 198.088L551.104 198.196C549.376 194.308 545.92 191.824 542.086 191.824C538.414 191.824 536.038 193.606 536.038 196.36C536.038 199.762 539.494 201.166 543.76 202.57C547.864 203.92 552.832 205.162 552.832 210.562C552.832 215.098 549.43 218.932 542.95 218.986ZM556.521 218.5V217.798C558.195 217.312 558.681 216.07 558.681 211.642V199.222C558.681 195.442 558.033 194.902 556.521 194.254V193.66L562.461 191.068L562.893 191.446V211.642C562.893 216.07 563.433 217.312 565.053 217.798V218.5H556.521ZM560.463 187.774C558.789 187.774 557.493 186.424 557.493 184.804C557.493 183.076 558.789 181.78 560.463 181.78C562.191 181.78 563.433 183.076 563.433 184.804C563.433 186.424 562.137 187.774 560.463 187.774ZM581.664 219.04C575.724 219.04 568.866 214.72 568.866 205.81C568.866 197.008 575.508 191.122 583.068 191.122C589.872 191.122 593.814 195.55 593.976 200.68H572.862C572.754 201.49 572.7 202.3 572.7 203.164C572.7 210.562 577.29 215.638 584.31 215.638C588.468 215.638 591.438 213.748 593.922 210.94L594.408 211.426C591.654 215.206 587.442 219.04 581.664 219.04ZM573.024 199.978H589.656C589.116 196.36 586.2 192.094 581.286 192.094C576.696 192.04 573.888 195.442 573.024 199.978ZM597.654 218.5V217.798C599.328 217.312 599.814 216.07 599.814 211.642V199.222C599.814 195.442 599.166 194.902 597.654 194.254V193.66L603.594 191.068L604.026 191.446V196.09C607.158 193.552 611.316 191.122 615.474 191.122C620.766 191.122 624.006 194.2 624.006 200.518V211.642C624.006 216.07 624.492 217.312 626.166 217.798V218.5H617.634V217.798C619.308 217.312 619.794 216.07 619.794 211.642V201.598C619.794 195.982 617.418 192.904 612.666 192.904C609.696 192.904 606.78 194.686 604.026 196.954V211.642C604.026 216.07 604.566 217.312 606.186 217.798V218.5H597.654ZM629.189 218.5V217.798C630.863 217.312 631.349 216.07 631.349 211.642V199.222C631.349 195.442 630.701 194.902 629.189 194.254V193.66L635.129 191.068L635.561 191.446V196.09C638.693 193.552 642.851 191.122 647.009 191.122C652.301 191.122 655.541 194.2 655.541 200.518V211.642C655.541 216.07 656.027 217.312 657.701 217.798V218.5H649.169V217.798C650.843 217.312 651.329 216.07 651.329 211.642V201.598C651.329 195.982 648.953 192.904 644.201 192.904C641.231 192.904 638.315 194.686 635.561 196.954V211.642C635.561 216.07 636.101 217.312 637.721 217.798V218.5H629.189ZM673.738 219.04C667.798 219.04 660.94 214.72 660.94 205.81C660.94 197.008 667.582 191.122 675.142 191.122C681.946 191.122 685.888 195.55 686.05 200.68H664.936C664.828 201.49 664.774 202.3 664.774 203.164C664.774 210.562 669.364 215.638 676.384 215.638C680.542 215.638 683.512 213.748 685.996 210.94L686.482 211.426C683.728 215.206 679.516 219.04 673.738 219.04ZM665.098 199.978H681.73C681.19 196.36 678.274 192.094 673.36 192.094C668.77 192.04 665.962 195.442 665.098 199.978ZM30.376 294.5H3.754V293.798C5.374 293.312 5.914 292.07 5.914 287.642V263.558C5.914 259.13 5.374 257.888 3.754 257.402V256.7H28.864L29.458 263.72L28.864 263.882C26.974 259.13 23.788 257.51 18.28 257.51H10.342V273.872H17.254C23.41 273.872 24.976 272.63 25.624 270.2H26.272V278.354H25.624C24.976 275.924 23.41 274.682 17.254 274.682H10.342V291.26C10.342 292.826 11.206 293.69 12.772 293.69H19.792C24.976 293.69 28.27 292.232 30.214 287.21L30.808 287.318L30.376 294.5ZM45.0028 294.986C40.6828 294.986 36.9568 293.69 35.1748 292.502L34.6888 285.968L35.1748 285.86C37.4428 290.99 41.2768 294.068 46.1908 294.122C49.5388 294.122 52.0228 292.124 52.0228 289.1C52.0228 285.212 48.2428 283.97 44.0848 282.62C38.9548 281 35.2828 279.596 35.2828 274.682C35.2828 270.416 38.8468 267.122 45.1108 267.122C48.6208 267.122 51.8068 267.878 53.4808 268.58L53.6968 274.088L53.1568 274.196C51.4288 270.308 47.9728 267.824 44.1388 267.824C40.4668 267.824 38.0908 269.606 38.0908 272.36C38.0908 275.762 41.5468 277.166 45.8128 278.57C49.9168 279.92 54.8848 281.162 54.8848 286.562C54.8848 291.098 51.4828 294.932 45.0028 294.986ZM73.2077 294.986C70.2377 294.986 67.4297 293.96 65.3777 292.61V302.222C65.3777 306.65 65.8637 307.892 67.5377 308.378V309.08H59.0057V308.378C60.6257 307.892 61.1657 306.65 61.1657 302.222V275.222C61.1657 271.442 60.4637 270.902 59.0057 270.254V269.66L64.8917 267.068L65.3777 267.446V271.388C68.2937 269.228 72.0197 267.122 76.1777 267.122C82.4417 267.122 87.1397 272.306 87.1397 280.298C87.1397 287.858 82.1717 294.932 73.2077 294.986ZM65.3777 285.59C65.3777 289.262 70.0757 293.96 74.9357 293.96C80.6057 293.96 83.2517 289.694 83.2517 283.43C83.2517 277.436 80.8757 268.958 73.3157 268.958C70.1837 268.958 67.6457 270.524 65.3777 272.252V285.59ZM91.1635 294.5V293.798C92.8375 293.312 93.3235 292.07 93.3235 287.642V275.222C93.3235 271.442 92.6215 270.902 91.1635 270.254V269.66L97.0495 267.068L97.5355 267.446V274.196C98.3995 272.09 99.8575 270.254 101.478 269.066C103.152 267.824 105.042 267.122 107.634 267.122C109.794 267.122 111.144 267.662 111.144 268.58C111.144 269.768 109.956 271.658 108.012 271.658C106.554 271.658 104.448 271.064 101.262 270.146C99.6955 271.28 97.7515 274.304 97.5895 276.896H97.5355V287.642C97.5355 292.07 98.0215 293.312 99.6955 293.798V294.5H91.1635ZM113.839 294.5V293.798C115.513 293.312 115.999 292.07 115.999 287.642V275.222C115.999 271.442 115.351 270.902 113.839 270.254V269.66L119.779 267.068L120.211 267.446V287.642C120.211 292.07 120.751 293.312 122.371 293.798V294.5H113.839ZM117.781 263.774C116.107 263.774 114.811 262.424 114.811 260.804C114.811 259.076 116.107 257.78 117.781 257.78C119.509 257.78 120.751 259.076 120.751 260.804C120.751 262.424 119.455 263.774 117.781 263.774ZM134.446 295.04C131.044 295.04 128.992 292.934 128.992 287.318V268.256H125.536V267.5L132.448 260.858H133.204V267.5H141.412L141.142 268.256H133.204V287.318C133.204 290.99 134.716 292.394 137.038 292.394C138.55 292.394 140.44 291.692 142.222 289.586L142.708 290.072C140.386 292.718 137.632 295.04 134.446 295.04ZM155.869 294.5V293.798C157.543 293.312 158.029 292.07 158.029 287.642V275.222C158.029 271.442 157.381 270.902 155.869 270.254V269.66L161.809 267.068L162.241 267.446V287.642C162.241 292.07 162.781 293.312 164.401 293.798V294.5H155.869ZM159.811 263.774C158.137 263.774 156.841 262.424 156.841 260.804C156.841 259.076 158.137 257.78 159.811 257.78C161.539 257.78 162.781 259.076 162.781 260.804C162.781 262.424 161.485 263.774 159.811 263.774ZM167.998 294.5V293.798C169.672 293.312 170.158 292.07 170.158 287.642V275.222C170.158 271.442 169.51 270.902 167.998 270.254V269.66L173.938 267.068L174.37 267.446V272.09C177.502 269.552 181.66 267.122 185.818 267.122C191.11 267.122 194.35 270.2 194.35 276.518V287.642C194.35 292.07 194.836 293.312 196.51 293.798V294.5H187.978V293.798C189.652 293.312 190.138 292.07 190.138 287.642V277.598C190.138 271.982 187.762 268.904 183.01 268.904C180.04 268.904 177.124 270.686 174.37 272.954V287.642C174.37 292.07 174.91 293.312 176.53 293.798V294.5H167.998ZM237.385 294.5H211.681V293.744C213.463 293.15 213.841 291.53 213.841 287.642V263.558C213.841 259.67 213.463 258.05 211.681 257.456V256.7H221.725V257.456C219.943 258.05 219.565 259.67 219.565 263.558V290.828C219.565 292.556 220.537 293.528 222.265 293.528H226.693C232.147 293.528 234.955 292.232 237.115 287.588L237.817 287.696L237.385 294.5ZM240.291 294.5V293.744C242.073 293.15 242.451 291.53 242.451 287.642V275.222C242.451 272.036 241.641 271.496 240.291 270.902V270.146L247.419 267.014L247.959 267.446V287.642C247.959 291.53 248.337 293.15 250.119 293.744V294.5H240.291ZM244.881 265.178C242.829 265.178 241.209 263.558 241.209 261.506C241.209 259.4 242.829 257.78 244.881 257.78C247.041 257.78 248.553 259.4 248.553 261.506C248.553 263.558 246.933 265.178 244.881 265.178ZM253.642 294.5V293.744C255.424 293.15 255.802 291.53 255.802 287.642V269.066H252.67L252.94 268.202H255.802C256.18 260.264 264.442 252.326 273.514 252.326C275.782 252.326 277.348 252.758 277.348 253.838C277.348 254.972 275.728 257.456 273.298 257.456C270.544 257.456 268.168 256.754 264.82 255.458C263.308 256.268 261.31 257.726 261.31 263.288V268.202H268.06L267.79 269.066H261.31V287.642C261.31 291.53 261.688 293.15 263.47 293.744V294.5H253.642ZM281.622 295.04C275.628 295.04 268.824 290.774 268.824 282.026C268.824 272.846 276.006 267.122 283.026 267.122C290.316 267.122 294.204 272.144 294.204 276.842H273.738C273.684 277.436 273.63 277.976 273.63 278.57C273.63 285.644 277.95 290.666 284.808 290.666C288.804 290.666 291.882 288.938 294.15 286.4L294.636 286.94C292.152 290.72 287.886 295.04 281.622 295.04ZM273.792 276.086H288.75C288.048 271.658 285.078 268.148 281.352 268.094C276.762 268.04 274.44 271.874 273.792 276.086ZM328.947 294.5C327.543 294.5 326.787 293.744 326.787 292.34V283.43C325.275 289.694 321.387 295.04 315.771 295.04C311.775 295.04 308.427 292.502 308.427 287.966C308.427 282.404 314.097 280.244 320.793 278.354L326.787 276.626C326.679 271.28 323.763 269.228 319.767 269.228C316.743 269.228 313.773 270.524 311.019 273.818L310.479 273.332C313.503 269.606 317.661 267.122 322.575 267.122C329.109 267.122 332.187 270.632 332.187 277.22V287.642C332.187 291.53 332.565 293.15 334.347 293.744V294.5H328.947ZM313.449 286.076C313.449 289.64 315.987 291.098 318.471 291.098C323.763 291.098 326.733 283.646 326.787 278.786V277.382L321.009 279.056C318.471 279.758 313.449 281.594 313.449 286.076ZM336.953 294.5V293.744C338.735 293.15 339.113 291.53 339.113 287.642V275.222C339.113 272.036 338.303 271.496 336.953 270.902V270.146L344.081 267.014L344.621 267.446V271.982C347.591 269.552 351.479 267.122 355.691 267.122C360.659 267.122 364.007 269.714 364.007 276.032V287.642C364.007 291.53 364.385 293.15 366.167 293.744V294.5H356.339V293.744C358.121 293.15 358.499 291.53 358.499 287.642V277.004C358.499 272.144 356.393 269.282 352.397 269.282C349.859 269.282 347.537 270.524 344.621 272.9V287.642C344.621 291.53 344.999 293.15 346.781 293.744V294.5H336.953ZM380.416 295.148C373.558 295.04 368.914 288.722 368.914 282.026C368.914 273.764 374.584 267.176 383.98 267.176C386.248 267.176 388.138 267.716 389.758 268.526V259.022C389.758 255.836 388.948 255.296 387.598 254.702V253.946L394.726 250.814L395.266 251.246V287.642C395.266 291.53 395.644 293.15 397.426 293.744V294.5H391.918C390.514 294.5 389.758 293.744 389.758 292.34V290.072C387.706 292.448 384.466 295.256 380.416 295.148ZM374.206 277.652C374.206 282.782 375.988 291.908 383.764 291.908C386.14 291.908 388.192 290.612 389.758 288.938V277.004C389.758 273.008 386.248 268.31 381.712 268.31C375.772 268.31 374.206 273.386 374.206 277.652ZM424.661 295.04C419.099 295.04 414.077 293.258 411.323 291.206L411.107 283.106L411.809 282.998C414.077 289.154 418.883 293.906 426.065 293.906C429.791 293.906 433.247 291.53 433.247 287.102C433.247 281.81 426.281 279.326 421.961 277.598C416.399 275.276 411.755 273.44 411.755 267.176C411.755 260.48 417.155 256.322 425.633 256.322C429.629 256.322 433.193 257.186 436.001 258.59L436.217 265.61L435.623 265.826C433.409 260.264 428.819 257.24 423.581 257.24C419.261 257.24 415.859 259.778 415.859 264.044C415.859 268.85 421.313 270.794 425.633 272.522C431.141 274.628 437.675 277.058 437.675 283.538C437.675 290.936 430.871 295.04 424.661 295.04ZM449.216 295.04C445.544 295.04 443.6 292.718 443.6 286.886V268.364H440.144V267.5L448.244 260.372H449.108V267.5H457.478L457.262 268.364H449.108V286.94C449.108 290.288 450.35 291.746 452.726 291.746C453.914 291.746 455.75 291.26 457.532 289.046L458.072 289.586C455.21 292.88 452.456 295.04 449.216 295.04ZM460.257 304.922C458.042 304.976 456.314 304.274 456.314 303.194C456.314 302.168 457.772 299.792 460.311 299.792C461.876 299.792 464.847 300.278 467.655 300.764C468.951 299.36 470.247 297.254 471.435 294.77L462.363 273.818C460.851 270.2 459.393 268.85 458.15 268.256V267.5H467.709V268.256C465.927 268.85 466.737 270.2 468.303 273.764L474.459 287.804L480.507 273.818C482.019 270.2 481.749 268.688 479.913 268.256V267.5H486.068V268.256C484.449 268.85 482.937 270.2 481.371 273.764L473.109 292.88C469.005 302.33 465.225 304.814 460.257 304.922ZM487.196 294.5V293.744C488.978 293.15 489.356 291.53 489.356 287.642V259.022C489.356 255.836 488.546 255.296 487.196 254.702V253.946L494.324 250.814L494.864 251.246V287.642C494.864 291.53 495.242 293.15 497.024 293.744V294.5H487.196ZM513.337 295.04C507.343 295.04 500.539 290.774 500.539 282.026C500.539 272.846 507.721 267.122 514.741 267.122C522.031 267.122 525.919 272.144 525.919 276.842H505.453C505.399 277.436 505.345 277.976 505.345 278.57C505.345 285.644 509.665 290.666 516.523 290.666C520.519 290.666 523.597 288.938 525.865 286.4L526.351 286.94C523.867 290.72 519.601 295.04 513.337 295.04ZM505.507 276.086H520.465C519.763 271.658 516.793 268.148 513.067 268.094C508.477 268.04 506.155 271.874 505.507 276.086ZM533.867 294.878C532.139 294.878 530.681 293.366 530.681 291.584C530.681 289.802 532.139 288.344 533.867 288.344C535.595 288.344 536.999 289.802 536.999 291.584C536.999 293.366 535.595 294.878 533.867 294.878Z" fill="#5F594F"/>
</svg>
