<svg width="557" height="145" viewBox="0 0 557 145" fill="none" xmlns="http://www.w3.org/2000/svg">
<path d="M7.96 33V32.48C9.2 32.12 9.56 31.2 9.56 27.92V5.64H7.6C4 5.64 2.44 6.6 1.08 9.48L0.64 9.4L0.88 5H21.48L21.72 9.4L21.28 9.48C19.92 6.6 18.36 5.64 14.76 5.64H12.88V27.92C12.88 31.2 13.24 32.12 14.48 32.48V33H7.96ZM23.4628 33V32.48C24.7028 32.12 25.0628 31.2 25.0628 27.92V6.72C25.0628 3.92 24.5428 3.52 23.4628 3.04V2.6L27.8228 0.679999L28.1828 0.959998V16.4C30.5028 14.52 33.5828 12.72 36.6628 12.72C40.5828 12.72 42.9828 15 42.9828 19.68V27.92C42.9828 31.2 43.3428 32.12 44.5828 32.48V33H38.2628V32.48C39.5028 32.12 39.8628 31.2 39.8628 27.92V20.48C39.8628 16.32 38.1028 14.04 34.5828 14.04C32.3828 14.04 30.2228 15.36 28.1828 17.04V27.92C28.1828 31.2 28.5428 32.12 29.7828 32.48V33H23.4628ZM56.4669 33.4C52.0669 33.4 46.9869 30.2 46.9869 23.6C46.9869 17.08 51.9069 12.72 57.5069 12.72C62.5469 12.72 65.4669 16 65.5869 19.8H49.9469C49.8669 20.4 49.8269 21 49.8269 21.64C49.8269 27.12 53.2269 30.88 58.4269 30.88C61.5069 30.88 63.7069 29.48 65.5469 27.4L65.9069 27.76C63.8669 30.56 60.7469 33.4 56.4669 33.4ZM50.0669 19.28H62.3869C61.9869 16.6 59.8269 13.44 56.1869 13.44C52.7869 13.4 50.7069 15.92 50.0669 19.28ZM91.7497 33.4C84.9497 33.4 77.5097 28.88 77.5097 18.96C77.5097 10.76 83.2697 4.68 91.7497 4.68C98.5097 4.68 105.91 9.32 105.91 19.12C105.91 29 98.4697 33.4 91.7497 33.4ZM93.4297 32.4C99.8297 32.4 102.99 27.76 102.79 21.76C102.51 13.4 97.2697 5.6 90.1097 5.6C84.0297 5.6 80.4697 10.12 80.7097 16.64C80.9897 24.68 86.2697 32.4 93.4297 32.4ZM109.249 33V32.48C110.489 32.12 110.849 31.2 110.849 27.92V18.72C110.849 15.92 110.369 15.52 109.249 15.04V14.6L113.649 12.68L113.969 12.96V16.4C116.289 14.52 119.369 12.72 122.449 12.72C126.369 12.72 128.769 15 128.769 19.68V27.92C128.769 31.2 129.129 32.12 130.369 32.48V33H124.049V32.48C125.289 32.12 125.649 31.2 125.649 27.92V20.48C125.649 16.32 123.889 14.04 120.369 14.04C118.169 14.04 116.009 15.36 113.969 17.04V27.92C113.969 31.2 114.369 32.12 115.569 32.48V33H109.249ZM142.248 33.4C137.848 33.4 132.768 30.2 132.768 23.6C132.768 17.08 137.688 12.72 143.288 12.72C148.328 12.72 151.248 16 151.368 19.8H135.728C135.648 20.4 135.608 21 135.608 21.64C135.608 27.12 139.008 30.88 144.208 30.88C147.288 30.88 149.488 29.48 151.328 27.4L151.688 27.76C149.648 30.56 146.528 33.4 142.248 33.4ZM135.848 19.28H148.168C147.768 16.6 145.608 13.44 141.968 13.44C138.568 13.4 136.488 15.92 135.848 19.28ZM163.291 17.88C162.371 14.76 161.851 13.88 161.011 13.52V13H166.771V13.52C165.531 13.88 165.651 14.76 166.571 17.88L169.971 29.76L175.731 13H177.251L183.051 29.72L186.491 17.88C187.291 15.2 186.971 13.8 185.571 13.52V13H189.651V13.52C188.531 13.88 188.011 14.76 187.091 17.88L182.691 33H180.891L175.171 16.4L169.451 33H167.691L163.291 17.88ZM190.733 33V32.48C191.973 32.12 192.333 31.2 192.333 27.92V18.72C192.333 15.92 191.853 15.52 190.733 15.04V14.6L195.133 12.68L195.453 12.96V27.92C195.453 31.2 195.853 32.12 197.053 32.48V33H190.733ZM193.653 10.24C192.413 10.24 191.453 9.24 191.453 8.04C191.453 6.76 192.413 5.8 193.653 5.8C194.933 5.8 195.853 6.76 195.853 8.04C195.853 9.24 194.893 10.24 193.653 10.24ZM205.998 33.4C203.478 33.4 201.958 31.84 201.958 27.68V13.56H199.398V13L204.518 8.08H205.078V13H211.158L210.958 13.56H205.078V27.68C205.078 30.4 206.198 31.44 207.918 31.44C209.038 31.44 210.438 30.92 211.758 29.36L212.118 29.72C210.398 31.68 208.358 33.4 205.998 33.4ZM213.268 33V32.48C214.508 32.12 214.868 31.2 214.868 27.92V6.72C214.868 3.92 214.348 3.52 213.268 3.04V2.6L217.628 0.679999L217.988 0.959998V16.4C220.308 14.52 223.388 12.72 226.468 12.72C230.388 12.72 232.788 15 232.788 19.68V27.92C232.788 31.2 233.148 32.12 234.388 32.48V33H228.068V32.48C229.308 32.12 229.668 31.2 229.668 27.92V20.48C229.668 16.32 227.908 14.04 224.388 14.04C222.188 14.04 220.028 15.36 217.988 17.04V27.92C217.988 31.2 218.348 32.12 219.588 32.48V33H213.268ZM251.31 33.4C248.79 33.4 247.27 31.84 247.27 27.68V13.56H244.71V13L249.83 8.08H250.39V13H256.47L256.27 13.56H250.39V27.68C250.39 30.4 251.51 31.44 253.23 31.44C254.35 31.44 255.75 30.92 257.07 29.36L257.43 29.72C255.71 31.68 253.67 33.4 251.31 33.4ZM258.58 33V32.48C259.82 32.12 260.18 31.2 260.18 27.92V6.72C260.18 3.92 259.66 3.52 258.58 3.04V2.6L262.94 0.679999L263.3 0.959998V16.4C265.62 14.52 268.7 12.72 271.78 12.72C275.7 12.72 278.1 15 278.1 19.68V27.92C278.1 31.2 278.46 32.12 279.7 32.48V33H273.38V32.48C274.62 32.12 274.98 31.2 274.98 27.92V20.48C274.98 16.32 273.22 14.04 269.7 14.04C267.5 14.04 265.34 15.36 263.3 17.04V27.92C263.3 31.2 263.66 32.12 264.9 32.48V33H258.58ZM291.584 33.4C287.184 33.4 282.104 30.2 282.104 23.6C282.104 17.08 287.024 12.72 292.624 12.72C297.664 12.72 300.584 16 300.704 19.8H285.064C284.984 20.4 284.944 21 284.944 21.64C284.944 27.12 288.344 30.88 293.544 30.88C296.624 30.88 298.824 29.48 300.664 27.4L301.024 27.76C298.984 30.56 295.864 33.4 291.584 33.4ZM285.184 19.28H297.504C297.104 16.6 294.944 13.44 291.304 13.44C287.904 13.4 285.824 15.92 285.184 19.28ZM321.947 33.4C317.747 33.4 314.227 31.92 312.347 30.56L312.147 25L312.587 24.92C314.147 29.12 317.187 32.68 322.747 32.68C325.947 32.68 328.707 30.6 328.707 27.36C328.707 23.36 323.787 21.52 320.427 20.16C315.707 18.28 312.707 16.6 312.707 12.36C312.707 7.68 316.587 4.72 322.467 4.72C326.107 4.72 328.707 5.72 330.267 6.56L330.427 11.2L330.027 11.32C328.547 7.84 325.747 5.36 321.187 5.36C317.947 5.36 315.187 7.24 315.187 10.64C315.187 14.4 319.307 15.92 322.707 17.32C327.147 19.08 331.307 20.84 331.307 25.36C331.307 30.36 326.667 33.4 321.947 33.4ZM343.498 33.4C339.098 33.4 334.018 30.2 334.018 23.6C334.018 17.08 338.938 12.72 344.538 12.72C349.578 12.72 352.498 16 352.618 19.8H336.978C336.898 20.4 336.858 21 336.858 21.64C336.858 27.12 340.258 30.88 345.458 30.88C348.538 30.88 350.738 29.48 352.578 27.4L352.938 27.76C350.898 30.56 347.778 33.4 343.498 33.4ZM337.098 19.28H349.418C349.018 16.6 346.858 13.44 343.218 13.44C339.818 13.4 337.738 15.92 337.098 19.28ZM364.983 33.4C360.343 33.4 355.503 30.04 355.503 23.6C355.503 17.28 360.543 12.72 366.383 12.72C370.223 12.72 373.183 13.8 373.183 14.88C373.183 15.8 371.943 17.04 370.663 17.04C369.663 17.04 367.783 15.88 364.583 13.36C360.863 14 358.343 17.32 358.343 21.64C358.343 27.12 361.743 30.88 366.943 30.88C370.023 30.88 372.223 29.48 374.062 27.4L374.423 27.76C372.383 30.56 369.263 33.4 364.983 33.4ZM376.514 33V32.48C377.754 32.12 378.114 31.2 378.114 27.92V18.72C378.114 15.92 377.594 15.52 376.514 15.04V14.6L380.874 12.68L381.234 12.96V17.96C381.874 16.4 382.954 15.04 384.154 14.16C385.394 13.24 386.794 12.72 388.714 12.72C390.314 12.72 391.314 13.12 391.314 13.8C391.314 14.68 390.434 16.08 388.994 16.08C387.914 16.08 386.354 15.64 383.994 14.96C382.834 15.8 381.394 18.04 381.274 19.96H381.234V27.92C381.234 31.2 381.594 32.12 382.834 32.48V33H376.514ZM400.998 33.4C396.598 33.4 391.518 30.2 391.518 23.6C391.518 17.08 396.438 12.72 402.038 12.72C407.078 12.72 409.998 16 410.118 19.8H394.478C394.398 20.4 394.358 21 394.358 21.64C394.358 27.12 397.758 30.88 402.958 30.88C406.038 30.88 408.238 29.48 410.078 27.4L410.438 27.76C408.398 30.56 405.278 33.4 400.998 33.4ZM394.598 19.28H406.918C406.518 16.6 404.358 13.44 400.718 13.44C397.318 13.4 395.238 15.92 394.598 19.28ZM419.123 33.4C416.603 33.4 415.083 31.84 415.083 27.68V13.56H412.523V13L417.643 8.08H418.203V13H424.283L424.083 13.56H418.203V27.68C418.203 30.4 419.323 31.44 421.043 31.44C422.163 31.44 423.563 30.92 424.883 29.36L425.243 29.72C423.523 31.68 421.483 33.4 419.123 33.4ZM450.871 33.4C441.671 33.4 435.791 28.28 435.791 19.56C435.791 11.04 442.391 4.72 451.791 4.72C455.231 4.72 459.231 5.72 460.791 6.72L460.951 11.48L460.551 11.56C458.991 7.92 455.191 5.48 450.431 5.48C444.071 5.48 439.151 9.72 439.151 17.88C439.111 25.4 443.671 32.6 451.991 32.6C456.311 32.6 459.671 30.32 461.231 26L461.671 26.04L461.031 31.24C459.151 32.28 455.351 33.4 450.871 33.4ZM464.879 33V32.48C466.079 32.12 466.479 31.2 466.479 27.92V6.72C466.479 3.92 465.959 3.52 464.879 3.04V2.6L469.239 0.679999L469.599 0.959998V27.92C469.599 31.2 469.959 32.12 471.199 32.48V33H464.879ZM484.772 33.4C479.692 33.4 474.292 30.24 474.292 23.28C474.292 17.04 479.292 12.72 484.772 12.72C489.732 12.72 495.212 15.76 495.212 22.88C495.212 29.72 489.492 33.4 484.772 33.4ZM485.972 32.56C490.252 32.56 492.172 29.12 492.172 25.24C492.172 20.08 488.532 13.2 483.292 13.48C479.212 13.64 477.372 17 477.372 21C477.372 26.08 480.652 32.56 485.972 32.56ZM505.954 33.36C502.754 33.36 499.994 32.4 498.674 31.52L498.314 26.68L498.674 26.6C500.354 30.4 503.194 32.68 506.834 32.72C509.314 32.72 511.154 31.24 511.154 29C511.154 26.12 508.354 25.2 505.274 24.2C501.474 23 498.754 21.96 498.754 18.32C498.754 15.16 501.394 12.72 506.034 12.72C508.634 12.72 510.994 13.28 512.234 13.8L512.394 17.88L511.994 17.96C510.714 15.08 508.154 13.24 505.314 13.24C502.594 13.24 500.834 14.56 500.834 16.6C500.834 19.12 503.394 20.16 506.554 21.2C509.594 22.2 513.274 23.12 513.274 27.12C513.274 30.48 510.754 33.32 505.954 33.36ZM525.647 33.4C521.247 33.4 516.167 30.2 516.167 23.6C516.167 17.08 521.087 12.72 526.687 12.72C531.727 12.72 534.647 16 534.767 19.8H519.127C519.047 20.4 519.007 21 519.007 21.64C519.007 27.12 522.407 30.88 527.607 30.88C530.687 30.88 532.887 29.48 534.727 27.4L535.087 27.76C533.047 30.56 529.927 33.4 525.647 33.4ZM519.247 19.28H531.567C531.167 16.6 529.007 13.44 525.367 13.44C521.967 13.4 519.887 15.92 519.247 19.28ZM543.771 33.4C541.251 33.4 539.731 31.84 539.731 27.68V13.56H537.171V13L542.291 8.08H542.851V13H548.931L548.731 13.56H542.851V27.68C542.851 30.4 543.971 31.44 545.691 31.44C546.811 31.44 548.211 30.92 549.531 29.36L549.891 29.72C548.171 31.68 546.131 33.4 543.771 33.4ZM554.441 33.28C553.321 33.28 552.361 32.28 552.361 31.12C552.361 29.96 553.321 29 554.441 29C555.561 29 556.481 29.96 556.481 31.12C556.481 32.28 555.561 33.28 554.441 33.28ZM2 85V84.48C3.24 84.12 3.6 83.2 3.6 79.92V63.68C3.6 59.12 2.76 58 1.16 57.52V57H6L16.44 74.24L26.68 57H31.2V57.52C29.6 58 28.76 59.12 28.76 63.68V79.92C28.76 83.2 29.12 84.12 30.36 84.48V85H23.88V84.48C25.08 84.12 25.48 83.2 25.48 79.92V60.24L15.32 77.4H14.56L4.32 60.56V78.32C4.32 82.88 5.28 84 7.04 84.48V85H2ZM34.4422 92.72C32.8822 92.76 31.7222 92.24 31.7222 91.6C31.7222 90.84 32.7222 89.4 34.2022 89.4C35.2422 89.4 37.4022 90 39.2422 90.32C40.6422 89.12 41.8822 87.16 42.8822 85.08L36.3222 69.68C35.0822 66.68 34.0822 65.88 33.2422 65.52V65H39.2822V65.52C38.0822 65.88 38.4022 66.68 39.6822 69.68L44.6022 81.12L49.5222 69.68C50.6422 67.08 50.5622 65.8 49.1622 65.52V65H53.6022V65.52C52.4822 65.88 51.4422 66.68 50.1222 69.68L43.9222 84C40.5222 91.84 37.0022 92.68 34.4422 92.72ZM63.0769 85V84.48C64.3169 84.12 64.6769 83.2 64.6769 79.92V70.72C64.6769 67.92 64.1569 67.52 63.0769 67.04V66.6L67.4369 64.68L67.7969 64.96V68.36C70.1969 66.44 73.1969 64.72 76.0769 64.72C79.0369 64.72 80.9169 65.92 81.6369 68.48C84.0369 66.56 87.1169 64.72 90.1169 64.72C93.9969 64.72 95.9969 66.84 95.9969 71.36V79.92C95.9969 83.2 96.3969 84.12 97.5969 84.48V85H91.2769V84.48C92.5169 84.12 92.8769 83.2 92.8769 79.92V72.08C92.8769 68.12 91.4369 66.04 88.3169 66.04C86.0369 66.04 83.9569 67.28 81.7569 69C81.9169 69.68 81.9969 70.48 81.9969 71.36V79.92C81.9969 83.2 82.3569 84.12 83.5969 84.48V85H77.2769V84.48C78.4769 84.12 78.8769 83.2 78.8769 79.92V72.08C78.8769 68.12 77.3969 66.04 74.3169 66.04C72.0369 66.04 69.9569 67.28 67.7969 68.92V79.92C67.7969 83.2 68.1569 84.12 69.3969 84.48V85H63.0769ZM109.358 85.4C104.958 85.4 99.8775 82.2 99.8775 75.6C99.8775 69.08 104.798 64.72 110.398 64.72C115.438 64.72 118.358 68 118.478 71.8H102.838C102.758 72.4 102.718 73 102.718 73.64C102.718 79.12 106.118 82.88 111.318 82.88C114.398 82.88 116.598 81.48 118.438 79.4L118.798 79.76C116.758 82.56 113.638 85.4 109.358 85.4ZM102.958 71.28H115.278C114.878 68.6 112.718 65.44 109.078 65.44C105.678 65.4 103.598 67.92 102.958 71.28ZM121.202 85V84.48C122.442 84.12 122.802 83.2 122.802 79.92V70.72C122.802 67.92 122.282 67.52 121.202 67.04V66.6L125.562 64.68L125.922 64.96V68.36C128.322 66.44 131.322 64.72 134.202 64.72C137.162 64.72 139.042 65.92 139.762 68.48C142.162 66.56 145.242 64.72 148.242 64.72C152.122 64.72 154.122 66.84 154.122 71.36V79.92C154.122 83.2 154.522 84.12 155.722 84.48V85H149.402V84.48C150.642 84.12 151.002 83.2 151.002 79.92V72.08C151.002 68.12 149.562 66.04 146.442 66.04C144.162 66.04 142.082 67.28 139.882 69C140.042 69.68 140.122 70.48 140.122 71.36V79.92C140.122 83.2 140.482 84.12 141.722 84.48V85H135.402V84.48C136.602 84.12 137.002 83.2 137.002 79.92V72.08C137.002 68.12 135.522 66.04 132.442 66.04C130.162 66.04 128.082 67.28 125.922 68.92V79.92C125.922 83.2 126.282 84.12 127.522 84.48V85H121.202ZM168.483 85.4C163.403 85.4 158.003 82.24 158.003 75.28C158.003 69.04 163.003 64.72 168.483 64.72C173.443 64.72 178.923 67.76 178.923 74.88C178.923 81.72 173.203 85.4 168.483 85.4ZM169.683 84.56C173.963 84.56 175.883 81.12 175.883 77.24C175.883 72.08 172.243 65.2 167.003 65.48C162.923 65.64 161.083 69 161.083 73C161.083 78.08 164.363 84.56 169.683 84.56ZM181.905 85V84.48C183.145 84.12 183.505 83.2 183.505 79.92V70.72C183.505 67.92 182.985 67.52 181.905 67.04V66.6L186.265 64.68L186.625 64.96V69.96C187.265 68.4 188.345 67.04 189.545 66.16C190.785 65.24 192.185 64.72 194.105 64.72C195.705 64.72 196.705 65.12 196.705 65.8C196.705 66.68 195.825 68.08 194.385 68.08C193.305 68.08 191.745 67.64 189.385 66.96C188.225 67.8 186.785 70.04 186.665 71.96H186.625V79.92C186.625 83.2 186.985 84.12 188.225 84.48V85H181.905ZM198.702 85V84.48C199.942 84.12 200.302 83.2 200.302 79.92V70.72C200.302 67.92 199.822 67.52 198.702 67.04V66.6L203.102 64.68L203.422 64.96V79.92C203.422 83.2 203.822 84.12 205.022 84.48V85H198.702ZM201.622 62.24C200.382 62.24 199.422 61.24 199.422 60.04C199.422 58.76 200.382 57.8 201.622 57.8C202.902 57.8 203.822 58.76 203.822 60.04C203.822 61.24 202.862 62.24 201.622 62.24ZM217.326 85.4C212.926 85.4 207.846 82.2 207.846 75.6C207.846 69.08 212.766 64.72 218.366 64.72C223.406 64.72 226.326 68 226.446 71.8H210.806C210.726 72.4 210.686 73 210.686 73.64C210.686 79.12 214.086 82.88 219.286 82.88C222.366 82.88 224.566 81.48 226.406 79.4L226.766 79.76C224.726 82.56 221.606 85.4 217.326 85.4ZM210.926 71.28H223.246C222.846 68.6 220.686 65.44 217.046 65.44C213.646 65.4 211.566 67.92 210.926 71.28ZM236.931 85.36C233.731 85.36 230.971 84.4 229.651 83.52L229.291 78.68L229.651 78.6C231.331 82.4 234.171 84.68 237.811 84.72C240.291 84.72 242.131 83.24 242.131 81C242.131 78.12 239.331 77.2 236.251 76.2C232.451 75 229.731 73.96 229.731 70.32C229.731 67.16 232.371 64.72 237.011 64.72C239.611 64.72 241.971 65.28 243.211 65.8L243.371 69.88L242.971 69.96C241.691 67.08 239.131 65.24 236.291 65.24C233.571 65.24 231.811 66.56 231.811 68.6C231.811 71.12 234.371 72.16 237.531 73.2C240.571 74.2 244.251 75.12 244.251 79.12C244.251 82.48 241.731 85.32 236.931 85.36ZM266.222 85.36C264.022 85.36 261.942 84.6 260.422 83.6V90.72C260.422 94 260.782 94.92 262.022 95.28V95.8H255.702V95.28C256.902 94.92 257.302 94 257.302 90.72V70.72C257.302 67.92 256.782 67.52 255.702 67.04V66.6L260.062 64.68L260.422 64.96V67.88C262.582 66.28 265.342 64.72 268.422 64.72C273.062 64.72 276.542 68.56 276.542 74.48C276.542 80.08 272.862 85.32 266.222 85.36ZM260.422 78.4C260.422 81.12 263.902 84.6 267.502 84.6C271.702 84.6 273.662 81.44 273.662 76.8C273.662 72.36 271.902 66.08 266.302 66.08C263.982 66.08 262.102 67.24 260.422 68.52V78.4ZM294.221 85C293.421 85 293.021 84.56 293.021 83.8V76.6C291.781 81.52 288.421 85.4 284.461 85.4C281.501 85.4 278.861 83.6 278.861 80.16C278.861 76 283.061 74.44 287.821 73.12L293.021 71.72C292.821 67.84 290.821 66.04 287.421 66.04C285.021 66.04 282.701 67.16 280.701 69.6L280.341 69.28C282.621 66.44 285.541 64.72 289.021 64.72C293.861 64.72 296.101 67.4 296.101 71.92V79.92C296.101 83.2 296.461 84.12 297.701 84.48V85H294.221ZM281.861 79.04C281.861 81.64 283.661 83.04 285.941 83.04C290.221 83.04 292.981 77.64 293.021 73.44V72.32V72.24L287.981 73.6C285.021 74.44 281.821 75.76 281.861 79.04ZM299.952 85V84.48C301.192 84.12 301.552 83.2 301.552 79.92V70.72C301.552 67.92 301.072 67.52 299.952 67.04V66.6L304.352 64.68L304.672 64.96V79.92C304.672 83.2 305.072 84.12 306.272 84.48V85H299.952ZM302.872 62.24C301.632 62.24 300.672 61.24 300.672 60.04C300.672 58.76 301.632 57.8 302.872 57.8C304.152 57.8 305.072 58.76 305.072 60.04C305.072 61.24 304.112 62.24 302.872 62.24ZM308.936 85V84.48C310.176 84.12 310.536 83.2 310.536 79.92V70.72C310.536 67.92 310.056 67.52 308.936 67.04V66.6L313.336 64.68L313.656 64.96V68.4C315.976 66.52 319.056 64.72 322.136 64.72C326.056 64.72 328.456 67 328.456 71.68V79.92C328.456 83.2 328.816 84.12 330.056 84.48V85H323.736V84.48C324.976 84.12 325.336 83.2 325.336 79.92V72.48C325.336 68.32 323.576 66.04 320.056 66.04C317.856 66.04 315.696 67.36 313.656 69.04V79.92C313.656 83.2 314.056 84.12 315.256 84.48V85H308.936ZM338.576 85.4C336.056 85.4 334.536 83.84 334.536 79.68V65.56H331.976V65L337.096 60.08H337.656V65H343.736L343.536 65.56H337.656V79.68C337.656 82.4 338.776 83.44 340.496 83.44C341.616 83.44 343.016 82.92 344.336 81.36L344.696 81.72C342.976 83.68 340.936 85.4 338.576 85.4ZM360.724 85.4C358.204 85.4 356.684 83.84 356.684 79.68V65.56H354.124V65L359.244 60.08H359.804V65H365.884L365.684 65.56H359.804V79.68C359.804 82.4 360.924 83.44 362.644 83.44C363.764 83.44 365.164 82.92 366.484 81.36L366.844 81.72C365.124 83.68 363.084 85.4 360.724 85.4ZM367.994 85V84.48C369.234 84.12 369.594 83.2 369.594 79.92V58.72C369.594 55.92 369.074 55.52 367.994 55.04V54.6L372.354 52.68L372.714 52.96V68.4C375.034 66.52 378.114 64.72 381.194 64.72C385.114 64.72 387.514 67 387.514 71.68V79.92C387.514 83.2 387.874 84.12 389.114 84.48V85H382.794V84.48C384.034 84.12 384.394 83.2 384.394 79.92V72.48C384.394 68.32 382.634 66.04 379.114 66.04C376.914 66.04 374.754 67.36 372.714 69.04V79.92C372.714 83.2 373.074 84.12 374.314 84.48V85H367.994ZM400.998 85.4C396.598 85.4 391.518 82.2 391.518 75.6C391.518 69.08 396.438 64.72 402.038 64.72C407.078 64.72 409.998 68 410.118 71.8H394.478C394.398 72.4 394.358 73 394.358 73.64C394.358 79.12 397.758 82.88 402.958 82.88C406.038 82.88 408.238 81.48 410.078 79.4L410.438 79.76C408.398 82.56 405.278 85.4 400.998 85.4ZM394.598 71.28H406.918C406.518 68.6 404.358 65.44 400.718 65.44C397.318 65.4 395.238 67.92 394.598 71.28ZM430.881 85.4C426.241 85.4 421.401 82.04 421.401 75.6C421.401 69.28 426.441 64.72 432.281 64.72C436.121 64.72 439.081 65.8 439.081 66.88C439.081 67.8 437.841 69.04 436.561 69.04C435.561 69.04 433.681 67.88 430.481 65.36C426.761 66 424.241 69.32 424.241 73.64C424.241 79.12 427.641 82.88 432.841 82.88C435.921 82.88 438.121 81.48 439.961 79.4L440.321 79.76C438.281 82.56 435.161 85.4 430.881 85.4ZM452.662 85.4C447.582 85.4 442.182 82.24 442.182 75.28C442.182 69.04 447.182 64.72 452.662 64.72C457.622 64.72 463.102 67.76 463.102 74.88C463.102 81.72 457.382 85.4 452.662 85.4ZM453.862 84.56C458.142 84.56 460.062 81.12 460.062 77.24C460.062 72.08 456.422 65.2 451.182 65.48C447.102 65.64 445.262 69 445.262 73C445.262 78.08 448.542 84.56 453.862 84.56ZM465.934 85V84.48C467.134 84.12 467.534 83.2 467.534 79.92V58.72C467.534 55.92 467.014 55.52 465.934 55.04V54.6L470.294 52.68L470.654 52.96V79.92C470.654 83.2 471.014 84.12 472.254 84.48V85H465.934ZM485.826 85.4C480.746 85.4 475.346 82.24 475.346 75.28C475.346 69.04 480.346 64.72 485.826 64.72C490.786 64.72 496.266 67.76 496.266 74.88C496.266 81.72 490.546 85.4 485.826 85.4ZM487.026 84.56C491.306 84.56 493.226 81.12 493.226 77.24C493.226 72.08 489.586 65.2 484.346 65.48C480.266 65.64 478.426 69 478.426 73C478.426 78.08 481.706 84.56 487.026 84.56ZM499.249 85V84.48C500.489 84.12 500.849 83.2 500.849 79.92V70.72C500.849 67.92 500.329 67.52 499.249 67.04V66.6L503.609 64.68L503.969 64.96V69.96C504.609 68.4 505.689 67.04 506.889 66.16C508.129 65.24 509.529 64.72 511.449 64.72C513.049 64.72 514.049 65.12 514.049 65.8C514.049 66.68 513.169 68.08 511.729 68.08C510.649 68.08 509.089 67.64 506.729 66.96C505.569 67.8 504.129 70.04 504.009 71.96H503.969V79.92C503.969 83.2 504.329 84.12 505.569 84.48V85H499.249ZM522.204 85.36C519.004 85.36 516.244 84.4 514.924 83.52L514.564 78.68L514.924 78.6C516.604 82.4 519.444 84.68 523.084 84.72C525.564 84.72 527.404 83.24 527.404 81C527.404 78.12 524.604 77.2 521.524 76.2C517.724 75 515.004 73.96 515.004 70.32C515.004 67.16 517.644 64.72 522.284 64.72C524.884 64.72 527.244 65.28 528.484 65.8L528.644 69.88L528.244 69.96C526.964 67.08 524.404 65.24 521.564 65.24C518.844 65.24 517.084 66.56 517.084 68.6C517.084 71.12 519.644 72.16 522.804 73.2C525.844 74.2 529.524 75.12 529.524 79.12C529.524 82.48 527.004 85.32 522.204 85.36ZM11.92 137.4C6.84 137.4 1.44 134.24 1.44 127.28C1.44 121.04 6.44 116.72 11.92 116.72C16.88 116.72 22.36 119.76 22.36 126.88C22.36 133.72 16.64 137.4 11.92 137.4ZM13.12 136.56C17.4 136.56 19.32 133.12 19.32 129.24C19.32 124.08 15.68 117.2 10.44 117.48C6.36 117.64 4.52 121 4.52 125C4.52 130.08 7.8 136.56 13.12 136.56ZM25.6225 137V136.48C26.8225 136.12 27.2225 135.2 27.2225 131.92V117.84H24.9025L25.1025 117.28H27.2225C27.5425 111.32 33.0225 105.8 39.5425 105.8C41.3425 105.8 42.2625 106.16 42.2625 106.84C42.2625 107.56 41.2625 109.16 39.6225 109.16C37.8225 109.16 36.1025 108.6 33.8225 107.8C32.4625 108.56 30.3425 109.84 30.3425 114.88V117.28H35.5825L35.3425 117.84H30.3425V131.92C30.3425 135.2 30.7025 136.12 31.9425 136.48V137H25.6225ZM45.8894 137V136.48C47.1294 136.12 47.4894 135.2 47.4894 131.92V122.72C47.4894 119.92 46.9694 119.52 45.8894 119.04V118.6L50.2494 116.68L50.6094 116.96V120.36C53.0094 118.44 56.0094 116.72 58.8894 116.72C61.8494 116.72 63.7294 117.92 64.4494 120.48C66.8494 118.56 69.9294 116.72 72.9294 116.72C76.8094 116.72 78.8094 118.84 78.8094 123.36V131.92C78.8094 135.2 79.2094 136.12 80.4094 136.48V137H74.0894V136.48C75.3294 136.12 75.6894 135.2 75.6894 131.92V124.08C75.6894 120.12 74.2494 118.04 71.1294 118.04C68.8494 118.04 66.7694 119.28 64.5694 121C64.7294 121.68 64.8094 122.48 64.8094 123.36V131.92C64.8094 135.2 65.1694 136.12 66.4094 136.48V137H60.0894V136.48C61.2894 136.12 61.6894 135.2 61.6894 131.92V124.08C61.6894 120.12 60.2094 118.04 57.1294 118.04C54.8494 118.04 52.7694 119.28 50.6094 120.92V131.92C50.6094 135.2 50.9694 136.12 52.2094 136.48V137H45.8894ZM82.45 144.72C80.89 144.76 79.73 144.24 79.73 143.6C79.73 142.84 80.73 141.4 82.21 141.4C83.25 141.4 85.41 142 87.25 142.32C88.65 141.12 89.89 139.16 90.89 137.08L84.33 121.68C83.09 118.68 82.09 117.88 81.25 117.52V117H87.29V117.52C86.09 117.88 86.41 118.68 87.69 121.68L92.61 133.12L97.53 121.68C98.65 119.08 98.57 117.8 97.17 117.52V117H101.61V117.52C100.49 117.88 99.45 118.68 98.13 121.68L91.93 136C88.53 143.84 85.01 144.68 82.45 144.72ZM120.725 137.4C116.085 137.4 111.245 134.04 111.245 127.6C111.245 121.28 116.285 116.72 122.125 116.72C125.965 116.72 128.925 117.8 128.925 118.88C128.925 119.8 127.685 121.04 126.405 121.04C125.405 121.04 123.525 119.88 120.325 117.36C116.605 118 114.085 121.32 114.085 125.64C114.085 131.12 117.485 134.88 122.685 134.88C125.765 134.88 127.965 133.48 129.805 131.4L130.165 131.76C128.125 134.56 125.005 137.4 120.725 137.4ZM131.715 137V136.48C132.915 136.12 133.315 135.2 133.315 131.92V110.72C133.315 107.92 132.795 107.52 131.715 107.04V106.6L136.075 104.68L136.435 104.96V131.92C136.435 135.2 136.795 136.12 138.035 136.48V137H131.715ZM151.608 137.4C146.528 137.4 141.128 134.24 141.128 127.28C141.128 121.04 146.128 116.72 151.608 116.72C156.568 116.72 162.048 119.76 162.048 126.88C162.048 133.72 156.328 137.4 151.608 137.4ZM152.808 136.56C157.088 136.56 159.008 133.12 159.008 129.24C159.008 124.08 155.368 117.2 150.128 117.48C146.048 117.64 144.208 121 144.208 125C144.208 130.08 147.488 136.56 152.808 136.56ZM172.79 137.36C169.59 137.36 166.83 136.4 165.51 135.52L165.15 130.68L165.51 130.6C167.19 134.4 170.03 136.68 173.67 136.72C176.15 136.72 177.99 135.24 177.99 133C177.99 130.12 175.19 129.2 172.11 128.2C168.31 127 165.59 125.96 165.59 122.32C165.59 119.16 168.23 116.72 172.87 116.72C175.47 116.72 177.83 117.28 179.07 117.8L179.23 121.88L178.83 121.96C177.55 119.08 174.99 117.24 172.15 117.24C169.43 117.24 167.67 118.56 167.67 120.6C167.67 123.12 170.23 124.16 173.39 125.2C176.43 126.2 180.11 127.12 180.11 131.12C180.11 134.48 177.59 137.32 172.79 137.36ZM192.483 137.4C188.083 137.4 183.003 134.2 183.003 127.6C183.003 121.08 187.923 116.72 193.523 116.72C198.563 116.72 201.483 120 201.603 123.8H185.963C185.883 124.4 185.843 125 185.843 125.64C185.843 131.12 189.243 134.88 194.443 134.88C197.523 134.88 199.723 133.48 201.562 131.4L201.923 131.76C199.883 134.56 196.763 137.4 192.483 137.4ZM186.083 123.28H198.403C198.003 120.6 195.843 117.44 192.203 117.44C188.803 117.4 186.723 119.92 186.083 123.28ZM210.607 137.4C208.087 137.4 206.567 135.84 206.567 131.68V117.56H204.007V117L209.127 112.08H209.687V117H215.767L215.567 117.56H209.687V131.68C209.687 134.4 210.807 135.44 212.527 135.44C213.647 135.44 215.047 134.92 216.367 133.36L216.727 133.72C215.007 135.68 212.967 137.4 210.607 137.4ZM221.277 137.28C220.157 137.28 219.197 136.28 219.197 135.12C219.197 133.96 220.157 133 221.277 133C222.397 133 223.317 133.96 223.317 135.12C223.317 136.28 222.397 137.28 221.277 137.28Z" fill="#96927F"/>
</svg>
