<svg width="917" height="507" viewBox="0 0 917 507" fill="none" xmlns="http://www.w3.org/2000/svg">
<path d="M21.146 33H4.29398V3.784H7.10998V30.536H21.146V33ZM34.4013 33.528C28.1093 33.528 24.2373 29.128 24.2373 21.912C24.2373 14.564 28.1093 10.208 34.4013 10.208C40.6933 10.208 44.5653 14.564 44.5653 21.912C44.5653 29.128 40.6933 33.528 34.4013 33.528ZM34.4013 31.24C39.2853 31.24 41.7933 27.808 41.7933 21.912C41.7933 15.928 39.2853 12.452 34.4013 12.452C29.5173 12.452 27.0093 15.928 27.0093 21.912C27.0093 27.808 29.5173 31.24 34.4013 31.24ZM69.3071 33H66.5791V17.776C66.5791 14.696 64.5551 12.54 60.9031 12.54C56.7231 12.54 53.9071 15.532 53.9071 19.844V33H51.1791V10.692H53.6431V15.224C55.3591 11.572 58.1751 10.208 61.5191 10.208C65.5231 10.208 69.3071 12.364 69.3071 17.336V33ZM92.4339 33.22V31.944L92.6539 27.676C90.8059 31.372 88.0779 32.736 84.7779 32.736C79.8059 32.736 75.7139 29.26 75.7139 21.912C75.7139 13.64 79.8499 10.208 84.7779 10.208C88.0779 10.208 90.8059 11.616 92.6099 15.18V10.692H95.0739V33.176C95.0739 36.96 93.6659 42.416 85.6139 42.416C82.5339 42.416 76.9899 40.964 76.6379 35.2L79.1899 34.936C79.4099 38.588 82.3139 40.216 85.7019 40.216C91.4219 40.216 92.4339 36.74 92.4339 33.22ZM85.1739 30.448C89.6179 30.448 92.3899 27.852 92.3899 21.868C92.3899 15.048 89.6179 12.452 85.1739 12.452C81.3899 12.452 78.4859 15.224 78.4859 21.868C78.4859 27.632 81.3899 30.448 85.1739 30.448ZM106.2 33H103.472V10.692H106.2V33ZM106.332 5.808H103.34V2.332H106.332V5.808ZM132.772 33H130.044V17.776C130.044 14.696 128.02 12.54 124.368 12.54C120.188 12.54 117.372 15.532 117.372 19.844V33H114.644V10.692H117.108V15.224C118.824 11.572 121.64 10.208 124.984 10.208C128.988 10.208 132.772 12.364 132.772 17.336V33ZM155.899 33.22V31.944L156.119 27.676C154.271 31.372 151.543 32.736 148.243 32.736C143.271 32.736 139.179 29.26 139.179 21.912C139.179 13.64 143.315 10.208 148.243 10.208C151.543 10.208 154.271 11.616 156.075 15.18V10.692H158.539V33.176C158.539 36.96 157.131 42.416 149.079 42.416C145.999 42.416 140.455 40.964 140.103 35.2L142.655 34.936C142.875 38.588 145.779 40.216 149.167 40.216C154.887 40.216 155.899 36.74 155.899 33.22ZM148.639 30.448C153.083 30.448 155.855 27.852 155.855 21.868C155.855 15.048 153.083 12.452 148.639 12.452C144.855 12.452 141.951 15.224 141.951 21.868C141.951 27.632 144.855 30.448 148.639 30.448Z" fill="#96927F"/>
<path d="M472.182 33H469.454V12.848H465.89V10.692H469.454V8.008C469.454 3.96 469.938 0.791998 475.658 0.791998C476.274 0.791998 477.242 0.836 477.99 0.967998V2.948H475.878C472.71 2.948 472.182 4.532 472.182 7.788V10.692H477.902V12.848H472.182V33ZM490.479 33.528C484.187 33.528 480.315 29.128 480.315 21.912C480.315 14.564 484.187 10.208 490.479 10.208C496.771 10.208 500.643 14.564 500.643 21.912C500.643 29.128 496.771 33.528 490.479 33.528ZM490.479 31.24C495.363 31.24 497.871 27.808 497.871 21.912C497.871 15.928 495.363 12.452 490.479 12.452C485.595 12.452 483.087 15.928 483.087 21.912C483.087 27.808 485.595 31.24 490.479 31.24ZM509.985 33H507.257V10.692H509.721V15.62C511.041 11.616 513.461 10.208 515.573 10.208C516.057 10.208 516.805 10.252 517.641 10.516V12.848H515.529C512.405 12.848 509.985 15.62 509.985 20.416V33Z" fill="#96927F"/>
<path d="M827.11 33H824.294V3.784H833.842C840.002 3.784 843.874 6.732 843.874 12.452C843.874 17.952 839.87 21.384 833.886 21.384H827.11V33ZM827.11 19.008H833.798C838.022 19.008 840.926 16.852 840.926 12.452C840.926 8.228 838.286 6.248 833.666 6.248H827.11V19.008ZM867.5 31.24V33.088C866.532 33.396 865.52 33.528 864.904 33.528C862.396 33.528 861.428 32.384 861.428 28.952C859.492 32.516 856.368 33.528 853.684 33.528C850.648 33.528 846.512 32.208 846.512 27.324C846.512 21.824 850.912 20.636 855.84 20.416L861.296 20.196V17.38C861.296 14.476 860.284 12.408 855.62 12.408C853.112 12.408 850.164 13.2 849.812 16.588L847.26 16.324C847.656 11.66 852.364 10.208 855.62 10.208C861.516 10.208 864.024 12.936 864.024 16.808V28.16C864.024 30.492 864.2 31.24 865.784 31.24H867.5ZM861.296 23.672V22.088L855.752 22.308C852.1 22.44 849.24 23.54 849.24 27.236C849.24 30.888 852.672 31.284 854.52 31.284C857.908 31.284 861.296 28.732 861.296 23.672ZM875.325 33H872.597V10.692H875.061V15.62C876.381 11.616 878.801 10.208 880.913 10.208C881.397 10.208 882.145 10.252 882.981 10.516V12.848H880.869C877.745 12.848 875.325 15.62 875.325 20.416V33ZM890.493 33H887.765V10.692H890.493V33ZM890.625 5.808H887.633V2.332H890.625V5.808ZM913.545 16.368L911.037 16.588C910.685 12.848 907.913 12.232 905.449 12.232C902.765 12.232 900.213 13.068 900.213 15.84C900.213 22.44 913.809 18.348 913.809 27.236C913.809 31.02 910.641 33.528 905.273 33.528C902.765 33.528 897.309 32.824 896.781 27.148H899.377C899.773 30.36 902.501 31.328 905.317 31.328C908.661 31.328 911.169 30.316 911.169 27.368C911.169 20.636 897.573 24.64 897.573 16.06C897.573 11.968 901.621 10.208 905.405 10.208C908.221 10.208 913.105 10.956 913.545 16.368Z" fill="#96927F"/>
<path d="M5.44598 147.763C3.28598 142.291 1.55798 140.851 0.0459844 140.203V139.267H11.278V140.203C9.11799 140.851 9.62198 142.291 11.782 147.763L25.678 183.403L39.358 147.835C41.158 143.083 40.87 140.707 38.422 140.203V139.267H46.486V140.203C44.542 140.851 42.742 142.291 40.654 147.763L24.31 190.027H22.294L5.44598 147.763ZM48.4114 189.667V188.731C50.6434 188.083 51.2914 186.427 51.2914 180.523V163.963C51.2914 158.923 50.4274 158.203 48.4114 157.339V156.547L56.3314 153.091L56.9074 153.595V180.523C56.9074 186.427 57.6274 188.083 59.7874 188.731V189.667H48.4114ZM53.6674 148.699C51.4354 148.699 49.7074 146.899 49.7074 144.739C49.7074 142.435 51.4354 140.707 53.6674 140.707C55.9714 140.707 57.6274 142.435 57.6274 144.739C57.6274 146.899 55.8994 148.699 53.6674 148.699ZM64.5833 189.667V188.731C66.8153 188.083 67.4633 186.427 67.4633 180.523V163.963C67.4633 158.923 66.5993 158.203 64.5833 157.339V156.547L72.5033 153.091L73.0793 153.595V159.787C77.2553 156.403 82.7993 153.163 88.3433 153.163C95.3993 153.163 99.7193 157.267 99.7193 165.691V180.523C99.7193 186.427 100.367 188.083 102.599 188.731V189.667H91.2233V188.731C93.4553 188.083 94.1033 186.427 94.1033 180.523V167.131C94.1033 159.643 90.9353 155.539 84.5993 155.539C80.6393 155.539 76.7513 157.915 73.0793 160.939V180.523C73.0793 186.427 73.7993 188.083 75.9593 188.731V189.667H64.5833ZM117.934 190.387C113.398 190.387 110.662 187.579 110.662 180.091V154.675H106.054V153.667L115.27 144.811H116.278V153.667H127.222L126.862 154.675H116.278V180.091C116.278 184.987 118.294 186.859 121.39 186.859C123.406 186.859 125.926 185.923 128.302 183.115L128.95 183.763C125.854 187.291 122.182 190.387 117.934 190.387ZM159.244 189.667C157.804 189.667 157.084 188.875 157.084 187.507V174.547C154.852 183.403 148.804 190.387 141.676 190.387C136.348 190.387 131.596 187.147 131.596 180.955C131.596 173.467 139.156 170.659 147.724 168.283L157.084 165.763C156.724 158.779 153.124 155.539 147.004 155.539C142.684 155.539 138.508 157.555 134.908 161.947L134.26 161.371C138.364 156.259 143.62 153.163 149.884 153.163C158.596 153.163 162.628 157.987 162.628 166.123V180.523C162.628 186.427 163.276 188.083 165.508 188.731V189.667H159.244ZM136.996 178.939C136.996 183.619 140.236 186.139 144.34 186.139C152.044 186.139 157.012 176.419 157.084 168.859V166.843V166.699L148.012 169.147C142.684 170.659 136.924 173.035 136.996 178.939ZM178.666 209.611C173.194 209.611 166.93 207.235 166.93 200.755C166.93 196.219 170.602 192.547 176.434 189.019C173.194 188.227 171.178 186.715 171.178 183.619C171.178 180.955 173.554 179.155 176.434 177.283C172.834 175.411 170.098 172.099 170.098 166.771C170.098 159.211 176.938 153.163 184.354 153.163C186.082 153.163 187.954 153.379 189.61 153.883C190.33 152.947 191.194 152.011 192.13 151.291C194.29 149.347 196.882 148.051 200.338 148.051C202.57 148.051 204.082 148.699 204.082 149.779C204.082 151.003 202.57 153.451 199.978 153.451C198.178 153.451 196.09 152.803 192.85 151.795C192.058 152.371 191.266 153.235 190.546 154.243C194.938 155.827 198.538 159.355 198.538 165.547C198.538 173.827 190.258 179.083 184.354 179.083C182.122 179.083 179.602 178.651 177.37 177.715C175.786 178.795 174.778 179.515 174.778 180.883C174.85 182.827 177.226 183.979 182.698 184.267L191.77 184.843C199.042 185.275 203.29 186.283 203.29 191.899C203.29 200.107 190.546 209.611 178.666 209.611ZM185.722 177.931C191.05 177.931 193.354 173.683 193.354 168.787C193.354 162.307 189.178 153.883 182.626 154.243C177.514 154.459 175.354 158.563 175.354 163.603C175.354 169.867 179.098 177.931 185.722 177.931ZM171.754 198.091C171.754 203.275 176.074 206.371 182.77 206.371C191.986 206.371 200.482 200.611 200.482 194.923C200.482 191.539 197.674 190.531 191.698 190.171L181.618 189.667C180.178 189.595 178.81 189.451 177.514 189.235C173.338 192.043 171.754 194.995 171.754 198.091ZM221.787 190.387C213.867 190.387 204.723 184.627 204.723 172.747C204.723 161.011 213.579 153.163 223.659 153.163C232.731 153.163 237.987 159.067 238.203 165.907H210.051C209.907 166.987 209.835 168.067 209.835 169.219C209.835 179.083 215.955 185.851 225.315 185.851C230.859 185.851 234.819 183.331 238.131 179.587L238.779 180.235C235.107 185.275 229.491 190.387 221.787 190.387ZM210.267 164.971H232.443C231.723 160.147 227.835 154.459 221.283 154.459C215.163 154.387 211.419 158.923 210.267 164.971ZM244.547 172.171V171.163H263.339V172.171H244.547ZM269.836 189.667V188.731C271.996 188.083 272.716 186.427 272.716 180.523V142.363C272.716 137.323 271.78 136.603 269.836 135.739V134.947L277.684 131.491L278.332 131.995V180.523C278.332 186.427 278.98 188.083 281.212 188.731V189.667H269.836ZM305.642 190.387C296.498 190.387 286.778 184.699 286.778 172.171C286.778 160.939 295.778 153.163 305.642 153.163C314.57 153.163 324.434 158.635 324.434 171.451C324.434 183.763 314.138 190.387 305.642 190.387ZM307.802 188.875C315.506 188.875 318.962 182.683 318.962 175.699C318.962 166.411 312.41 154.027 302.978 154.531C295.634 154.819 292.322 160.867 292.322 168.067C292.322 177.211 298.226 188.875 307.802 188.875ZM330.42 162.091C328.188 156.691 326.892 155.251 325.38 154.603V153.667H335.748V154.603C333.588 155.251 334.164 156.691 336.468 162.091L345.9 184.411L354.396 162.235C356.196 157.483 355.908 155.107 353.388 154.603V153.667H360.804V154.603C358.788 155.251 357.636 156.691 355.548 162.235L344.964 189.667H341.94L330.42 162.091ZM362.779 189.667V188.731C365.011 188.083 365.659 186.427 365.659 180.523V163.963C365.659 158.923 364.795 158.203 362.779 157.339V156.547L370.699 153.091L371.275 153.595V180.523C371.275 186.427 371.995 188.083 374.155 188.731V189.667H362.779ZM368.035 148.699C365.803 148.699 364.075 146.899 364.075 144.739C364.075 142.435 365.803 140.707 368.035 140.707C370.339 140.707 371.995 142.435 371.995 144.739C371.995 146.899 370.267 148.699 368.035 148.699ZM378.95 189.667V188.731C381.182 188.083 381.83 186.427 381.83 180.523V163.963C381.83 158.923 380.966 158.203 378.95 157.339V156.547L386.87 153.091L387.446 153.595V159.787C391.622 156.403 397.166 153.163 402.71 153.163C409.766 153.163 414.086 157.267 414.086 165.691V180.523C414.086 186.427 414.734 188.083 416.966 188.731V189.667H405.59V188.731C407.822 188.083 408.47 186.427 408.47 180.523V167.131C408.47 159.643 405.302 155.539 398.966 155.539C395.006 155.539 391.118 157.915 387.446 160.939V180.523C387.446 186.427 388.166 188.083 390.326 188.731V189.667H378.95ZM431.509 209.611C426.037 209.611 419.773 207.235 419.773 200.755C419.773 196.219 423.445 192.547 429.277 189.019C426.037 188.227 424.021 186.715 424.021 183.619C424.021 180.955 426.397 179.155 429.277 177.283C425.677 175.411 422.941 172.099 422.941 166.771C422.941 159.211 429.781 153.163 437.197 153.163C438.925 153.163 440.797 153.379 442.453 153.883C443.173 152.947 444.037 152.011 444.973 151.291C447.133 149.347 449.725 148.051 453.181 148.051C455.413 148.051 456.925 148.699 456.925 149.779C456.925 151.003 455.413 153.451 452.821 153.451C451.021 153.451 448.933 152.803 445.693 151.795C444.901 152.371 444.109 153.235 443.389 154.243C447.781 155.827 451.381 159.355 451.381 165.547C451.381 173.827 443.101 179.083 437.197 179.083C434.965 179.083 432.445 178.651 430.213 177.715C428.629 178.795 427.621 179.515 427.621 180.883C427.693 182.827 430.069 183.979 435.541 184.267L444.613 184.843C451.885 185.275 456.133 186.283 456.133 191.899C456.133 200.107 443.389 209.611 431.509 209.611ZM438.565 177.931C443.893 177.931 446.197 173.683 446.197 168.787C446.197 162.307 442.021 153.883 435.469 154.243C430.357 154.459 428.197 158.563 428.197 163.603C428.197 169.867 431.941 177.931 438.565 177.931ZM424.597 198.091C424.597 203.275 428.917 206.371 435.613 206.371C444.829 206.371 453.325 200.611 453.325 194.923C453.325 191.539 450.517 190.531 444.541 190.171L434.461 189.667C433.021 189.595 431.653 189.451 430.357 189.235C426.181 192.043 424.597 194.995 424.597 198.091ZM527.206 189.667V188.659C529.582 187.867 530.086 185.707 530.086 180.523V152.731C530.086 143.947 528.502 141.427 525.19 140.275V139.267H535.99L553.774 168.787L570.694 139.267H580.918V140.275C577.606 141.427 576.022 143.947 576.022 152.731V180.523C576.022 185.707 576.526 187.867 578.902 188.659V189.667H565.51V188.659C567.886 187.867 568.39 185.707 568.39 180.523V145.675L551.11 175.987H549.454L531.382 146.323V176.203C531.382 184.987 533.11 187.507 536.854 188.659V189.667H527.206ZM586.315 189.667V188.659C588.691 187.867 589.195 185.707 589.195 180.523V163.963C589.195 159.715 588.115 158.995 586.315 158.203V157.195L595.819 153.019L596.539 153.595V180.523C596.539 185.707 597.043 187.867 599.419 188.659V189.667H586.315ZM592.435 150.571C589.699 150.571 587.539 148.411 587.539 145.675C587.539 142.867 589.699 140.707 592.435 140.707C595.315 140.707 597.331 142.867 597.331 145.675C597.331 148.411 595.171 150.571 592.435 150.571ZM623.052 190.387C613.692 190.387 603.828 184.843 603.828 172.603C603.828 160.939 613.188 153.163 623.052 153.163C631.98 153.163 642.204 158.419 642.204 171.091C642.204 183.403 631.548 190.387 623.052 190.387ZM625.572 188.803C632.628 188.803 634.932 182.683 634.932 176.563C634.932 167.419 628.668 153.667 619.38 154.603C613.116 155.251 611.028 161.011 611.028 167.203C611.028 175.699 616.068 188.803 625.572 188.803ZM715.671 189.667V188.659C718.047 187.867 718.551 185.707 718.551 180.523V148.411C718.551 143.227 718.047 141.067 715.671 140.275V139.267H729.063V140.275C726.687 141.067 726.183 143.227 726.183 148.411V180.523C726.183 185.707 726.687 187.867 729.063 188.659V189.667H715.671ZM734.483 189.667V188.659C736.859 187.867 737.363 185.707 737.363 180.523V163.963C737.363 159.715 736.283 158.995 734.483 158.203V157.195L743.987 153.019L744.707 153.595V159.643C748.667 156.403 753.851 153.163 759.467 153.163C764.507 153.163 767.819 155.107 769.187 159.715C773.147 156.475 778.403 153.163 784.091 153.163C790.715 153.163 794.459 156.619 794.459 165.043V180.523C794.459 185.707 794.963 187.867 797.339 188.659V189.667H784.235V188.659C786.611 187.867 787.115 185.707 787.115 180.523V166.339C787.115 159.859 785.027 156.043 779.699 156.043C776.315 156.043 773.219 157.699 769.403 160.723C769.691 162.019 769.835 163.459 769.835 165.043V180.523C769.835 185.707 770.339 187.867 772.715 188.659V189.667H759.611V188.659C761.987 187.867 762.491 185.707 762.491 180.523V166.339C762.491 159.859 760.403 156.043 755.075 156.043C751.691 156.043 748.595 157.699 744.707 160.867V180.523C744.707 185.707 745.211 187.867 747.587 188.659V189.667H734.483ZM827.94 189.667C826.068 189.667 825.06 188.659 825.06 186.787V174.907C823.044 183.259 817.86 190.387 810.372 190.387C805.044 190.387 800.58 187.003 800.58 180.955C800.58 173.539 808.14 170.659 817.068 168.139L825.06 165.835C824.916 158.707 821.028 155.971 815.7 155.971C811.668 155.971 807.708 157.699 804.036 162.091L803.316 161.443C807.348 156.475 812.892 153.163 819.444 153.163C828.156 153.163 832.26 157.843 832.26 166.627V180.523C832.26 185.707 832.764 187.867 835.14 188.659V189.667H827.94ZM807.276 178.435C807.276 183.187 810.66 185.131 813.972 185.131C821.028 185.131 824.988 175.195 825.06 168.715V166.843L817.356 169.075C813.972 170.011 807.276 172.459 807.276 178.435ZM854.168 190.531C845.024 190.387 838.832 181.963 838.832 173.035C838.832 162.019 846.392 153.235 858.92 153.235C861.944 153.235 864.464 153.955 866.624 155.035V142.363C866.624 138.115 865.544 137.395 863.744 136.603V135.595L873.248 131.419L873.968 131.995V180.523C873.968 185.707 874.472 187.867 876.848 188.659V189.667H869.504C867.632 189.667 866.624 188.659 866.624 186.787V183.763C863.888 186.931 859.568 190.675 854.168 190.531ZM845.888 167.203C845.888 174.043 848.264 186.211 858.632 186.211C861.8 186.211 864.536 184.483 866.624 182.251V166.339C866.624 161.011 861.944 154.747 855.896 154.747C847.976 154.747 845.888 161.515 845.888 167.203ZM907.674 189.667C905.802 189.667 904.794 188.659 904.794 186.787V174.907C902.778 183.259 897.594 190.387 890.106 190.387C884.778 190.387 880.314 187.003 880.314 180.955C880.314 173.539 887.874 170.659 896.802 168.139L904.794 165.835C904.65 158.707 900.762 155.971 895.434 155.971C891.402 155.971 887.442 157.699 883.77 162.091L883.05 161.443C887.082 156.475 892.626 153.163 899.178 153.163C907.89 153.163 911.994 157.843 911.994 166.627V180.523C911.994 185.707 912.498 187.867 914.874 188.659V189.667H907.674ZM887.01 178.435C887.01 183.187 890.394 185.131 893.706 185.131C900.762 185.131 904.722 175.195 904.794 168.715V166.843L897.09 169.075C893.706 170.011 887.01 172.459 887.01 178.435ZM18.694 290.667H4.00598V289.731C6.16598 289.083 6.88598 287.427 6.88598 281.523V249.411C6.88598 243.507 6.16598 241.851 4.00598 241.203V240.267H20.854C31.942 240.267 36.478 243.939 36.478 249.771C36.478 254.667 33.31 259.131 25.102 260.643C36.838 261.219 42.022 267.051 42.094 274.107C42.238 282.171 36.19 290.667 18.694 290.667ZM19.342 289.587C31.078 289.587 35.542 283.899 35.542 275.907C35.542 267.627 30.934 261.579 20.134 261.579H12.79V283.323C12.79 288.507 13.438 289.587 16.534 289.587H19.342ZM19.486 260.499C26.614 260.499 29.926 256.323 29.926 251.067C29.926 245.091 25.678 241.347 18.262 241.347H12.79V260.499H19.486ZM46.7239 290.667V289.731C48.9559 289.083 49.6039 287.427 49.6039 281.523V264.963C49.6039 259.923 48.6679 259.203 46.7239 258.339V257.547L54.5719 254.091L55.2199 254.595V263.595C56.3719 260.787 58.3159 258.339 60.4759 256.755C62.7079 255.099 65.2279 254.163 68.6839 254.163C71.5639 254.163 73.3639 254.883 73.3639 256.107C73.3639 257.691 71.7799 260.211 69.1879 260.211C67.2439 260.211 64.4359 259.419 60.1879 258.195C58.0999 259.707 55.5079 263.739 55.2919 267.195H55.2199V281.523C55.2199 287.427 55.8679 289.083 58.0999 289.731V290.667H46.7239ZM76.9583 290.667V289.731C79.1903 289.083 79.8383 287.427 79.8383 281.523V264.963C79.8383 259.923 78.9743 259.203 76.9583 258.339V257.547L84.8783 254.091L85.4543 254.595V281.523C85.4543 287.427 86.1743 289.083 88.3343 289.731V290.667H76.9583ZM82.2143 249.699C79.9823 249.699 78.2543 247.899 78.2543 245.739C78.2543 243.435 79.9823 241.707 82.2143 241.707C84.5183 241.707 86.1743 243.435 86.1743 245.739C86.1743 247.899 84.4463 249.699 82.2143 249.699ZM93.1302 290.667V289.731C95.3622 289.083 96.0102 287.427 96.0102 281.523V264.963C96.0102 259.923 95.1462 259.203 93.1302 258.339V257.547L101.05 254.091L101.626 254.595V260.787C105.802 257.403 111.346 254.163 116.89 254.163C123.946 254.163 128.266 258.267 128.266 266.691V281.523C128.266 287.427 128.914 289.083 131.146 289.731V290.667H119.77V289.731C122.002 289.083 122.65 287.427 122.65 281.523V268.131C122.65 260.643 119.482 256.539 113.146 256.539C109.186 256.539 105.298 258.915 101.626 261.939V281.523C101.626 287.427 102.346 289.083 104.506 289.731V290.667H93.1302ZM145.689 310.611C140.217 310.611 133.953 308.235 133.953 301.755C133.953 297.219 137.625 293.547 143.457 290.019C140.217 289.227 138.201 287.715 138.201 284.619C138.201 281.955 140.577 280.155 143.457 278.283C139.857 276.411 137.121 273.099 137.121 267.771C137.121 260.211 143.961 254.163 151.377 254.163C153.105 254.163 154.977 254.379 156.633 254.883C157.353 253.947 158.217 253.011 159.153 252.291C161.313 250.347 163.905 249.051 167.361 249.051C169.593 249.051 171.105 249.699 171.105 250.779C171.105 252.003 169.593 254.451 167.001 254.451C165.201 254.451 163.113 253.803 159.873 252.795C159.081 253.371 158.289 254.235 157.569 255.243C161.961 256.827 165.561 260.355 165.561 266.547C165.561 274.827 157.281 280.083 151.377 280.083C149.145 280.083 146.625 279.651 144.393 278.715C142.809 279.795 141.801 280.515 141.801 281.883C141.873 283.827 144.249 284.979 149.721 285.267L158.793 285.843C166.065 286.275 170.313 287.283 170.313 292.899C170.313 301.107 157.569 310.611 145.689 310.611ZM152.745 278.931C158.073 278.931 160.377 274.683 160.377 269.787C160.377 263.307 156.201 254.883 149.649 255.243C144.537 255.459 142.377 259.563 142.377 264.603C142.377 270.867 146.121 278.931 152.745 278.931ZM138.777 299.091C138.777 304.275 143.097 307.371 149.793 307.371C159.009 307.371 167.505 301.611 167.505 295.923C167.505 292.539 164.697 291.531 158.721 291.171L148.641 290.667C147.201 290.595 145.833 290.451 144.537 290.235C140.361 293.043 138.777 295.995 138.777 299.091ZM186.833 291.315C181.073 291.315 176.105 289.587 173.729 288.003L173.081 279.291L173.729 279.147C176.753 285.987 181.865 290.091 188.417 290.163C192.881 290.163 196.193 287.499 196.193 283.467C196.193 278.283 191.153 276.627 185.609 274.827C178.769 272.667 173.873 270.795 173.873 264.243C173.873 258.555 178.625 254.163 186.977 254.163C191.657 254.163 195.905 255.171 198.137 256.107L198.425 263.451L197.705 263.595C195.401 258.411 190.793 255.099 185.681 255.099C180.785 255.099 177.617 257.475 177.617 261.147C177.617 265.683 182.225 267.555 187.913 269.427C193.385 271.227 200.009 272.883 200.009 280.083C200.009 286.131 195.473 291.243 186.833 291.315ZM273.545 290.667V289.731C275.777 289.083 276.425 287.427 276.425 281.523V241.419H272.897C266.417 241.419 263.609 243.147 261.161 248.331L260.369 248.187L260.801 240.267H297.881L298.313 248.187L297.521 248.331C295.073 243.147 292.265 241.419 285.785 241.419H282.401V281.523C282.401 287.427 283.049 289.083 285.281 289.731V290.667H273.545ZM301.45 290.667V289.731C303.682 289.083 304.33 287.427 304.33 281.523V243.363C304.33 238.323 303.394 237.603 301.45 236.739V235.947L309.298 232.491L309.946 232.995V260.787C314.122 257.403 319.666 254.163 325.21 254.163C332.266 254.163 336.586 258.267 336.586 266.691V281.523C336.586 287.427 337.234 289.083 339.466 289.731V290.667H328.09V289.731C330.322 289.083 330.97 287.427 330.97 281.523V268.131C330.97 260.643 327.802 256.539 321.466 256.539C317.506 256.539 313.618 258.915 309.946 261.939V281.523C309.946 287.427 310.594 289.083 312.826 289.731V290.667H301.45ZM360.857 291.387C352.937 291.387 343.793 285.627 343.793 273.747C343.793 262.011 352.649 254.163 362.729 254.163C371.801 254.163 377.057 260.067 377.273 266.907H349.121C348.977 267.987 348.905 269.067 348.905 270.219C348.905 280.083 355.025 286.851 364.385 286.851C369.929 286.851 373.889 284.331 377.201 280.587L377.849 281.235C374.177 286.275 368.561 291.387 360.857 291.387ZM349.337 265.971H371.513C370.793 261.147 366.905 255.459 360.353 255.459C354.233 255.387 350.489 259.923 349.337 265.971ZM475.635 290.667H440.139V289.731C442.299 289.083 443.019 287.427 443.019 281.523V249.411C443.019 243.507 442.299 241.851 440.139 241.203V240.267H473.619L474.411 249.627L473.619 249.843C471.099 243.507 466.851 241.347 459.507 241.347H448.923V263.163H458.139C466.347 263.163 468.435 261.507 469.299 258.267H470.163V269.139H469.299C468.435 265.899 466.347 264.243 458.139 264.243H448.923V286.347C448.923 288.435 450.075 289.587 452.163 289.587H461.523C468.435 289.587 472.827 287.643 475.419 280.947L476.211 281.091L475.635 290.667ZM495.137 291.315C489.377 291.315 484.409 289.587 482.033 288.003L481.385 279.291L482.033 279.147C485.057 285.987 490.169 290.091 496.721 290.163C501.185 290.163 504.497 287.499 504.497 283.467C504.497 278.283 499.457 276.627 493.913 274.827C487.073 272.667 482.177 270.795 482.177 264.243C482.177 258.555 486.929 254.163 495.281 254.163C499.961 254.163 504.209 255.171 506.441 256.107L506.729 263.451L506.009 263.595C503.705 258.411 499.097 255.099 493.985 255.099C489.089 255.099 485.921 257.475 485.921 261.147C485.921 265.683 490.529 267.555 496.217 269.427C501.689 271.227 508.313 272.883 508.313 280.083C508.313 286.131 503.777 291.243 495.137 291.315ZM527.2 291.315C521.44 291.315 516.472 289.587 514.096 288.003L513.448 279.291L514.096 279.147C517.12 285.987 522.232 290.091 528.784 290.163C533.248 290.163 536.56 287.499 536.56 283.467C536.56 278.283 531.52 276.627 525.976 274.827C519.136 272.667 514.24 270.795 514.24 264.243C514.24 258.555 518.992 254.163 527.344 254.163C532.024 254.163 536.272 255.171 538.504 256.107L538.792 263.451L538.072 263.595C535.768 258.411 531.16 255.099 526.048 255.099C521.152 255.099 517.984 257.475 517.984 261.147C517.984 265.683 522.592 267.555 528.28 269.427C533.752 271.227 540.376 272.883 540.376 280.083C540.376 286.131 535.84 291.243 527.2 291.315ZM562.646 291.387C554.726 291.387 545.582 285.627 545.582 273.747C545.582 262.011 554.438 254.163 564.518 254.163C573.59 254.163 578.846 260.067 579.062 266.907H550.91C550.766 267.987 550.694 269.067 550.694 270.219C550.694 280.083 556.814 286.851 566.174 286.851C571.718 286.851 575.678 284.331 578.99 280.587L579.638 281.235C575.966 286.275 570.35 291.387 562.646 291.387ZM551.126 265.971H573.302C572.582 261.147 568.694 255.459 562.142 255.459C556.022 255.387 552.278 259.923 551.126 265.971ZM583.966 290.667V289.731C586.198 289.083 586.846 287.427 586.846 281.523V264.963C586.846 259.923 585.982 259.203 583.966 258.339V257.547L591.886 254.091L592.462 254.595V260.787C596.638 257.403 602.182 254.163 607.726 254.163C614.782 254.163 619.102 258.267 619.102 266.691V281.523C619.102 287.427 619.75 289.083 621.982 289.731V290.667H610.606V289.731C612.838 289.083 613.486 287.427 613.486 281.523V268.131C613.486 260.643 610.318 256.539 603.982 256.539C600.022 256.539 596.134 258.915 592.462 261.939V281.523C592.462 287.427 593.182 289.083 595.342 289.731V290.667H583.966ZM643.365 291.387C635.013 291.387 626.301 285.339 626.301 273.747C626.301 262.371 635.373 254.163 645.885 254.163C652.797 254.163 658.125 256.107 658.125 258.051C658.125 259.707 655.893 261.939 653.589 261.939C651.789 261.939 648.405 259.851 642.645 255.315C635.949 256.467 631.413 262.443 631.413 270.219C631.413 280.083 637.533 286.851 646.893 286.851C652.437 286.851 656.397 284.331 659.709 280.587L660.357 281.235C656.685 286.275 651.069 291.387 643.365 291.387ZM680.771 291.387C672.851 291.387 663.707 285.627 663.707 273.747C663.707 262.011 672.563 254.163 682.643 254.163C691.715 254.163 696.971 260.067 697.187 266.907H669.035C668.891 267.987 668.819 269.067 668.819 270.219C668.819 280.083 674.939 286.851 684.299 286.851C689.843 286.851 693.803 284.331 697.115 280.587L697.763 281.235C694.091 286.275 688.475 291.387 680.771 291.387ZM669.251 265.971H691.427C690.707 261.147 686.819 255.459 680.267 255.459C674.147 255.387 670.403 259.923 669.251 265.971ZM777.837 291.387C768.693 291.387 758.973 285.699 758.973 273.171C758.973 261.939 767.973 254.163 777.837 254.163C786.765 254.163 796.629 259.635 796.629 272.451C796.629 284.763 786.333 291.387 777.837 291.387ZM779.997 289.875C787.701 289.875 791.157 283.683 791.157 276.699C791.157 267.411 784.605 255.027 775.173 255.531C767.829 255.819 764.517 261.867 764.517 269.067C764.517 278.211 770.421 289.875 779.997 289.875ZM802.501 290.667V289.731C804.661 289.083 805.381 287.427 805.381 281.523V256.179H801.205L801.565 255.171H805.381C805.957 244.443 815.821 234.507 827.557 234.507C830.797 234.507 832.453 235.155 832.453 236.379C832.453 237.675 830.653 240.555 827.701 240.555C824.461 240.555 821.365 239.547 817.261 238.107C814.813 239.475 810.997 241.779 810.997 250.851V255.171H820.429L819.997 256.179H810.997V281.523C810.997 287.427 811.645 289.083 813.877 289.731V290.667H802.501ZM908.322 290.667C906.882 290.667 906.162 289.875 906.162 288.507V275.547C903.93 284.403 897.882 291.387 890.754 291.387C885.426 291.387 880.674 288.147 880.674 281.955C880.674 274.467 888.234 271.659 896.802 269.283L906.162 266.763C905.802 259.779 902.202 256.539 896.082 256.539C891.762 256.539 887.586 258.555 883.986 262.947L883.338 262.371C887.442 257.259 892.698 254.163 898.962 254.163C907.674 254.163 911.706 258.987 911.706 267.123V281.523C911.706 287.427 912.354 289.083 914.586 289.731V290.667H908.322ZM886.074 279.939C886.074 284.619 889.314 287.139 893.418 287.139C901.122 287.139 906.09 277.419 906.162 269.859V267.843V267.699L897.09 270.147C891.762 271.659 886.002 274.035 886.074 279.939ZM4.00598 391.667V390.731C6.16598 390.083 6.88598 388.427 6.88598 382.523V350.411C6.88598 344.507 6.16598 342.851 4.00598 342.203V341.267H18.622C33.526 341.267 38.278 348.467 38.278 355.451C38.278 365.027 31.294 371.723 17.902 371.723H12.79V382.523C12.79 388.427 13.438 390.083 15.67 390.731V391.667H4.00598ZM17.758 370.643C26.974 370.643 31.942 365.603 31.942 357.107C31.942 349.403 27.406 342.347 15.814 342.347C14.806 342.347 13.654 342.419 12.79 342.491V370.643H17.758ZM65.9395 391.667C64.4995 391.667 63.7795 390.875 63.7795 389.507V376.547C61.5475 385.403 55.4995 392.387 48.3715 392.387C43.0435 392.387 38.2915 389.147 38.2915 382.955C38.2915 375.467 45.8515 372.659 54.4195 370.283L63.7795 367.763C63.4195 360.779 59.8195 357.539 53.6995 357.539C49.3795 357.539 45.2035 359.555 41.6035 363.947L40.9555 363.371C45.0595 358.259 50.3155 355.163 56.5795 355.163C65.2915 355.163 69.3235 359.987 69.3235 368.123V382.523C69.3235 388.427 69.9715 390.083 72.2035 390.731V391.667H65.9395ZM43.6915 380.939C43.6915 385.619 46.9315 388.139 51.0355 388.139C58.7395 388.139 63.7075 378.419 63.7795 370.859V368.843V368.699L54.7075 371.147C49.3795 372.659 43.6195 375.035 43.6915 380.939ZM76.2552 391.667V390.731C78.4872 390.083 79.1352 388.427 79.1352 382.523V365.963C79.1352 360.923 78.1992 360.203 76.2552 359.339V358.547L84.1032 355.091L84.7512 355.595V364.595C85.9032 361.787 87.8472 359.339 90.0072 357.755C92.2392 356.099 94.7592 355.163 98.2152 355.163C101.095 355.163 102.895 355.883 102.895 357.107C102.895 358.691 101.311 361.211 98.7192 361.211C96.7752 361.211 93.9672 360.419 89.7192 359.195C87.6312 360.707 85.0392 364.739 84.8232 368.195H84.7512V382.523C84.7512 388.427 85.3992 390.083 87.6312 390.731V391.667H76.2552ZM106.49 391.667V390.731C108.722 390.083 109.37 388.427 109.37 382.523V365.963C109.37 360.923 108.506 360.203 106.49 359.339V358.547L114.41 355.091L114.986 355.595V382.523C114.986 388.427 115.706 390.083 117.866 390.731V391.667H106.49ZM111.746 350.699C109.514 350.699 107.786 348.899 107.786 346.739C107.786 344.435 109.514 342.707 111.746 342.707C114.05 342.707 115.706 344.435 115.706 346.739C115.706 348.899 113.978 350.699 111.746 350.699ZM136.629 392.315C130.869 392.315 125.901 390.587 123.525 389.003L122.877 380.291L123.525 380.147C126.549 386.987 131.661 391.091 138.213 391.163C142.677 391.163 145.989 388.499 145.989 384.467C145.989 379.283 140.949 377.627 135.405 375.827C128.565 373.667 123.669 371.795 123.669 365.243C123.669 359.555 128.421 355.163 136.773 355.163C141.453 355.163 145.701 356.171 147.933 357.107L148.221 364.451L147.501 364.595C145.197 359.411 140.589 356.099 135.477 356.099C130.581 356.099 127.413 358.475 127.413 362.147C127.413 366.683 132.021 368.555 137.709 370.427C143.181 372.227 149.805 373.883 149.805 381.083C149.805 387.131 145.269 392.243 136.629 392.315ZM154.724 391.667V390.731C156.956 390.083 157.604 388.427 157.604 382.523V365.963C157.604 360.923 156.74 360.203 154.724 359.339V358.547L162.644 355.091L163.22 355.595V382.523C163.22 388.427 163.94 390.083 166.1 390.731V391.667H154.724ZM159.98 350.699C157.748 350.699 156.02 348.899 156.02 346.739C156.02 344.435 157.748 342.707 159.98 342.707C162.284 342.707 163.94 344.435 163.94 346.739C163.94 348.899 162.212 350.699 159.98 350.699ZM188.248 392.387C180.328 392.387 171.184 386.627 171.184 374.747C171.184 363.011 180.04 355.163 190.12 355.163C199.192 355.163 204.448 361.067 204.664 367.907H176.512C176.368 368.987 176.296 370.067 176.296 371.219C176.296 381.083 182.416 387.851 191.776 387.851C197.32 387.851 201.28 385.331 204.592 381.587L205.24 382.235C201.568 387.275 195.952 392.387 188.248 392.387ZM176.728 366.971H198.904C198.184 362.147 194.296 356.459 187.744 356.459C181.624 356.387 177.88 360.923 176.728 366.971ZM209.568 391.667V390.731C211.8 390.083 212.448 388.427 212.448 382.523V365.963C212.448 360.923 211.584 360.203 209.568 359.339V358.547L217.488 355.091L218.064 355.595V361.787C222.24 358.403 227.784 355.163 233.328 355.163C240.384 355.163 244.704 359.267 244.704 367.691V382.523C244.704 388.427 245.352 390.083 247.584 390.731V391.667H236.208V390.731C238.44 390.083 239.088 388.427 239.088 382.523V369.131C239.088 361.643 235.92 357.539 229.584 357.539C225.624 357.539 221.736 359.915 218.064 362.939V382.523C218.064 388.427 218.784 390.083 220.944 390.731V391.667H209.568ZM251.615 391.667V390.731C253.847 390.083 254.495 388.427 254.495 382.523V365.963C254.495 360.923 253.631 360.203 251.615 359.339V358.547L259.535 355.091L260.111 355.595V361.787C264.287 358.403 269.831 355.163 275.375 355.163C282.431 355.163 286.751 359.267 286.751 367.691V382.523C286.751 388.427 287.399 390.083 289.631 390.731V391.667H278.255V390.731C280.487 390.083 281.135 388.427 281.135 382.523V369.131C281.135 361.643 277.967 357.539 271.631 357.539C267.671 357.539 263.783 359.915 260.111 362.939V382.523C260.111 388.427 260.831 390.083 262.991 390.731V391.667H251.615ZM311.013 392.387C303.093 392.387 293.949 386.627 293.949 374.747C293.949 363.011 302.805 355.163 312.885 355.163C321.957 355.163 327.213 361.067 327.429 367.907H299.277C299.133 368.987 299.061 370.067 299.061 371.219C299.061 381.083 305.181 387.851 314.541 387.851C320.085 387.851 324.045 385.331 327.357 381.587L328.005 382.235C324.333 387.275 318.717 392.387 311.013 392.387ZM299.493 366.971H321.669C320.949 362.147 317.061 356.459 310.509 356.459C304.389 356.387 300.645 360.923 299.493 366.971ZM386.986 392.387C382.45 392.387 379.714 389.579 379.714 382.091V356.675H375.106V355.667L384.322 346.811H385.33V355.667H396.274L395.914 356.675H385.33V382.091C385.33 386.987 387.346 388.859 390.442 388.859C392.458 388.859 394.978 387.923 397.354 385.115L398.002 385.763C394.906 389.291 391.234 392.387 386.986 392.387ZM418.389 392.387C409.245 392.387 399.525 386.699 399.525 374.171C399.525 362.939 408.525 355.163 418.389 355.163C427.317 355.163 437.181 360.635 437.181 373.451C437.181 385.763 426.885 392.387 418.389 392.387ZM420.549 390.875C428.253 390.875 431.709 384.683 431.709 377.699C431.709 368.411 425.157 356.027 415.725 356.531C408.381 356.819 405.069 362.867 405.069 370.067C405.069 379.211 410.973 390.875 420.549 390.875ZM520.746 391.667H487.266V390.731C489.426 390.083 490.146 388.427 490.146 382.523V350.411C490.146 344.507 489.426 342.851 487.266 342.203V341.267H498.93V342.203C496.698 342.851 496.05 344.507 496.05 350.411V387.275C496.05 389.363 497.202 390.515 499.29 390.515H507.858C514.77 390.515 517.938 388.787 520.458 383.387L521.25 383.531L520.746 391.667ZM524.992 391.667V390.731C527.224 390.083 527.872 388.427 527.872 382.523V365.963C527.872 360.923 527.008 360.203 524.992 359.339V358.547L532.912 355.091L533.488 355.595V382.523C533.488 388.427 534.208 390.083 536.368 390.731V391.667H524.992ZM530.248 350.699C528.016 350.699 526.288 348.899 526.288 346.739C526.288 344.435 528.016 342.707 530.248 342.707C532.552 342.707 534.208 344.435 534.208 346.739C534.208 348.899 532.48 350.699 530.248 350.699ZM541.668 391.667V390.731C543.828 390.083 544.548 388.427 544.548 382.523V357.179H540.372L540.732 356.171H544.548C545.124 345.443 554.988 335.507 566.724 335.507C569.964 335.507 571.62 336.155 571.62 337.379C571.62 338.675 569.82 341.555 566.868 341.555C563.628 341.555 560.532 340.547 556.428 339.107C553.98 340.475 550.164 342.779 550.164 351.851V356.171H559.596L559.164 357.179H550.164V382.523C550.164 388.427 550.812 390.083 553.044 390.731V391.667H541.668ZM577.852 392.387C569.932 392.387 560.788 386.627 560.788 374.747C560.788 363.011 569.644 355.163 579.724 355.163C588.796 355.163 594.052 361.067 594.268 367.907H566.116C565.972 368.987 565.9 370.067 565.9 371.219C565.9 381.083 572.02 387.851 581.38 387.851C586.924 387.851 590.884 385.331 594.196 381.587L594.844 382.235C591.172 387.275 585.556 392.387 577.852 392.387ZM566.332 366.971H588.508C587.788 362.147 583.9 356.459 577.348 356.459C571.228 356.387 567.484 360.923 566.332 366.971ZM653.753 391.667V390.659C656.129 389.867 656.633 387.707 656.633 382.523V342.563H654.401C647.993 342.563 644.753 344.363 642.089 350.123L641.225 349.979L641.657 341.267H679.169L679.601 349.979L678.737 350.123C676.073 344.363 672.833 342.563 666.425 342.563H664.337V382.523C664.337 387.707 664.841 389.867 667.217 390.659V391.667H653.753ZM681.946 391.667V390.659C684.322 389.867 684.826 387.707 684.826 382.523V344.363C684.826 340.115 683.746 339.395 681.946 338.603V337.595L691.45 333.419L692.17 333.995V361.643C696.13 358.403 701.314 355.163 706.93 355.163C713.554 355.163 718.018 358.619 718.018 367.043V382.523C718.018 387.707 718.522 389.867 720.898 390.659V391.667H707.794V390.659C710.17 389.867 710.674 387.707 710.674 382.523V368.339C710.674 361.859 707.866 358.043 702.538 358.043C699.154 358.043 696.058 359.699 692.17 362.867V382.523C692.17 387.707 692.674 389.867 695.05 390.659V391.667H681.946ZM724.358 391.667V390.659C726.734 389.867 727.238 387.707 727.238 382.523V365.963C727.238 361.715 726.158 360.995 724.358 360.203V359.195L733.862 355.019L734.582 355.595V364.307C735.662 361.787 737.534 359.555 739.838 357.971C742.502 356.099 745.238 355.163 748.694 355.163C751.142 355.163 753.302 355.811 753.302 357.323C753.302 358.907 751.718 362.003 748.406 362.003C746.39 362.003 743.654 361.283 739.046 359.843C737.246 361.355 734.798 364.595 734.582 368.195V382.523C734.582 387.707 735.086 389.867 737.462 390.659V391.667H724.358ZM772.767 392.387C763.407 392.387 753.543 386.843 753.543 374.603C753.543 362.939 762.903 355.163 772.767 355.163C781.695 355.163 791.919 360.419 791.919 373.091C791.919 385.403 781.263 392.387 772.767 392.387ZM775.287 390.803C782.343 390.803 784.647 384.683 784.647 378.563C784.647 369.419 778.383 355.667 769.095 356.603C762.831 357.251 760.743 363.011 760.743 369.203C760.743 377.699 765.783 390.803 775.287 390.803ZM810.024 392.387C802.392 392.387 799.224 387.707 799.224 378.923V365.963C799.224 361.715 798.144 360.995 796.344 360.203V359.195L805.848 355.019L806.568 355.595V377.987C806.568 385.691 807.792 389.507 813.336 389.507C816.576 389.507 820.104 387.563 823.632 384.035V365.963C823.632 361.715 822.552 360.995 820.752 360.203V359.195L830.256 355.019L830.976 355.595V382.523C830.976 387.707 831.48 389.867 833.856 390.659V391.667H826.512C824.64 391.667 823.632 390.659 823.632 388.787V385.547C819.528 389.507 814.56 392.387 810.024 392.387ZM848.565 411.611C844.173 411.611 837.189 409.667 837.189 402.899C837.189 399.011 840.429 395.267 846.045 391.883C843.021 391.019 841.221 389.363 841.221 386.339C841.221 383.675 843.093 381.731 846.981 379.427C843.237 377.627 840.285 374.387 840.285 368.915C840.285 361.355 847.125 355.163 854.973 355.163C856.773 355.163 858.573 355.379 860.229 355.811C861.237 354.299 862.533 352.931 864.045 351.923C866.349 350.267 868.797 349.331 871.821 349.331C874.053 349.331 875.997 349.907 875.997 351.275C875.997 352.571 874.485 355.667 871.461 355.667C869.733 355.667 867.573 355.019 863.469 353.651C862.749 354.227 862.029 355.091 861.309 356.171C865.917 357.683 869.517 361.211 869.517 367.403C869.517 375.467 860.877 381.083 854.973 381.083C852.741 381.083 850.221 380.723 847.989 379.859C846.765 380.651 845.901 381.371 845.901 382.595C845.901 383.963 846.909 385.403 853.533 385.763L863.181 386.339C870.597 386.771 874.197 388.139 874.197 393.251C874.197 401.099 861.813 411.611 848.565 411.611ZM856.485 379.859C861.381 379.859 862.893 375.755 862.893 371.507C862.893 365.099 859.077 355.595 852.597 356.243C848.277 356.747 846.981 360.635 846.981 364.955C846.981 370.859 849.861 379.859 856.485 379.859ZM843.093 399.371C843.093 405.131 848.061 407.291 853.677 407.291C863.757 407.291 870.741 402.251 870.741 397.211C870.741 394.907 869.229 393.539 863.541 393.251L851.949 392.675C850.221 392.603 848.637 392.387 847.269 392.171C844.029 394.475 843.093 396.995 843.093 399.371ZM875.938 391.667V390.659C878.314 389.867 878.818 387.707 878.818 382.523V344.363C878.818 340.115 877.738 339.395 875.938 338.603V337.595L885.442 333.419L886.162 333.995V361.643C890.122 358.403 895.306 355.163 900.922 355.163C907.546 355.163 912.01 358.619 912.01 367.043V382.523C912.01 387.707 912.514 389.867 914.89 390.659V391.667H901.786V390.659C904.162 389.867 904.666 387.707 904.666 382.523V368.339C904.666 361.859 901.858 358.043 896.53 358.043C893.146 358.043 890.05 359.699 886.162 362.867V382.523C886.162 387.707 886.666 389.867 889.042 390.659V391.667H875.938ZM3.71798 492.667V491.659C6.09398 490.867 6.59798 488.707 6.59798 483.523V451.411C6.59798 446.227 6.09398 444.067 3.71798 443.275V442.267H17.11V443.275C14.734 444.067 14.23 446.227 14.23 451.411V465.307H39.286V451.411C39.286 446.227 38.782 444.067 36.406 443.275V442.267H49.798V443.275C47.422 444.067 46.918 446.227 46.918 451.411V483.523C46.918 488.707 47.422 490.867 49.798 491.659V492.667H36.406V491.659C38.782 490.867 39.286 488.707 39.286 483.523V466.603H14.23V483.523C14.23 488.707 14.734 490.867 17.11 491.659V492.667H3.71798ZM72.0831 493.387C64.0911 493.387 55.0191 487.699 55.0191 476.035C55.0191 463.795 64.5951 456.163 73.9551 456.163C83.6751 456.163 88.8591 462.859 88.8591 469.123H61.5711C61.4991 469.915 61.4271 470.635 61.4271 471.427C61.4271 480.859 67.1871 487.555 76.3311 487.555C81.6591 487.555 85.7631 485.251 88.7871 481.867L89.4351 482.587C86.1231 487.627 80.4351 493.387 72.0831 493.387ZM61.6431 468.115H81.5871C80.6511 462.211 76.6911 457.531 71.7231 457.459C65.6031 457.387 62.5071 462.499 61.6431 468.115ZM93.264 492.667V491.659C95.64 490.867 96.144 488.707 96.144 483.523V466.963C96.144 462.715 95.064 461.995 93.264 461.203V460.195L102.768 456.019L103.488 456.595V465.307C104.568 462.787 106.44 460.555 108.744 458.971C111.408 457.099 114.144 456.163 117.6 456.163C120.048 456.163 122.208 456.811 122.208 458.323C122.208 459.907 120.624 463.003 117.312 463.003C115.296 463.003 112.56 462.283 107.952 460.843C106.152 462.355 103.704 465.595 103.488 469.195V483.523C103.488 488.707 103.992 490.867 106.368 491.659V492.667H93.264ZM158.738 493.387C151.322 493.387 144.626 491.011 140.954 488.275L140.666 477.475L141.602 477.331C144.626 485.539 151.034 491.875 160.61 491.875C165.578 491.875 170.186 488.707 170.186 482.803C170.186 475.747 160.898 472.435 155.138 470.131C147.722 467.035 141.53 464.587 141.53 456.235C141.53 447.307 148.73 441.763 160.034 441.763C165.362 441.763 170.114 442.915 173.858 444.787L174.146 454.147L173.354 454.435C170.402 447.019 164.282 442.987 157.298 442.987C151.538 442.987 147.002 446.371 147.002 452.059C147.002 458.467 154.274 461.059 160.034 463.363C167.378 466.171 176.09 469.411 176.09 478.051C176.09 487.915 167.018 493.387 158.738 493.387ZM191.479 493.387C186.583 493.387 183.991 490.291 183.991 482.515V457.819H179.383V456.667L190.183 447.163H191.335V456.667H202.495L202.207 457.819H191.335V482.587C191.335 487.051 192.991 488.995 196.159 488.995C197.743 488.995 200.191 488.347 202.567 485.395L203.287 486.115C199.471 490.507 195.799 493.387 191.479 493.387ZM206.199 506.563C203.247 506.635 200.943 505.699 200.943 504.259C200.943 502.891 202.887 499.723 206.271 499.723C208.359 499.723 212.319 500.371 216.063 501.019C217.791 499.147 219.519 496.339 221.103 493.027L209.007 465.091C206.991 460.267 205.047 458.467 203.391 457.675V456.667H216.135V457.675C213.759 458.467 214.839 460.267 216.927 465.019L225.135 483.739L233.199 465.091C235.215 460.267 234.855 458.251 232.407 457.675V456.667H240.615V457.675C238.455 458.467 236.439 460.267 234.351 465.019L223.335 490.507C217.863 503.107 212.823 506.419 206.199 506.563ZM242.119 492.667V491.659C244.495 490.867 244.999 488.707 244.999 483.523V445.363C244.999 441.115 243.919 440.395 242.119 439.603V438.595L251.623 434.419L252.343 434.995V483.523C252.343 488.707 252.847 490.867 255.223 491.659V492.667H242.119ZM276.974 493.387C268.982 493.387 259.91 487.699 259.91 476.035C259.91 463.795 269.486 456.163 278.846 456.163C288.566 456.163 293.75 462.859 293.75 469.123H266.462C266.39 469.915 266.318 470.635 266.318 471.427C266.318 480.859 272.078 487.555 281.222 487.555C286.55 487.555 290.654 485.251 293.678 481.867L294.326 482.587C291.014 487.627 285.326 493.387 276.974 493.387ZM266.534 468.115H286.478C285.542 462.211 281.582 457.531 276.614 457.459C270.494 457.387 267.398 462.499 266.534 468.115ZM304.347 493.171C302.043 493.171 300.099 491.155 300.099 488.779C300.099 486.403 302.043 484.459 304.347 484.459C306.651 484.459 308.523 486.403 308.523 488.779C308.523 491.155 306.651 493.171 304.347 493.171Z" fill="#5F594F"/>
</svg>
